<?xml version="1.0" standalone="no"?>
<!DOCTYPE svg PUBLIC "-//W3C//DTD SVG 20010904//EN"
 "http://www.w3.org/TR/2001/REC-SVG-20010904/DTD/svg10.dtd">
<svg version="1.0" xmlns="http://www.w3.org/2000/svg"
 width="512.000000pt" height="512.000000pt" viewBox="0 0 512.000000 512.000000"
 preserveAspectRatio="xMidYMid meet">

<g transform="translate(0.000000,512.000000) scale(0.100000,-0.100000)"
fill="#000000" stroke="none">
<path d="M2567 4976 c-7 -18 -94 -31 -112 -16 -10 8 -15 7 -19 -7 -6 -18 -72
-53 -100 -53 -7 0 -20 -10 -28 -22 -14 -21 -16 -21 -64 -7 -64 18 -171 16
-209 -4 -37 -19 -102 -86 -142 -147 -37 -54 -143 -264 -173 -340 -12 -30 -28
-63 -37 -72 -8 -9 -17 -36 -20 -60 -8 -54 -59 -133 -97 -149 -37 -16 -66 -64
-66 -110 0 -39 -25 -73 -84 -114 -24 -17 -30 -31 -37 -79 -5 -37 -15 -66 -28
-80 -35 -37 -28 -79 24 -134 25 -26 45 -52 45 -59 0 -17 57 -62 88 -69 15 -4
60 -25 101 -47 67 -36 78 -39 128 -34 31 3 80 1 109 -5 44 -9 62 -8 96 5 24 9
60 19 81 23 33 5 41 3 69 -25 31 -30 73 -49 84 -38 3 2 -6 43 -19 90 -20 72
-22 87 -10 91 8 3 12 14 9 23 -2 10 -7 38 -11 63 l-6 45 20 -55 c11 -30 20
-63 21 -73 0 -10 7 -32 16 -50 11 -19 18 -62 20 -113 2 -57 11 -103 29 -155
15 -41 29 -84 32 -96 3 -13 9 -20 14 -17 8 5 14 -26 10 -50 -1 -5 8 -6 19 -3
16 4 19 2 11 -7 -12 -14 2 -41 17 -32 5 3 9 -2 8 -12 0 -10 6 -16 16 -16 10 1
16 -2 13 -6 -3 -5 7 -18 22 -29 16 -11 34 -25 40 -31 7 -6 14 -9 17 -8 2 2 12
-4 22 -12 11 -9 31 -22 47 -30 28 -14 36 -30 14 -30 -7 0 -30 9 -50 19 -26 13
-34 15 -26 5 6 -8 9 -17 6 -20 -3 -4 -16 13 -27 37 -14 29 -38 55 -71 77 -27
17 -49 37 -49 43 0 7 -9 9 -22 6 -16 -5 -33 4 -66 35 -43 39 -46 40 -96 34
-28 -3 -77 -9 -108 -12 -79 -9 -90 -25 -48 -69 18 -19 49 -42 67 -50 32 -15
33 -18 19 -34 -23 -26 -20 -38 15 -50 47 -16 71 -14 123 14 47 25 48 25 71 7
13 -11 45 -25 70 -32 37 -10 43 -15 34 -26 -6 -8 -14 -28 -18 -45 -5 -25 -14
-34 -46 -46 -22 -8 -50 -14 -62 -14 -13 0 -27 -8 -34 -21 -11 -21 -12 -20 -42
12 -16 17 -71 52 -121 77 -100 49 -127 51 -230 17 -46 -16 -116 -15 -171 1
-14 4 -30 -2 -49 -20 -15 -14 -55 -37 -88 -50 -86 -35 -196 -106 -246 -159
-24 -25 -40 -46 -34 -46 5 0 17 9 27 20 25 27 29 26 44 -17 8 -20 17 -41 22
-47 5 -6 20 -25 33 -42 l25 -31 -40 -39 -39 -38 -36 36 -36 36 38 43 38 44
-42 -39 -41 -40 -15 34 c-7 19 -11 41 -8 49 4 12 2 13 -8 4 -19 -17 4 -75 51
-126 21 -23 39 -47 39 -53 0 -6 -10 -23 -21 -38 -30 -38 -17 -43 14 -6 23 26
29 29 50 19 22 -10 29 -6 80 46 32 31 57 60 57 63 0 11 81 62 98 62 7 0 12 6
9 13 -4 11 64 57 85 57 5 0 21 9 35 20 18 14 41 20 74 20 27 0 49 4 49 8 0 5
-13 18 -30 30 -16 12 -34 31 -40 41 -8 16 -7 18 10 14 11 -3 20 -12 20 -21 0
-8 3 -13 6 -9 4 3 15 -4 25 -16 l18 -22 1 25 2 25 9 -25 c6 -14 25 -35 43 -46
31 -20 33 -20 29 -3 -3 11 -2 19 1 19 20 0 44 -22 50 -45 6 -24 26 -36 26 -15
0 21 19 8 29 -20 5 -16 12 -30 15 -30 3 0 3 6 0 13 -3 8 3 13 15 13 11 0 18
-3 15 -7 -2 -4 10 -21 28 -38 34 -33 33 -36 -6 -21 -14 5 -26 6 -26 1 0 -4 18
-14 41 -21 23 -8 43 -20 46 -27 3 -7 11 -13 18 -13 13 0 36 -54 41 -97 1 -12
10 -33 19 -46 15 -23 15 -25 -2 -23 -13 1 -19 -7 -21 -26 -2 -16 1 -28 7 -28
5 0 13 -9 16 -20 3 -11 11 -20 17 -20 6 0 35 -18 65 -41 40 -30 60 -39 81 -36
54 9 72 19 72 41 0 29 -26 110 -43 138 -9 13 -20 42 -27 66 -11 41 -12 42 -43
37 -28 -5 -38 0 -81 40 -27 25 -46 48 -43 52 4 3 16 -2 27 -12 20 -18 20 -18
20 22 0 34 3 39 21 38 12 -1 36 -18 54 -38 20 -22 39 -35 47 -32 22 8 67 -12
97 -43 43 -45 69 -61 38 -24 -15 19 -27 38 -27 43 0 11 35 -6 45 -21 3 -6 14
-10 23 -9 14 0 15 2 2 7 -31 14 -69 44 -74 59 -5 12 -1 14 21 9 28 -6 28 -6
-4 15 -18 11 -30 25 -27 31 3 5 16 3 30 -7 13 -8 24 -11 24 -5 0 5 17 10 38
10 l37 1 -25 15 -25 15 30 -5 c17 -2 41 -7 55 -12 l25 -7 -27 22 c-16 12 -28
27 -28 32 0 6 12 1 27 -11 l27 -21 44 43 c43 42 44 42 28 11 -9 -18 -28 -43
-42 -57 -23 -21 -26 -32 -26 -87 0 -61 -1 -64 -45 -106 -48 -47 -59 -50 -89
-28 -10 8 -23 14 -29 14 -5 1 1 -8 15 -19 14 -11 33 -20 42 -20 10 0 24 -13
33 -29 23 -46 31 -44 30 12 0 46 3 53 33 73 34 24 63 22 84 -4 10 -12 10 -14
1 -8 -7 4 -13 3 -13 -3 0 -5 5 -13 10 -16 16 -10 11 -61 -7 -77 -10 -9 -31
-20 -48 -26 -16 -6 -24 -11 -17 -11 6 -1 12 -5 12 -11 0 -5 -24 -10 -54 -10
-39 0 -60 6 -80 21 -35 27 -43 19 -12 -11 20 -18 37 -23 88 -24 l63 -1 6 -40
c4 -22 4 -44 2 -49 -7 -11 -124 1 -137 14 -6 6 -15 10 -21 10 -5 -1 1 -10 14
-20 18 -15 38 -20 86 -20 63 0 75 -7 75 -43 0 -15 -56 -47 -82 -47 -11 0 -37
10 -57 21 l-36 22 27 -27 c17 -16 38 -26 56 -26 26 0 30 -4 34 -32 3 -18 8
-41 13 -51 7 -16 4 -17 -21 -12 -51 12 -54 14 -54 46 0 30 -22 58 -45 58 -5 1
1 -8 15 -19 14 -10 22 -22 18 -26 -4 -4 -16 -1 -25 7 -10 7 -7 0 7 -15 l25
-29 -23 6 c-20 5 -22 3 -10 -11 7 -9 17 -20 21 -23 5 -3 11 -25 14 -48 5 -39
4 -41 -20 -41 -14 0 -33 3 -42 6 -15 6 -15 8 0 24 11 12 13 20 6 25 -6 3 -11
-1 -11 -10 0 -11 -5 -15 -14 -12 -15 6 -30 -19 -20 -34 3 -5 17 -9 32 -9 56 0
70 -10 77 -52 4 -21 4 -42 1 -45 -3 -4 -31 -1 -61 6 -52 12 -55 14 -56 44 -1
18 -1 36 0 41 1 4 -4 15 -10 23 -19 22 -28 -3 -16 -43 6 -19 8 -36 6 -39 -8
-7 -69 18 -69 28 0 4 5 5 12 1 7 -5 9 -2 5 8 -3 9 0 15 6 14 13 -1 17 6 17 32
-1 15 -2 15 -16 -3 -12 -16 -16 -17 -23 -6 -6 9 -11 10 -15 2 -11 -18 -29 -13
-22 6 6 15 4 15 -14 -2 -19 -17 -20 -17 -20 0 0 11 -5 15 -15 11 -8 -3 -15 -1
-15 5 0 6 -6 9 -13 6 -8 -3 -20 3 -27 13 -8 11 -17 17 -22 14 -4 -3 -8 0 -8 7
0 7 -3 9 -7 6 -3 -4 -13 2 -20 13 -8 11 -19 18 -24 14 -6 -4 -3 -15 9 -28 10
-11 22 -28 26 -36 6 -11 4 -11 -6 1 -15 18 -61 17 -84 -2 -25 -21 -42 -63 -55
-135 -7 -38 -18 -76 -24 -84 -7 -8 -16 -26 -20 -40 -4 -14 -21 -37 -38 -51
l-31 -26 -68 19 c-97 27 -128 22 -151 -24 -23 -47 -15 -140 14 -167 21 -19 36
-100 24 -128 -4 -10 -7 -30 -6 -46 2 -19 -2 -27 -13 -27 -17 0 -22 39 -7 55
12 13 -4 126 -20 136 -19 12 -39 -1 -46 -30 -3 -14 -17 -36 -30 -48 -21 -20
-33 -73 -15 -73 4 0 7 -30 7 -68 0 -70 -12 -97 -106 -239 -19 -30 -20 -33 -4
-40 10 -3 27 0 38 7 16 9 22 10 25 1 2 -6 10 -18 18 -25 8 -8 14 -20 14 -26 0
-23 40 -68 76 -85 35 -16 37 -16 56 3 48 48 249 446 299 592 18 54 41 102 53
112 21 17 21 16 33 -28 10 -41 8 -55 -22 -152 -48 -151 -110 -411 -140 -587
-62 -359 -77 -422 -120 -506 l-16 -29 181 0 180 0 6 24 c3 14 3 34 -1 45 -8
26 64 333 76 325 5 -3 6 1 4 8 -3 8 11 94 30 193 43 213 66 263 175 369 68 67
71 69 96 56 14 -8 42 -32 63 -54 62 -68 123 -112 232 -170 65 -35 144 -88 210
-143 58 -48 132 -108 165 -133 32 -25 61 -48 64 -51 3 -3 36 -26 73 -52 67
-46 68 -46 45 -61 -13 -8 -54 -20 -93 -26 -126 -19 -170 -36 -208 -80 -35 -41
-132 -85 -162 -74 -29 11 -87 -37 -112 -93 -20 -43 -28 -52 -39 -42 -7 6 -13
14 -12 17 2 21 -9 35 -81 95 -44 37 -83 62 -86 57 -10 -17 -24 -2 -18 20 5 19
23 29 23 13 0 -12 64 -53 81 -53 21 0 18 39 -4 46 -11 4 -16 12 -12 23 4 12
-2 17 -21 19 -27 2 -56 30 -48 44 3 5 1 8 -5 8 -5 0 -14 -7 -19 -16 -8 -14
-10 -14 -25 1 -9 9 -21 13 -27 10 -5 -3 -10 1 -10 9 0 21 -13 20 -33 -2 -19
-21 -22 -42 -6 -42 6 0 8 -8 4 -19 -4 -14 0 -21 15 -26 11 -3 25 -15 30 -26 6
-10 17 -19 24 -19 8 0 19 -7 26 -15 7 -8 20 -15 30 -15 10 0 28 -8 40 -18 l22
-18 -38 -24 c-36 -23 -84 -82 -84 -101 0 -5 230 -9 510 -9 l510 0 0 35 c0 30
6 38 39 59 65 41 128 128 152 209 12 40 25 77 29 82 5 6 13 29 19 52 20 75 1
93 -179 163 -32 12 -76 41 -105 69 -27 26 -86 78 -130 117 -44 38 -86 75 -94
82 -86 82 -260 202 -304 209 l-36 6 33 39 c19 21 44 58 56 82 16 30 32 45 54
52 40 12 62 56 77 156 11 68 11 79 -5 103 -17 26 -26 28 -68 10 -13 -5 -18 -3
-18 8 0 11 -9 14 -37 10 -52 -7 -54 -13 -7 -14 l39 -2 -35 -6 c-39 -8 -63 -3
-54 10 3 5 -2 9 -10 9 -9 0 -16 -4 -16 -10 0 -5 -22 -10 -50 -10 -30 0 -50 4
-50 11 0 8 16 9 48 5 32 -4 41 -3 27 3 -11 5 -32 10 -47 10 -27 1 -28 3 -28
52 l0 50 52 -3 c50 -3 53 -5 59 -33 6 -25 7 -26 8 -6 1 16 5 21 16 18 8 -4 17
-2 20 3 4 6 -3 10 -15 10 -12 0 -18 5 -15 10 3 6 -4 10 -17 10 -22 1 -22 1 -5
14 17 13 16 14 -6 12 -15 0 -23 -6 -20 -13 6 -14 -9 -16 -56 -7 -30 6 -31 8
-31 60 0 51 1 54 31 62 l32 8 -28 12 c-24 11 -27 11 -22 -3 4 -8 2 -15 -3 -15
-9 0 -12 11 -9 38 0 4 10 6 22 5 20 -3 20 -1 -5 18 -34 25 -36 39 -5 32 19 -4
18 -2 -5 12 -29 16 -39 41 -14 32 8 -3 20 0 26 8 17 20 66 28 91 14 20 -10 25
-9 41 10 47 59 61 190 19 176 -27 -8 -52 5 -47 24 3 9 7 31 8 49 1 17 6 32 10
32 4 0 8 5 8 12 0 6 -11 1 -25 -12 -23 -22 -25 -22 -25 -4 0 15 -2 16 -9 5 -5
-7 -13 -11 -18 -8 -9 5 -82 18 -118 21 -17 1 -19 7 -16 36 3 40 14 50 44 42
14 -3 18 -1 13 6 -4 7 -17 12 -29 13 -20 1 -19 2 4 10 15 6 39 28 54 49 15 22
31 40 36 40 4 0 16 -22 26 -50 13 -38 25 -54 49 -65 47 -22 55 -17 12 6 -21
11 -38 23 -38 28 0 5 -9 30 -21 56 -19 43 -22 46 -38 31 -10 -9 -20 -14 -23
-11 -3 3 -16 -10 -29 -30 -27 -40 -39 -43 -62 -17 -19 21 -22 38 -7 45 6 3 5
4 -2 3 -7 -1 -14 -15 -16 -30 -2 -17 -12 -31 -28 -38 -15 -7 -23 -17 -20 -25
4 -8 1 -11 -5 -8 -6 4 -8 13 -5 20 4 12 -8 19 -39 23 -5 1 -10 -5 -10 -13 0
-8 -5 -15 -10 -15 -13 1 -12 99 2 108 5 4 28 28 51 54 38 44 40 46 47 25 21
-61 23 -63 24 -29 1 17 -4 32 -9 32 -7 0 -7 7 0 20 9 16 15 18 30 10 26 -14
27 -13 34 13 6 22 6 21 26 -8 16 -23 19 -39 15 -71 -6 -45 13 -66 36 -38 9 11
15 12 26 3 11 -10 17 -8 30 11 13 18 22 21 54 17 24 -3 40 -1 42 7 3 7 12 4
26 -8 11 -11 24 -16 27 -13 4 4 -1 9 -10 13 -9 3 -21 15 -27 27 -10 18 -9 19
12 14 l24 -6 -22 19 c-30 24 -30 44 -1 34 19 -6 18 -3 -7 19 -31 26 -29 50 2
26 10 -7 7 -1 -6 14 -27 29 -22 48 6 26 12 -9 11 -5 -3 11 -22 25 -31 90 -13
90 5 0 2 11 -7 24 -19 30 -41 24 -49 -15 -7 -30 -20 -38 -29 -16 -10 24 -35
-25 -51 -102 -9 -42 -20 -89 -24 -106 l-7 -29 -28 54 c-50 96 -53 97 -108 38
-21 -23 -38 -38 -38 -34 0 4 38 47 84 94 45 48 90 102 100 119 19 38 21 73 4
73 -7 0 -19 4 -27 9 -12 8 -12 12 -2 25 8 9 9 16 3 16 -5 0 -16 -7 -23 -17
-24 -28 -94 -53 -172 -59 -99 -9 -153 14 -273 114 -67 56 -80 70 -92 96 -7 17
-28 48 -45 70 -18 22 -31 41 -29 43 8 10 0 23 -10 17 -7 -4 -10 -4 -7 0 4 4
-2 30 -12 59 -26 70 -24 103 6 133 19 19 34 25 58 23 40 -3 93 24 100 51 7 29
-25 40 -116 40 -75 0 -117 16 -117 46 0 8 -4 14 -8 14 -16 0 -35 150 -29 237
3 50 0 98 -5 113 -14 34 -19 72 -11 90 3 8 7 52 7 97 1 110 4 112 151 105 132
-6 162 4 280 93 52 39 87 59 114 62 36 5 43 2 77 -33 20 -22 33 -33 29 -25 -5
9 -3 12 6 9 8 -3 17 -20 20 -39 3 -19 13 -49 22 -66 10 -18 31 -93 47 -165 32
-139 69 -263 77 -255 2 3 -3 38 -11 78 -11 54 -13 107 -9 194 5 116 7 123 49
210 103 216 136 397 99 553 -3 12 -12 22 -21 22 -24 0 -74 42 -74 62 0 19 -16
25 -22 9 -5 -14 -106 23 -122 44 -11 15 -14 16 -19 3 -7 -21 -96 -12 -115 11
-10 12 -15 13 -18 4 -8 -19 -108 -17 -124 2 -16 19 -36 19 -43 1z m-97 -566
c0 -5 -4 -10 -10 -10 -5 0 -10 5 -10 10 0 6 5 10 10 10 6 0 10 -4 10 -10z
m-777 -140 c-3 -12 -8 -19 -11 -16 -5 6 5 36 12 36 2 0 2 -9 -1 -20z m-144
-234 c-23 -39 -29 -44 -29 -22 0 15 40 69 47 63 2 -3 -6 -21 -18 -41z m-129
-197 c-7 -11 -14 -18 -17 -15 -3 3 0 12 7 21 18 21 23 19 10 -6z m1497 -991
c-3 -8 -6 -5 -6 6 -1 11 2 17 5 13 3 -3 4 -12 1 -19z m33 -27 c0 -6 -4 -13
-10 -16 -5 -3 -10 1 -10 9 0 9 5 16 10 16 6 0 10 -4 10 -9z m-34 -38 c-10 -10
-19 5 -10 18 6 11 8 11 12 0 2 -7 1 -15 -2 -18z m-1491 -200 c3 -10 -10 -29
-37 -54 -50 -45 -40 -53 11 -9 19 16 38 27 43 24 16 -10 -14 -134 -33 -134 -9
0 -44 42 -68 83 -28 46 -22 81 16 100 30 16 59 12 68 -10z m830 -61 c-3 -3
-11 0 -18 7 -9 10 -8 11 6 5 10 -3 15 -9 12 -12z m745 -12 c0 -5 -2 -10 -4
-10 -3 0 -8 5 -11 10 -3 6 -1 10 4 10 6 0 11 -4 11 -10z m-480 -36 c0 -2 -9 0
-20 6 -11 6 -20 13 -20 16 0 2 9 0 20 -6 11 -6 20 -13 20 -16z m-265 -34 c3
-5 2 -10 -4 -10 -5 0 -13 5 -16 10 -3 6 -2 10 4 10 5 0 13 -4 16 -10z m600
-60 c3 -5 1 -10 -4 -10 -6 0 -11 5 -11 10 0 6 2 10 4 10 3 0 8 -4 11 -10z
m-1463 -40 c-17 -29 -40 -45 -50 -35 -4 4 55 63 65 65 1 0 -6 -13 -15 -30z
m878 -19 c-1 -12 -5 -10 -20 8 -26 30 -26 49 0 26 11 -10 20 -25 20 -34z m-26
-4 c29 -42 30 -47 16 -47 -9 0 -50 71 -50 86 0 10 5 4 34 -39z m576 33 c0 -5
-2 -10 -4 -10 -3 0 -8 5 -11 10 -3 6 -1 10 4 10 6 0 11 -4 11 -10z m-561 -115
c0 -5 -9 1 -19 14 -11 13 -20 28 -20 35 0 6 9 0 20 -14 11 -14 20 -29 19 -35z
m518 -90 c-4 -8 -18 -15 -34 -15 l-28 0 30 19 c33 20 40 19 32 -4z m188 -11
l30 -26 -35 23 c-45 29 -45 29 -34 29 5 0 23 -12 39 -26z m-65 -14 c0 -5 -4
-10 -9 -10 -6 0 -13 5 -16 10 -3 6 1 10 9 10 9 0 16 -4 16 -10z m-110 -10 c0
-5 -2 -10 -4 -10 -3 0 -8 5 -11 10 -3 6 -1 10 4 10 6 0 11 -4 11 -10z m4 -25
c20 4 36 11 36 16 0 5 7 9 16 9 8 0 13 -4 9 -9 -3 -5 -1 -12 5 -16 5 -3 10 0
10 7 0 7 12 0 26 -16 29 -32 24 -48 -6 -21 -11 10 -20 13 -20 7 0 -6 11 -19
25 -28 14 -9 25 -23 25 -30 0 -20 -17 -17 -33 6 -8 11 -16 18 -18 15 -3 -2
-32 -7 -65 -10 -58 -7 -61 -6 -67 17 -4 12 -7 37 -7 53 1 28 2 29 14 12 11
-14 22 -17 50 -12z m251 -15 c3 -5 1 -10 -4 -10 -6 0 -11 5 -11 10 0 6 2 10 4
10 3 0 8 -4 11 -10z m-148 -86 c18 -10 33 -25 33 -31 0 -17 -10 -16 -32 4 -10
9 -18 11 -18 5 0 -6 5 -14 10 -17 7 -4 6 -13 -1 -27 -9 -16 -18 -19 -44 -15
-33 5 -33 5 -24 -25 10 -36 1 -56 -39 -82 -27 -18 -28 -23 -24 -67 l4 -48 -38
5 c-97 14 -99 16 -102 68 l-3 47 52 -7 52 -7 -16 24 c-25 35 -21 65 13 101 21
22 30 40 28 57 -3 24 0 26 47 31 64 7 64 7 102 -16z m-3 -116 c3 -13 6 -35 6
-50 0 -25 -3 -28 -36 -28 -33 0 -36 2 -29 23 4 12 7 34 7 50 -1 22 3 27 22 27
16 0 26 -7 30 -22z m10 -119 c3 -17 6 -43 6 -56 0 -25 -2 -25 -60 -21 -33 2
-62 6 -64 9 -2 2 -6 25 -8 52 l-5 47 62 0 c62 0 63 0 69 -31z m-142 -85 c9 -6
11 -78 3 -86 -9 -8 -120 14 -127 26 -4 6 -8 26 -8 45 l0 34 62 -7 c34 -4 66
-10 70 -12z m126 -10 c19 -5 22 -13 22 -51 l0 -45 -55 4 c-30 3 -57 7 -59 9
-2 2 -7 23 -11 47 l-7 42 44 0 c23 0 53 -3 66 -6z m-285 -71 c-7 -2 -19 -2
-25 0 -7 3 -2 5 12 5 14 0 19 -2 13 -5z m-129 -28 c-4 -8 -8 -15 -10 -15 -2 0
-4 7 -4 15 0 8 4 15 10 15 5 0 7 -7 4 -15z m251 5 c3 -6 -1 -7 -9 -4 -18 7
-21 14 -7 14 6 0 13 -4 16 -10z m127 -39 c116 -52 150 -149 82 -231 -41 -48
-80 -64 -159 -64 -59 -1 -77 3 -117 27 -79 46 -111 116 -84 182 19 46 35 61
88 85 55 25 134 26 190 1z m45 13 c-3 -3 -12 -4 -19 -1 -8 3 -5 6 6 6 11 1 17
-2 13 -5z m-787 -64 c0 -11 -7 -20 -15 -20 -18 0 -19 12 -3 28 16 16 18 15 18
-8z m980 -46 c0 -8 -5 -12 -10 -9 -6 4 -8 11 -5 16 9 14 15 11 15 -7z m-1083
-50 c-3 -3 -12 -4 -19 -1 -8 3 -5 6 6 6 11 1 17 -2 13 -5z m-257 -249 c0 -14
-4 -25 -10 -25 -11 0 -14 33 -3 43 11 11 13 8 13 -18z m560 -134 l-1 -26 -14
25 c-14 25 -15 25 -10 -10 5 -32 5 -33 -5 -10 -8 18 -13 21 -19 11 -6 -10 -10
-9 -15 4 -10 27 -7 38 9 31 8 -3 15 -1 15 3 0 5 9 7 20 4 14 -4 20 -14 20 -32z
m-562 7 c-6 -18 -28 -21 -28 -4 0 9 7 16 16 16 9 0 14 -5 12 -12z m497 -59 c4
-30 3 -39 -3 -29 -5 8 -13 35 -16 60 -5 32 -4 40 3 29 6 -9 13 -36 16 -60z
m868 46 c28 5 27 3 -10 -11 -29 -10 -40 -20 -36 -30 3 -8 1 -14 -5 -14 -8 0
-9 28 -2 38 3 2 6 15 10 35 1 6 4 4 7 -5 3 -13 12 -16 36 -13z m-906 -17 c-3
-8 -6 -5 -6 6 -1 11 2 17 5 13 3 -3 4 -12 1 -19z m941 -4 c-41 -21 -34 -34 14
-28 55 7 45 -3 -15 -15 -48 -9 -87 2 -53 15 13 5 14 9 5 15 -8 5 -1 11 22 17
49 15 58 13 27 -4z m-869 -47 c1 -5 -3 -5 -9 -2 -5 3 -10 16 -9 28 0 21 1 21
9 2 5 -11 9 -24 9 -28z m-62 1 c-3 -7 -5 -2 -5 12 0 14 2 19 5 13 2 -7 2 -19
0 -25z m998 -8 c-17 -7 -16 -9 10 -10 29 -2 29 -2 5 -9 -14 -4 -31 -4 -37 2
-7 5 -24 6 -38 3 -14 -4 -25 -2 -25 3 0 10 33 17 80 19 23 1 23 0 5 -8z m-975
-45 c0 -5 -5 -3 -10 5 -5 8 -10 20 -10 25 0 6 5 3 10 -5 5 -8 10 -19 10 -25z
m937 10 c0 -8 -4 -12 -9 -9 -4 3 -8 9 -8 15 0 5 4 9 8 9 5 0 9 -7 9 -15z
m-959 -30 c-3 -3 -9 2 -12 12 -6 14 -5 15 5 6 7 -7 10 -15 7 -18z m1107 5 c-3
-6 4 -10 17 -11 22 0 22 -1 3 -9 l-20 -9 20 -1 c19 -1 19 -1 2 -11 -9 -6 -15
-14 -12 -20 4 -5 1 -9 -4 -9 -6 0 -11 5 -11 10 0 6 -10 11 -22 11 -20 1 -20 2
-4 6 14 4 16 7 6 13 -10 6 -10 11 1 24 15 17 34 22 24 6z m70 -60 c3 -6 -4
-10 -17 -10 -18 0 -20 2 -8 10 19 12 18 12 25 0z m-15 -30 c0 -5 -4 -10 -9
-10 -6 0 -13 5 -16 10 -3 6 1 10 9 10 9 0 16 -4 16 -10z m50 0 c12 -8 10 -9
-7 -7 -12 2 -26 6 -29 10 -11 11 19 8 36 -3z m-27 -27 c-7 -2 -19 -2 -25 0 -7
3 -2 5 12 5 14 0 19 -2 13 -5z m24 -49 c-3 -3 -12 -4 -19 -1 -8 3 -5 6 6 6 11
1 17 -2 13 -5z m83 -5 c0 -5 5 -7 12 -3 7 4 8 3 4 -4 -4 -7 -1 -12 6 -13 10 0
10 -2 1 -6 -7 -2 -25 5 -39 16 -25 20 -26 21 -5 21 11 0 21 -5 21 -11z m-1342
-94 c-3 -3 -9 2 -12 12 -6 14 -5 15 5 6 7 -7 10 -15 7 -18z m1429 19 c-3 -3
-12 -4 -19 -1 -8 3 -5 6 6 6 11 1 17 -2 13 -5z m147 -79 c3 -8 1 -15 -4 -15
-6 0 -10 7 -10 15 0 8 2 15 4 15 2 0 6 -7 10 -15z m-1584 -97 c0 -19 -2 -20
-10 -8 -13 19 -13 30 0 30 6 0 10 -10 10 -22z m0 -62 c0 -6 -7 -2 -15 8 -8 11
-15 25 -15 30 0 6 7 2 15 -8 8 -11 15 -25 15 -30z m-20 -30 c0 -6 -7 2 -15 18
-8 15 -15 33 -15 40 0 6 7 -2 15 -18 8 -15 15 -33 15 -40z m9 -86 c0 -13 -1
-13 -8 0 -5 8 -12 26 -15 40 l-7 25 15 -25 c9 -14 15 -32 15 -40z m-71 -35
c-3 -3 -9 2 -12 12 -6 14 -5 15 5 6 7 -7 10 -15 7 -18z m62 6 c0 -5 3 -17 7
-27 4 -11 3 -15 -4 -11 -6 4 -13 1 -16 -5 -2 -7 -4 2 -3 19 1 18 4 33 9 33 4
0 7 -4 7 -9z"/>
<path d="M2713 1503 c9 -2 25 -2 35 0 9 3 1 5 -18 5 -19 0 -27 -2 -17 -5z"/>
<path d="M2810 1505 c0 -2 20 -13 44 -25 47 -22 75 -56 87 -105 l7 -30 1 34
c1 28 -7 42 -43 76 -24 23 -55 44 -70 47 -14 3 -26 4 -26 3z"/>
<path d="M2634 1473 c-17 -16 -23 -23 -15 -16 9 6 30 19 46 27 17 9 23 16 15
16 -9 0 -29 -12 -46 -27z"/>
<path d="M2640 1346 c0 -2 8 -10 18 -17 15 -13 16 -12 3 4 -13 16 -21 21 -21
13z"/>
<path d="M2720 1314 c0 -17 27 -37 42 -31 8 4 7 6 -4 6 -9 1 -22 9 -27 19 -6
9 -11 12 -11 6z"/>
<path d="M2865 1290 c-3 -6 1 -7 9 -4 18 7 21 14 7 14 -6 0 -13 -4 -16 -10z"/>
<path d="M2643 4219 c-29 -17 -53 -34 -53 -38 0 -19 16 -18 59 4 25 13 58 27
73 30 42 11 95 -12 124 -53 31 -44 23 -11 -9 35 -42 62 -112 70 -194 22z"/>
<path d="M2324 4122 c-92 -32 -122 -62 -139 -139 -8 -39 11 -46 21 -8 7 29 64
82 108 100 17 7 58 16 91 20 71 9 76 11 68 30 -7 21 -85 19 -149 -3z"/>
<path d="M2390 3991 c65 -10 84 -24 111 -80 13 -28 24 -49 26 -47 10 9 -24 82
-49 106 -27 26 -38 30 -82 29 l-51 -2 45 -6z"/>
<path d="M2707 3979 c-49 -29 -36 -120 19 -133 31 -8 77 19 82 48 7 32 -8 67
-26 64 -9 -2 -17 3 -17 12 0 18 -34 24 -58 9z"/>
<path d="M2331 3884 c-12 -15 -21 -34 -21 -44 0 -10 9 -29 21 -44 41 -52 119
-24 119 44 0 36 -13 52 -35 44 -14 -6 -17 -4 -12 9 11 30 -48 22 -72 -9z"/>
<path d="M3696 3817 c4 -6 26 -37 49 -67 23 -30 42 -57 41 -60 0 -3 8 -33 18
-68 17 -53 18 -74 10 -133 -8 -59 -8 -68 3 -53 7 10 13 21 13 26 0 16 27 6 79
-30 60 -42 110 -123 111 -178 0 -40 -12 -43 -155 -34 -93 6 -111 10 -125 28
-13 15 -40 25 -103 36 -47 8 -95 20 -107 26 -14 8 -20 8 -20 0 0 -13 61 -40
109 -47 20 -3 52 -14 71 -23 19 -10 89 -32 155 -50 195 -52 224 -62 236 -77
17 -19 5 -27 -21 -13 -26 14 -34 8 -25 -20 10 -32 52 -54 104 -54 57 0 106 27
122 68 7 17 21 44 32 59 16 24 17 30 5 40 -27 23 -51 70 -52 108 -2 38 -22 70
-88 140 -39 42 -92 55 -163 39 -62 -14 -87 0 -83 43 2 23 9 33 23 35 29 5 40
19 29 35 -5 7 -2 5 8 -5 16 -18 88 -26 88 -10 0 10 -47 54 -80 75 -14 9 -54
19 -90 23 -36 3 -71 11 -77 17 -21 16 -15 43 12 57 29 16 24 21 -46 46 -42 14
-42 14 -24 -6 10 -11 13 -20 7 -20 -6 0 -19 11 -27 24 -17 25 -53 47 -39 23z
m214 -208 c13 -30 6 -54 -9 -30 -5 7 -12 12 -16 12 -4 -1 -9 15 -10 34 -2 41
15 33 35 -16z m214 -180 c36 -42 21 -61 -16 -20 -15 17 -28 36 -28 41 0 19 18
10 44 -21z m-14 -51 c0 -4 -10 -3 -22 3 -13 7 -29 15 -37 19 -8 3 -17 12 -19
20 -3 8 11 4 37 -10 22 -13 41 -27 41 -32z"/>
<path d="M2950 3560 c-8 -15 -8 -20 2 -20 22 0 41 17 34 29 -11 17 -24 13 -36
-9z"/>
<path d="M2543 3540 c10 -46 56 -98 89 -99 15 -1 30 4 33 9 4 6 31 29 62 51
30 22 52 43 49 46 -3 3 -12 0 -20 -7 -9 -6 -21 -10 -28 -7 -8 4 -7 6 5 6 9 1
17 6 17 11 0 6 -31 10 -74 10 -40 0 -88 3 -106 7 -33 6 -33 6 -27 -27z"/>
<path d="M2889 3390 c-8 -5 -86 -19 -172 -31 -161 -22 -254 -20 -280 5 -15 15
-47 28 -47 18 2 -35 160 -183 214 -199 36 -11 80 -8 173 12 15 3 23 0 25 -11
2 -14 8 -13 34 9 35 29 68 99 79 165 7 43 2 49 -26 32z m-55 -50 c-31 -31
-284 -67 -284 -40 0 6 6 13 13 15 20 8 272 42 276 38 3 -2 0 -8 -5 -13z"/>
<path d="M2430 3296 c0 -2 8 -10 18 -17 15 -13 16 -12 3 4 -13 16 -21 21 -21
13z"/>
<path d="M2493 3223 c67 -76 85 -91 141 -112 31 -11 75 -21 97 -21 40 0 119
33 119 49 0 5 -14 2 -31 -6 -41 -20 -139 -13 -202 15 -25 11 -68 41 -95 66
-59 55 -72 60 -29 9z"/>
<path d="M3990 3047 c0 -21 21 -67 31 -67 9 0 -9 60 -22 75 -6 5 -9 2 -9 -8z"/>
<path d="M4264 3045 c9 -24 -95 -67 -109 -45 -4 6 -12 6 -23 -1 -20 -12 -72 3
-72 21 0 6 -4 8 -10 5 -6 -4 -3 -20 9 -43 25 -50 36 -103 22 -111 -12 -8 27
-71 45 -71 6 0 18 -7 25 -17 13 -15 11 -15 -18 1 -33 16 -33 16 -33 -8 0 -14
-5 -28 -10 -31 -6 -4 -8 -11 -5 -16 10 -15 -5 -49 -22 -49 -11 0 -14 -7 -11
-24 4 -19 -2 -27 -30 -40 l-34 -17 5 28 c5 26 4 26 -9 8 -8 -10 -14 -22 -14
-26 0 -4 -35 -10 -77 -15 -63 -6 -71 -9 -43 -13 l34 -6 -27 -12 c-21 -10 -27
-10 -28 0 0 6 -5 3 -10 -9 -6 -12 -30 -27 -60 -36 l-49 -16 0 34 c0 28 4 34
23 35 l22 0 -22 9 c-12 5 -34 5 -50 0 -25 -7 -26 -8 -5 -9 21 -1 23 -4 17 -33
-13 -58 -23 -68 -64 -68 -38 0 -39 1 -49 48 l-10 47 -1 -43 c-1 -49 -13 -58
-66 -48 -34 7 -35 8 -36 54 l-1 47 -12 -40 c-11 -37 -14 -40 -51 -42 -22 -1
-57 -4 -77 -7 -25 -3 -38 0 -38 7 -1 7 -3 29 -6 49 l-5 36 58 7 c89 10 95 14
16 12 l-73 -3 0 29 c0 16 -4 26 -10 22 -5 -3 -10 -19 -10 -36 0 -16 -5 -29
-12 -29 -10 0 -10 -2 -1 -8 17 -11 26 -92 12 -108 -7 -9 -7 -19 1 -34 7 -13 9
-37 5 -57 -5 -27 -3 -34 7 -30 7 2 12 14 10 27 -6 52 31 59 189 39 46 -6 91
-13 99 -16 8 -3 38 -7 65 -9 73 -5 79 -6 86 -17 8 -12 69 1 69 15 0 6 14 8 38
4 20 -4 46 -6 57 -6 11 1 65 2 120 3 l100 2 11 33 c12 39 22 50 98 119 32 29
55 56 52 61 -3 5 8 25 24 43 33 38 37 49 16 49 -23 0 -24 43 -2 68 15 17 16
22 5 22 -23 0 -17 38 8 51 29 15 28 18 -2 107 -14 41 -25 82 -25 92 0 10 -7
21 -16 24 -12 4 -15 2 -10 -9z m14 -102 c-6 -7 -18 -13 -27 -13 -11 0 -13 3
-4 8 7 4 11 19 8 32 -3 13 1 27 8 32 16 10 30 -41 15 -59z m-171 10 c4 -10 11
-21 17 -25 7 -5 5 -8 -5 -8 -9 0 -21 11 -27 25 -7 16 -8 25 -1 25 5 0 13 -8
16 -17z m206 -95 c-18 -20 -50 -29 -50 -14 1 41 -4 57 -15 50 -7 -3 1 5 17 19
l30 25 17 -31 c14 -28 15 -34 1 -49z m-165 -141 c-3 -14 -6 -14 -22 -2 -12 9
-16 20 -12 31 6 16 8 16 22 2 9 -9 14 -23 12 -31z m-27 -57 c-20 -21 -24 -18
-16 13 5 20 10 23 19 15 10 -9 9 -15 -3 -28z m-726 -200 l20 -9 -20 -1 c-11
-1 -33 -4 -49 -6 -16 -3 -36 -2 -45 1 -13 5 -14 7 -1 15 18 12 68 12 95 0z"/>
<path d="M3130 2820 c0 -5 5 -10 11 -10 5 0 7 5 4 10 -3 6 -8 10 -11 10 -2 0
-4 -4 -4 -10z"/>
<path d="M4000 2669 c0 -5 5 -7 10 -4 6 3 10 8 10 11 0 2 -4 4 -10 4 -5 0 -10
-5 -10 -11z"/>
<path d="M3570 2603 c0 -7 -8 -13 -17 -14 -13 0 -11 -3 6 -10 29 -12 36 -6 22
18 -6 10 -11 12 -11 6z"/>
<path d="M2895 2550 c3 -5 8 -10 11 -10 2 0 4 5 4 10 0 6 -5 10 -11 10 -5 0
-7 -4 -4 -10z"/>
<path d="M3165 2454 c23 -17 32 -18 38 -1 3 8 -6 12 -26 13 -28 1 -29 0 -12
-12z"/>
<path d="M3170 2410 c0 -5 10 -10 23 -10 18 0 19 2 7 10 -19 13 -30 13 -30 0z"/>
<path d="M3187 2371 c8 -31 40 -64 53 -56 10 6 7 10 -9 17 -17 6 -21 11 -13
21 8 9 4 15 -12 23 -20 9 -23 8 -19 -5z"/>
<path d="M1080 2362 c0 -7 4 -21 10 -31 7 -15 0 -30 -35 -75 -42 -55 -45 -56
-57 -37 -16 26 -29 28 -22 4 3 -10 29 -39 56 -64 57 -52 57 -61 4 -123 l-33
-40 -42 33 c-22 18 -41 36 -41 40 0 5 19 29 41 55 23 26 39 49 37 51 -3 3 -24
-18 -48 -46 -38 -45 -45 -50 -55 -35 -19 25 -24 19 -12 -14 6 -16 15 -30 20
-30 11 0 87 -63 87 -72 0 -22 -42 -3 -74 32 -20 22 -42 40 -50 40 -32 0 -53
-83 -63 -247 -5 -89 -3 -106 13 -130 10 -16 25 -41 34 -58 8 -16 21 -31 28
-31 6 -1 17 -2 22 -3 6 0 10 -6 10 -12 0 -6 -7 -8 -16 -5 -15 6 -15 5 0 -16 9
-13 22 -34 28 -47 13 -25 120 -79 174 -88 54 -9 53 16 -2 64 -50 45 -68 44
-38 -2 9 -14 14 -28 12 -31 -7 -7 -51 30 -55 47 -12 52 -14 82 -6 88 6 3 18
21 27 39 9 18 29 38 43 45 24 11 28 9 52 -23 14 -19 38 -48 53 -65 l26 -30 -5
27 c-3 15 -24 47 -47 72 -32 36 -49 46 -77 47 -23 2 -43 -3 -53 -14 -9 -9 -25
-21 -34 -27 -16 -9 -16 -11 1 -24 26 -20 7 -57 -28 -54 -13 1 -22 6 -19 10 3
4 -5 12 -16 18 -23 13 -27 30 -5 30 21 0 19 16 -3 32 -41 29 -67 105 -64 191
0 9 -4 17 -11 17 -6 0 -2 6 8 14 11 8 23 12 27 10 14 -9 8 8 -12 33 -17 22
-28 73 -16 73 15 0 58 -22 53 -26 -6 -7 45 -60 83 -86 14 -10 40 -18 59 -18
l33 0 -23 20 c-13 10 -19 19 -14 20 6 0 16 -5 22 -11 11 -11 42 11 56 42 4 8
14 24 23 37 15 20 15 22 1 16 -9 -3 -19 -14 -22 -25 -4 -10 -13 -19 -20 -19
-18 0 -85 32 -85 40 0 3 14 19 30 35 17 16 30 34 30 42 0 7 15 26 33 43 17 17
46 45 62 61 l31 30 24 -27 c19 -20 21 -26 8 -21 -10 4 -18 2 -18 -3 0 -6 8
-10 18 -11 10 0 12 -3 4 -6 -6 -2 -10 -9 -6 -14 3 -5 0 -9 -5 -9 -6 0 -11 -7
-11 -16 0 -12 13 -6 44 22 47 41 57 64 29 61 -24 -1 -73 32 -73 49 0 7 -6 11
-13 8 -8 -3 -30 13 -50 36 -37 40 -46 60 -27 60 6 0 10 5 10 11 0 8 -5 7 -15
-1 -17 -14 -17 -14 -33 15 -6 11 -12 14 -12 7z m66 -107 l37 -46 -38 -39 c-22
-22 -44 -40 -50 -40 -6 0 -26 13 -45 29 l-34 28 42 57 c24 31 44 56 47 56 2 0
20 -20 41 -45z m-100 -306 c30 -18 45 -39 29 -39 -18 0 -85 42 -80 50 9 14 13
13 51 -11z"/>
<path d="M1195 2340 c-10 -11 -16 -22 -13 -25 3 -3 13 6 22 20 20 30 16 32 -9
5z"/>
<path d="M3150 2310 c0 -21 15 -27 25 -10 3 6 1 10 -5 10 -6 0 -8 5 -5 10 3 6
1 10 -4 10 -6 0 -11 -9 -11 -20z"/>
<path d="M3115 2310 c3 -5 11 -10 16 -10 6 0 7 5 4 10 -3 6 -11 10 -16 10 -6
0 -7 -4 -4 -10z"/>
<path d="M3250 2300 c-13 -8 -12 -10 3 -10 9 0 17 5 17 10 0 12 -1 12 -20 0z"/>
<path d="M2908 2293 c7 -3 16 -2 19 1 4 3 -2 6 -13 5 -11 0 -14 -3 -6 -6z"/>
<path d="M2975 2279 c-4 -6 -5 -12 -2 -15 2 -3 7 2 10 11 7 17 1 20 -8 4z"/>
<path d="M1320 2210 c-9 -6 -10 -10 -3 -10 6 0 15 5 18 10 8 12 4 12 -15 0z"/>
<path d="M2530 2210 c0 -5 10 -15 23 -21 22 -12 22 -12 3 10 -21 23 -26 26
-26 11z"/>
<path d="M1175 2141 c-3 -6 3 -15 14 -20 24 -14 31 -14 31 -1 0 14 -38 32 -45
21z"/>
<path d="M2554 2081 c11 -11 23 -21 28 -21 14 0 -1 19 -25 31 -22 12 -22 12
-3 -10z"/>
<path d="M1090 2045 c0 -5 5 -17 10 -25 5 -8 10 -10 10 -5 0 6 -5 17 -10 25
-5 8 -10 11 -10 5z"/>
<path d="M3226 2001 c-3 -22 -12 -44 -19 -48 -7 -4 -24 -25 -36 -46 -19 -32
-28 -37 -47 -33 -48 12 -57 -70 -11 -106 l22 -18 -27 -22 c-25 -22 -52 -78
-30 -64 6 3 12 1 14 -5 6 -19 93 -19 125 1 29 17 30 22 41 121 21 194 23 247
13 254 -6 3 -11 1 -11 -6 0 -9 -3 -9 -14 0 -11 9 -15 4 -20 -28z"/>
<path d="M2572 1974 c10 -10 20 -15 24 -12 3 4 -5 12 -18 18 -22 12 -22 12 -6
-6z"/>
<path d="M2422 1881 c-7 -4 -25 -6 -38 -3 -24 4 -25 3 -19 -32 6 -32 5 -36
-14 -36 -26 0 -29 -41 -5 -61 40 -33 193 8 194 50 1 14 3 13 14 -1 7 -10 17
-18 21 -18 16 0 -40 53 -70 66 -16 8 -39 21 -50 29 -12 8 -26 11 -33 6z"/>
<path d="M2195 1830 c3 -5 8 -10 11 -10 2 0 4 5 4 10 0 6 -5 10 -11 10 -5 0
-7 -4 -4 -10z"/>
<path d="M2950 1760 c0 -5 12 -10 28 -9 24 0 25 1 7 9 -27 12 -35 12 -35 0z"/>
<path d="M2970 1720 c0 -12 26 -19 39 -10 9 5 4 9 -13 12 -14 3 -26 2 -26 -2z"/>
<path d="M3095 1620 c-3 -5 -1 -10 4 -10 6 0 11 5 11 10 0 6 -2 10 -4 10 -3 0
-8 -4 -11 -10z"/>
<path d="M408 393 c7 -3 16 -2 19 1 4 3 -2 6 -13 5 -11 0 -14 -3 -6 -6z"/>
<path d="M2872 193 c-13 -3 -21 -10 -19 -16 6 -20 32 -19 58 2 22 19 22 20 4
19 -11 0 -30 -3 -43 -5z"/>
</g>
</svg>
