<?xml version="1.0" standalone="no"?>
<!DOCTYPE svg PUBLIC "-//W3C//DTD SVG 20010904//EN"
 "http://www.w3.org/TR/2001/REC-SVG-20010904/DTD/svg10.dtd">
<svg version="1.0" xmlns="http://www.w3.org/2000/svg"
 width="736.000000pt" height="800.000000pt" viewBox="0 0 736.000000 800.000000"
 preserveAspectRatio="xMidYMid meet">

<g transform="translate(0.000000,800.000000) scale(0.100000,-0.100000)"
fill="#000000" stroke="none">
<path d="M2060 7970 c11 -11 20 -30 21 -42 0 -13 3 -17 6 -10 7 19 30 14 53
-10 17 -18 20 -33 18 -83 l-3 -60 -40 -6 -40 -6 43 -1 c41 -2 62 -22 22 -22
-21 0 -28 -20 -7 -21 6 0 2 -5 -10 -11 -21 -10 -22 -12 -5 -25 15 -12 14 -13
-13 -11 -17 1 -41 -6 -55 -16 -24 -17 -24 -18 -2 -11 20 6 32 -8 15 -18 -5 -2
-2 -2 5 -1 6 2 12 -1 12 -6 0 -5 15 -11 33 -13 l32 -4 -32 -1 c-18 -1 -33 -3
-33 -5 0 -1 4 -17 9 -35 9 -30 8 -32 -14 -32 -13 0 -27 -4 -30 -10 -3 -5 2
-10 11 -10 22 0 7 -16 -21 -23 -18 -4 -18 -5 3 -6 35 -2 26 -21 -10 -22 l-33
-1 30 -8 c17 -4 22 -8 13 -9 -12 -1 -18 -9 -18 -26 0 -14 -4 -25 -10 -25 -5 0
-10 -9 -10 -20 0 -11 -4 -20 -10 -20 -5 0 -7 -6 -4 -14 3 -7 -2 -16 -11 -20
-9 -3 -13 -10 -10 -16 3 -5 0 -10 -7 -10 -10 0 -9 -3 2 -10 12 -8 12 -10 -3
-16 -9 -3 -17 -14 -17 -24 0 -11 -6 -22 -12 -26 -9 -6 -5 -10 12 -15 24 -7 24
-7 3 -8 -37 -2 -26 -21 12 -21 26 0 33 -3 29 -15 -4 -9 4 -19 23 -27 15 -7 30
-15 33 -18 3 -3 26 -16 53 -30 26 -13 47 -29 47 -34 0 -5 3 -7 6 -3 3 3 16 -3
28 -14 11 -11 36 -27 54 -36 22 -10 29 -19 22 -23 -9 -6 -9 -9 1 -12 7 -2 13
-14 14 -25 1 -20 -3 -22 -42 -20 -30 1 -42 6 -38 15 2 6 -3 12 -11 12 -9 0
-14 6 -11 13 4 10 -4 14 -24 14 -36 0 -37 -30 -1 -35 12 -2 22 -8 22 -13 0 -6
14 -15 30 -21 24 -8 28 -13 20 -23 -8 -10 -6 -17 10 -28 13 -9 17 -18 11 -21
-5 -4 -8 -13 -4 -21 6 -18 -15 -47 -29 -39 -5 3 -16 -3 -24 -15 -17 -24 -39
-28 -30 -6 3 9 0 15 -10 15 -9 0 -14 -7 -12 -17 3 -14 12 -17 41 -15 38 3 46
-8 27 -38 -8 -12 -10 -10 -10 8 0 14 -4 21 -11 16 -6 -3 -8 -18 -5 -33 3 -14
3 -20 0 -13 -8 17 -24 5 -17 -13 3 -8 0 -15 -6 -15 -7 0 -11 -14 -9 -33 1 -19
-4 -40 -10 -48 -42 -49 -52 -64 -52 -81 0 -10 -4 -18 -10 -18 -5 0 -10 25 -10
55 0 30 -4 55 -10 55 -5 0 -10 -16 -10 -36 0 -19 -4 -33 -8 -30 -5 3 -9 -10
-10 -29 -1 -26 2 -33 13 -28 12 4 15 -5 15 -41 0 -25 -4 -46 -9 -46 -16 0 -29
-91 -35 -247 -1 -39 -7 -78 -13 -85 -9 -12 -17 -221 -18 -473 0 -55 -3 -102
-6 -105 -4 -3 -9 -33 -12 -68 -4 -34 -13 -77 -21 -95 -16 -34 -24 -66 -25
-107 -1 -18 -4 -21 -10 -12 -5 9 -11 -5 -15 -39 -4 -30 -13 -57 -19 -62 -9 -6
-9 -10 1 -14 9 -4 10 -8 2 -18 -6 -7 -13 -30 -16 -51 -2 -22 -9 -55 -14 -74
-12 -42 -13 -200 -2 -200 5 0 13 -26 19 -57 6 -32 17 -78 23 -103 7 -25 12
-53 12 -63 0 -9 3 -15 9 -12 5 4 9 -25 9 -69 0 -54 -4 -76 -12 -76 -9 0 -8 -4
2 -10 10 -6 11 -10 3 -10 -7 0 -13 -9 -13 -20 0 -11 5 -20 10 -20 6 0 8 -12 5
-27 -4 -23 -4 -25 4 -8 5 11 10 55 10 98 1 89 16 101 44 34 14 -34 17 -73 17
-200 0 -102 -4 -166 -12 -180 -11 -21 -17 -114 -18 -284 0 -40 -3 -72 -8 -70
-4 1 -7 -2 -7 -8 0 -5 3 -9 8 -8 4 2 7 -2 7 -7 0 -6 -4 -10 -10 -10 -5 0 -10
-5 -10 -11 0 -5 5 -7 10 -4 6 4 10 -7 10 -25 0 -18 -4 -29 -10 -25 -5 3 -10
-3 -10 -14 0 -12 -7 -21 -15 -21 -12 0 -14 -7 -9 -26 5 -18 3 -25 -4 -20 -13
8 -112 -15 -112 -26 0 -4 -18 -8 -41 -8 -23 0 -55 -6 -72 -14 -30 -14 -69 -20
-182 -30 -27 -2 -51 -9 -53 -15 -2 -6 -26 -11 -53 -11 -28 0 -60 -5 -72 -12
-12 -6 -36 -11 -54 -10 -18 1 -46 -3 -61 -9 -15 -6 -51 -11 -79 -10 -32 1 -53
-3 -53 -9 0 -6 -5 -8 -10 -5 -5 3 -10 1 -10 -5 0 -8 -13 -10 -36 -7 -20 3 -54
-1 -75 -8 -48 -17 -99 -4 -99 26 0 10 -4 19 -9 19 -10 0 -33 -91 -25 -99 8 -8
69 -4 104 7 30 9 72 15 190 27 14 1 33 6 44 10 11 5 26 3 37 -3 10 -7 19 -7
21 -2 3 9 76 22 121 21 9 0 17 4 17 8 0 4 27 7 60 7 33 1 60 -3 60 -7 0 -5 7
-6 15 -3 12 5 15 -3 15 -35 0 -34 3 -41 20 -41 11 0 20 -4 20 -10 0 -5 6 -10
14 -10 8 0 16 -4 18 -8 2 -4 18 -18 36 -31 31 -22 33 -26 28 -65 -3 -22 -3
-35 0 -28 8 18 27 15 20 -3 -4 -10 3 -20 19 -27 14 -6 25 -16 25 -22 1 -6 10
-22 21 -35 16 -19 22 -22 29 -12 5 10 10 5 15 -17 3 -17 13 -33 20 -36 8 -3
12 -11 9 -19 -2 -7 4 -22 16 -32 11 -10 20 -25 20 -32 0 -8 6 -13 12 -11 7 3
21 -6 31 -19 10 -13 25 -23 33 -23 8 0 14 -8 14 -18 0 -11 9 -27 21 -38 14
-13 18 -25 14 -42 -5 -21 -3 -23 16 -17 17 6 21 4 16 -8 -3 -8 -3 -18 1 -22 4
-4 7 -12 7 -18 1 -7 6 -11 13 -10 7 2 12 -6 12 -18 0 -12 4 -17 11 -14 6 4 13
-2 16 -13 2 -11 13 -22 24 -25 11 -3 22 -17 25 -35 4 -17 12 -33 20 -36 8 -3
14 -15 14 -26 0 -11 7 -20 15 -20 8 0 23 -10 35 -22 21 -23 27 -44 10 -33 -5
3 -10 -2 -10 -12 0 -11 -5 -24 -12 -31 -7 -7 -8 -12 -4 -12 5 0 3 -7 -4 -15
-7 -8 -10 -21 -6 -30 3 -8 -1 -27 -9 -42 -23 -44 -43 -95 -53 -133 -5 -19 -14
-34 -19 -33 -6 1 -14 -19 -18 -45 -8 -56 -31 -99 -57 -105 -10 -3 -22 -17 -28
-31 -10 -27 -24 -33 -35 -16 -8 13 -75 13 -75 1 0 -5 -13 -12 -30 -16 -16 -4
-30 -13 -30 -21 0 -8 -5 -14 -11 -14 -14 0 -92 -72 -143 -131 -8 -10 -17 -32
-21 -49 -5 -24 -10 -29 -16 -19 -7 11 -9 10 -9 -4 0 -10 -5 -27 -11 -38 -10
-20 -11 -20 -25 -2 -11 12 -17 14 -20 6 -3 -7 -12 -9 -20 -6 -8 3 -14 0 -14
-6 0 -6 8 -11 18 -11 10 0 19 -7 19 -15 0 -8 -7 -15 -14 -15 -8 0 -24 -9 -36
-20 -12 -11 -35 -24 -51 -28 -32 -8 -48 -32 -22 -32 9 0 16 -4 16 -10 0 -15
-26 -12 -39 4 -7 8 -21 12 -31 9 -14 -4 -20 0 -20 11 0 9 7 16 15 16 24 0 17
17 -10 24 -25 6 -34 30 -15 41 6 4 9 14 8 23 -2 11 5 18 22 20 21 4 22 2 11
-12 -16 -20 -10 -29 13 -20 20 8 21 44 1 44 -16 0 -20 12 -8 23 3 4 12 2 20
-5 17 -13 19 -11 26 30 5 24 3 32 -8 32 -8 0 -15 -9 -15 -20 0 -20 -24 -28
-35 -10 -3 5 -12 7 -20 3 -11 -4 -15 2 -15 22 0 20 -4 26 -15 22 -8 -4 -17 -2
-20 3 -4 6 -1 10 5 10 6 0 8 4 5 10 -3 5 0 10 8 10 7 0 19 -11 25 -25 13 -27
32 -25 64 7 13 13 26 16 43 12 15 -4 25 -2 25 4 0 6 -15 12 -32 14 -26 2 -32
7 -30 21 2 13 -2 18 -15 17 -40 -5 -146 0 -140 6 3 4 31 6 62 5 31 0 55 3 55
9 0 6 -18 10 -40 10 -40 0 -55 15 -22 23 14 4 14 6 -5 12 -16 5 -23 15 -23 34
0 16 3 21 8 14 5 -9 17 -10 37 -4 17 5 26 10 20 10 -5 1 -16 5 -23 10 -12 7
-12 12 0 30 10 16 10 23 1 29 -16 10 -28 62 -14 62 6 0 11 -7 11 -16 0 -10 6
-14 15 -10 8 3 18 -1 22 -8 10 -16 70 -29 78 -17 8 13 -5 42 -16 35 -5 -3 -19
-2 -32 2 -21 8 -21 8 6 13 l29 6 -28 25 c-16 14 -23 18 -16 9 15 -20 8 -27
-23 -21 -21 4 -23 7 -13 20 11 12 9 17 -10 30 -12 8 -22 19 -22 24 0 7 5 6 13
0 14 -12 57 -5 57 8 0 5 16 7 35 6 21 -2 41 3 52 14 10 9 28 19 41 22 20 5 22
2 22 -28 0 -29 3 -34 24 -34 13 0 31 -3 40 -6 11 -4 16 0 16 14 0 12 4 23 9
26 4 3 6 16 4 30 -6 30 16 46 24 17 8 -31 20 -26 34 14 7 19 19 35 26 35 17 0
16 11 -3 38 -13 19 -13 22 0 22 8 0 18 5 22 11 5 8 -1 10 -18 6 -30 -8 -42 1
-26 20 14 17 13 18 -46 29 -61 11 -69 29 -22 49 32 14 36 20 37 53 1 20 3 49
5 65 1 16 -2 27 -9 27 -8 0 -11 -19 -9 -65 3 -53 1 -65 -11 -65 -9 0 -18 6
-20 13 -4 9 -6 9 -6 0 -1 -7 -7 -13 -14 -13 -15 0 -37 62 -37 104 0 21 -5 26
-24 26 -14 0 -28 5 -31 10 -3 6 -1 10 4 10 6 0 11 5 11 11 0 6 -7 8 -16 5 -13
-5 -15 2 -13 42 3 36 0 47 -11 47 -8 0 -20 6 -26 14 -10 12 -13 11 -18 -7 -8
-24 -22 -29 -29 -9 -3 7 -6 5 -6 -5 -1 -10 -5 -18 -11 -18 -5 0 -6 7 -3 17 4
10 2 14 -5 9 -6 -3 -13 -2 -16 2 -3 5 -18 7 -32 4 -22 -4 -26 -2 -21 11 3 9 2
19 -3 22 -6 4 -10 -10 -10 -31 0 -35 -1 -36 -18 -21 -10 10 -28 17 -40 17 -15
0 -22 6 -22 20 0 13 7 20 20 20 11 0 20 5 20 10 0 6 19 10 43 11 34 1 38 2 17
8 -14 4 -42 6 -62 3 -30 -4 -38 -1 -38 12 0 9 6 16 13 16 9 0 8 3 -2 9 -19 12
21 25 49 16 11 -3 20 -2 20 4 0 5 10 12 23 14 12 2 -7 5 -43 7 l-65 3 85 12
85 12 -70 2 c-49 1 -66 4 -55 11 8 5 26 10 40 11 14 0 19 3 13 6 -20 7 -15 23
6 23 29 0 34 17 8 24 -17 5 -19 8 -9 15 11 6 9 10 -7 14 -16 4 -21 0 -21 -16
0 -12 -5 -29 -10 -37 -8 -13 -10 -12 -10 3 0 9 -5 17 -11 17 -6 0 -8 -9 -4
-20 5 -15 2 -20 -13 -20 -15 0 -18 6 -14 30 3 23 9 29 26 27 15 -1 20 3 18 16
-2 10 3 17 13 17 8 0 15 6 15 14 0 11 -5 12 -25 3 -14 -7 -25 -15 -25 -19 0
-5 -7 -8 -15 -8 -18 0 -20 16 -2 23 9 4 8 8 -3 16 -13 10 -13 12 0 21 18 11
20 11 -50 15 -75 5 -78 5 -55 15 16 7 13 9 -16 9 -20 1 -53 8 -74 16 -20 9
-45 13 -56 10 -10 -4 -50 -3 -89 1 -53 5 -70 10 -70 22 0 8 -3 12 -7 9 -3 -4
-12 -2 -20 4 -9 8 -17 8 -26 0 -8 -6 -17 -8 -20 -4 -4 3 -7 -1 -7 -10 0 -12
-8 -17 -26 -17 -19 0 -25 -4 -20 -15 3 -10 -1 -15 -12 -15 -11 0 -17 9 -18 24
-2 22 3 25 35 29 l36 4 -37 1 c-26 1 -38 7 -38 17 0 8 -4 15 -9 15 -14 0 -22
-31 -12 -44 14 -17 -11 -44 -39 -44 -35 0 -52 -5 -79 -24 -18 -13 -29 -14 -43
-7 -10 5 -24 7 -30 2 -7 -4 -50 -8 -96 -9 -46 -1 -89 -7 -95 -13 -8 -8 -6 -11
8 -11 10 0 15 -3 11 -7 -12 -12 -96 -9 -96 4 0 6 -3 18 -6 27 -5 13 2 16 45
16 28 0 51 5 51 10 0 6 12 10 26 10 14 0 23 -4 19 -10 -9 -15 7 -11 30 6 14
11 16 18 8 21 -18 7 -16 23 2 23 8 0 24 5 35 12 28 18 37 2 10 -20 -22 -17
-36 -52 -22 -52 3 0 16 10 29 21 20 20 23 20 29 5 3 -9 12 -16 20 -16 19 0 18
29 -1 36 -8 4 -15 12 -15 20 0 20 8 17 35 -13 13 -16 25 -23 25 -17 0 7 -7 15
-16 18 -13 5 -14 9 -5 20 7 8 8 17 3 20 -14 8 -63 9 -97 1 -16 -4 -48 -8 -70
-10 -99 -9 -155 -18 -155 -27 0 -5 -9 -6 -20 -3 -17 5 -20 2 -21 -22 -2 -23
-2 -24 -6 -5 -3 17 -11 22 -33 22 -16 0 -35 -3 -44 -6 -15 -6 -16 -151 -16
-1540 l0 -1534 3680 0 3680 0 0 799 0 800 -28 4 -27 4 28 2 c26 1 27 3 27 56
0 37 -4 55 -12 55 -9 0 -9 3 1 9 19 12 7 195 -15 229 -9 13 -18 45 -21 70 -3
26 -8 49 -11 52 -7 5 -8 13 -18 123 -3 38 -9 80 -14 93 -7 17 -6 24 3 24 9 0
9 2 0 8 -7 4 -15 28 -19 52 -4 25 -13 58 -21 74 -19 36 -36 22 -24 -19 25 -79
51 -218 51 -273 0 -17 4 -32 9 -34 5 -1 12 -21 14 -43 3 -22 10 -67 16 -100 6
-33 11 -78 11 -100 1 -22 7 -58 15 -79 9 -25 11 -46 5 -55 -14 -25 -31 29 -46
139 -6 52 -19 121 -28 152 -8 31 -18 72 -20 90 -14 98 -19 124 -26 133 -4 6
-10 30 -14 55 -20 150 -29 193 -38 170 -9 -25 -1 -90 12 -90 4 0 11 -54 15
-120 4 -66 11 -118 15 -115 13 8 22 -30 20 -88 -2 -28 0 -59 4 -67 3 -8 7 -33
9 -55 1 -22 6 -43 10 -46 4 -3 8 -27 9 -53 0 -30 6 -50 14 -53 8 -3 14 -18 14
-35 0 -23 -4 -29 -17 -26 -11 2 -17 11 -15 22 2 10 -4 23 -12 29 -10 8 -17 35
-21 75 -2 34 -9 70 -14 80 -4 9 -12 49 -16 87 -3 39 -13 88 -20 110 -7 23 -16
83 -19 135 -3 51 -9 96 -14 99 -5 3 -12 44 -16 91 -4 46 -14 93 -22 104 -8 11
-14 39 -14 63 0 23 -4 44 -9 47 -17 11 -22 -49 -8 -89 15 -43 33 -166 29 -201
-1 -12 4 -27 13 -34 10 -8 15 -31 15 -71 0 -37 4 -59 11 -59 6 0 9 -6 6 -14
-6 -16 17 -220 33 -290 11 -51 5 -110 -11 -100 -5 3 -9 21 -9 39 0 19 -6 54
-14 77 -8 24 -18 88 -22 143 -3 55 -10 105 -15 111 -4 5 -11 47 -15 92 -4 45
-10 82 -14 82 -4 0 -10 32 -13 72 -3 39 -11 76 -17 82 -5 5 -10 38 -10 72 0
35 -5 75 -11 91 -6 15 -12 51 -13 78 -2 28 -6 61 -10 73 -5 13 -3 22 3 22 6 0
11 -9 11 -21 0 -11 4 -17 10 -14 18 11 10 45 -12 56 l-23 10 23 -5 c14 -3 22
1 22 9 0 8 -8 11 -20 8 -16 -4 -20 0 -20 21 0 14 -4 26 -10 26 -5 0 -10 23
-10 51 0 27 -5 69 -11 92 -7 29 -7 56 0 87 10 46 6 65 -9 40 -12 -20 -24 32
-15 68 7 32 7 33 -3 138 -5 47 -15 93 -25 108 -11 16 -17 46 -17 80 0 30 -4
57 -9 60 -5 3 -11 43 -15 88 -11 157 -15 191 -24 197 -9 6 -25 149 -23 200 1
13 -4 30 -10 38 -7 7 -15 53 -20 101 -14 151 -28 237 -39 240 -5 2 -10 32 -10
67 0 34 -7 79 -15 98 -12 29 -12 42 -3 61 9 20 8 29 -3 42 -14 17 -17 38 -42
302 -8 79 -19 147 -24 150 -11 7 -23 108 -23 188 0 23 -7 55 -15 70 -8 16 -15
55 -15 86 0 32 -4 77 -10 100 -5 24 -13 65 -16 92 -3 29 -9 44 -13 37 -5 -7
-6 22 -3 63 3 53 1 76 -7 76 -7 0 -11 23 -11 65 0 37 -4 65 -10 65 -6 0 -8 12
-4 28 4 21 3 24 -5 12 -14 -20 -14 2 0 33 9 19 7 31 -5 55 -9 17 -16 55 -16
86 0 35 -5 60 -15 70 -10 10 -15 35 -15 79 0 35 -3 67 -7 71 -4 4 -6 36 -4 72
2 42 -1 64 -8 64 -7 0 -11 24 -11 64 0 44 -5 67 -15 76 -10 9 -15 31 -15 73 0
42 -5 66 -16 78 -12 13 -14 26 -9 46 5 15 7 32 6 37 -1 4 -6 51 -11 104 -5 53
-14 98 -19 100 -6 2 -11 31 -11 66 0 35 -3 66 -7 70 -4 3 -6 29 -4 56 2 36 -2
55 -14 66 -13 13 -15 28 -10 69 6 46 4 55 -15 73 -21 19 -22 24 -11 67 10 38
9 50 -4 68 -12 16 -14 36 -9 84 6 54 4 63 -10 63 -11 0 -16 9 -16 30 0 17 -3
30 -6 30 -16 0 -44 -23 -44 -35 0 -10 -10 -15 -30 -15 -19 0 -33 -6 -37 -16
-3 -8 -12 -13 -19 -10 -8 3 -26 -6 -40 -19 -15 -14 -29 -23 -32 -20 -3 2 -18
-7 -34 -20 -16 -14 -35 -25 -43 -25 -7 0 -15 -7 -19 -15 -3 -8 -9 -14 -13 -13
-16 4 -93 -26 -112 -43 -10 -10 -34 -25 -52 -33 -40 -19 -72 -38 -80 -49 -3
-5 -10 -9 -15 -9 -28 -3 -44 -12 -50 -30 -3 -11 -11 -17 -18 -15 -7 3 -25 -5
-40 -18 -15 -13 -41 -27 -56 -30 -16 -3 -34 -13 -41 -21 -6 -8 -18 -14 -25
-14 -8 0 -14 -5 -14 -11 0 -6 -7 -8 -16 -5 -8 3 -12 2 -9 -4 3 -6 -1 -10 -9
-10 -8 0 -19 -6 -23 -12 -12 -19 -52 -40 -63 -33 -6 4 -10 2 -10 -4 0 -6 -11
-13 -25 -17 -14 -3 -25 -10 -25 -14 0 -6 -27 -19 -52 -24 -4 0 -13 -7 -20 -13
-6 -7 -19 -13 -27 -13 -9 0 -29 -14 -46 -31 -16 -17 -42 -33 -57 -36 -16 -3
-28 -8 -28 -12 1 -14 53 -43 88 -48 20 -3 40 -10 43 -16 12 -17 30 4 23 26 -6
21 -5 21 8 3 14 -18 16 -17 69 5 30 13 56 25 59 28 3 4 26 16 53 29 26 13 47
28 47 33 0 5 6 9 13 9 15 0 101 42 105 52 2 4 19 10 38 14 19 3 34 12 34 20 0
7 16 16 35 20 19 3 35 10 35 14 0 4 12 13 28 19 15 6 34 15 42 20 28 16 107
51 117 51 6 0 16 7 23 15 7 8 21 15 31 15 11 0 19 3 19 8 0 4 18 16 40 26 32
15 42 17 55 6 10 -8 15 -9 15 -1 0 6 9 2 19 -8 15 -15 22 -44 31 -116 5 -53
14 -104 19 -113 5 -10 12 -66 15 -127 4 -60 12 -114 17 -119 5 -6 9 -33 9 -61
0 -28 4 -55 9 -61 5 -5 14 -69 20 -143 6 -74 15 -139 20 -145 5 -6 11 -55 13
-110 3 -54 9 -101 14 -105 5 -3 10 -19 10 -36 3 -79 18 -201 24 -205 4 -3 12
-61 19 -130 6 -69 15 -147 20 -175 6 -27 10 -72 10 -98 1 -27 4 -46 9 -44 4 3
7 -14 8 -36 1 -23 4 -58 7 -77 3 -19 8 -65 12 -102 3 -37 12 -89 19 -116 7
-27 14 -90 15 -141 1 -51 7 -104 13 -119 5 -15 14 -62 19 -105 4 -43 12 -84
17 -90 5 -7 8 -36 8 -64 -1 -29 2 -53 7 -53 4 0 7 -16 7 -36 0 -23 -4 -33 -11
-28 -8 5 -9 2 -2 -11 6 -10 8 -27 5 -38 -3 -14 -1 -18 6 -13 8 5 12 -4 13 -26
1 -68 11 -133 21 -139 6 -4 9 -30 7 -58 -2 -28 -1 -51 3 -51 4 0 7 -29 7 -64
-1 -77 11 -177 22 -191 4 -6 9 -48 11 -95 2 -61 6 -84 16 -83 6 2 12 -4 12
-13 0 -8 -4 -12 -10 -9 -6 4 -10 -10 -10 -35 0 -25 4 -39 10 -35 6 3 10 -1 10
-9 0 -8 -4 -18 -10 -21 -15 -9 -12 -43 4 -52 10 -6 15 -37 18 -109 3 -55 7
-105 10 -110 9 -14 20 -115 20 -175 0 -30 4 -70 8 -89 9 -39 18 -109 25 -215
3 -38 10 -71 15 -73 13 -5 13 -52 0 -52 -7 0 -7 -6 0 -19 5 -11 10 -33 10 -50
0 -16 5 -42 11 -58 5 -15 6 -29 1 -31 -9 -3 -1 -81 16 -167 6 -27 13 -84 16
-125 3 -41 8 -95 11 -120 2 -25 10 -86 16 -137 14 -119 7 -132 -46 -95 -22 15
-41 30 -43 35 -2 4 -7 7 -12 7 -5 0 -26 17 -47 38 -72 69 -184 167 -192 167
-12 0 -38 30 -44 51 -4 16 -5 16 -6 -3 -1 -24 -34 -33 -46 -13 -3 5 -13 6 -22
3 -9 -4 -21 1 -29 12 -8 10 -14 14 -14 7 0 -8 -13 -7 -46 3 -25 7 -52 11 -60
8 -8 -3 -14 -1 -14 4 0 5 -43 15 -95 23 -53 7 -98 17 -101 21 -3 5 -18 9 -34
9 -16 0 -48 7 -70 16 -41 16 -43 20 -55 94 -3 19 -7 44 -9 55 -5 31 -20 253
-21 316 0 31 -5 62 -11 70 -7 8 -14 88 -19 199 -4 108 -11 188 -17 191 -6 4
-13 67 -16 145 -3 81 -9 142 -15 146 -7 4 -15 93 -20 225 -6 128 -14 221 -20
225 -5 3 -11 44 -12 90 -2 136 -5 159 -13 154 -9 -5 -22 201 -22 334 0 39 -6
79 -15 96 -9 19 -15 65 -16 127 -1 54 -6 100 -11 103 -4 3 -8 47 -8 99 0 57
-4 96 -11 101 -6 3 -9 17 -6 30 2 14 0 27 -5 30 -5 3 -9 38 -9 78 0 84 -14
299 -28 411 -5 44 -13 130 -17 190 -3 61 -10 115 -15 121 -5 6 -9 53 -10 105
-1 52 -7 108 -14 125 -7 18 -15 109 -20 230 -5 145 -11 207 -22 228 -10 19
-14 46 -11 77 3 26 2 52 -1 57 -3 5 -42 12 -85 16 -71 6 -78 6 -66 -8 9 -11 9
-16 1 -16 -8 0 -10 -58 -6 -221 6 -235 6 -241 17 -249 5 -4 21 -226 21 -305 0
-16 5 -34 11 -38 8 -6 7 -10 -1 -13 -8 -4 -9 -13 -3 -29 5 -14 12 -68 16 -122
3 -54 8 -102 11 -106 3 -5 7 -63 9 -130 3 -67 9 -165 15 -218 5 -53 9 -100 8
-105 -1 -5 -1 -11 0 -14 4 -11 9 -82 16 -220 4 -80 11 -152 15 -160 4 -8 7
-59 7 -113 -1 -53 1 -98 5 -100 4 -1 10 -45 13 -97 11 -172 13 -195 18 -210 3
-8 8 -71 12 -140 7 -145 12 -212 20 -295 3 -33 8 -121 11 -195 4 -74 9 -139
13 -145 4 -5 7 -57 6 -115 -1 -58 2 -94 6 -80 4 14 7 -44 8 -128 1 -93 5 -162
12 -174 11 -21 26 -239 30 -428 1 -52 5 -97 9 -100 6 -4 18 -135 20 -220 0
-13 1 -13 10 0 7 11 10 5 10 -25 1 -110 14 -128 103 -140 29 -4 55 -14 67 -27
12 -13 26 -19 39 -15 12 3 24 1 27 -4 3 -6 11 -8 17 -6 11 4 88 -20 142 -43
11 -5 30 -12 43 -15 12 -4 22 -11 22 -17 0 -7 5 -6 14 1 18 15 86 11 86 -5 0
-14 84 -39 100 -29 7 4 15 4 19 -1 10 -14 72 -36 116 -41 22 -3 44 -9 50 -14
5 -5 17 -9 26 -9 9 0 30 -7 45 -15 16 -8 39 -15 51 -15 12 0 25 -4 28 -10 3
-5 15 -10 25 -10 11 0 35 -9 55 -20 20 -11 44 -20 54 -20 10 0 26 -9 36 -20
10 -11 22 -17 26 -14 5 3 9 -7 9 -22 0 -22 2 -25 15 -14 12 10 15 10 15 -4 0
-9 7 -16 15 -16 8 0 15 -7 15 -15 0 -8 6 -15 14 -15 8 0 40 -25 73 -55 89 -84
94 -88 126 -94 20 -3 106 -100 113 -126 7 -27 6 -29 -9 -16 -11 9 -17 10 -17
2 0 -6 -4 -11 -10 -11 -5 0 -7 7 -4 15 4 10 0 15 -15 15 -12 0 -21 -6 -22 -12
0 -7 -4 -3 -10 10 -7 18 -14 22 -29 17 -11 -4 -34 1 -52 9 -17 9 -37 16 -44
16 -7 0 -15 6 -17 13 -4 9 -8 8 -16 -3 -9 -12 -4 -18 22 -30 38 -17 67 -43 67
-59 0 -7 10 -9 24 -5 18 4 28 1 36 -13 9 -14 21 -17 50 -15 29 3 43 -1 59 -17
22 -22 27 -41 11 -41 -5 0 -10 4 -10 9 0 5 -20 6 -45 3 -31 -3 -45 -1 -45 7 0
7 -3 10 -8 7 -4 -2 -23 -1 -42 4 -19 4 -27 8 -17 9 9 1 17 5 17 10 0 10 -70
23 -120 23 -30 -1 -32 0 -14 8 12 5 25 14 30 21 5 8 3 10 -6 4 -10 -6 -12 -4
-7 8 8 21 -5 24 -100 23 -46 -1 -83 3 -83 8 0 4 7 6 15 2 8 -3 15 -1 15 4 0 6
17 10 38 10 l37 1 -35 17 c-19 10 -55 19 -80 19 l-45 2 35 -10 c26 -8 31 -13
20 -19 -28 -15 -55 -15 -55 0 -1 8 -6 14 -13 12 -7 -1 -12 2 -12 8 0 5 5 10
10 10 6 0 10 9 10 20 0 11 -7 20 -15 20 -8 0 -15 -4 -15 -10 0 -5 -4 -10 -10
-10 -5 0 -7 8 -3 18 5 14 3 13 -10 -3 -9 -11 -17 -15 -17 -7 0 23 -20 12 -20
-12 0 -19 7 -26 30 -31 21 -5 30 -13 30 -26 0 -11 7 -19 16 -19 8 0 22 -7 30
-15 9 -8 26 -15 39 -15 33 0 55 -10 55 -25 0 -21 -19 -28 -35 -15 -8 7 -25 10
-38 6 -17 -4 -28 1 -41 19 -10 14 -27 25 -37 25 -10 0 -21 4 -24 10 -3 5 -28
8 -55 6 -36 -3 -50 0 -50 9 0 7 6 16 13 18 6 3 -6 5 -28 6 -41 0 -99 -17 -62
-18 20 -1 24 -21 3 -21 -7 0 -27 7 -42 15 -27 14 -27 15 -6 15 12 0 22 5 22
10 0 6 9 10 20 10 11 0 20 6 20 14 0 11 -21 13 -117 9 -65 -3 -120 -7 -122 -9
-2 -2 7 -8 20 -14 l24 -10 -25 1 c-40 2 -46 -1 -30 -11 12 -8 12 -10 -5 -11
-11 0 -29 -2 -40 -3 -11 -1 -39 -3 -62 -4 -47 -2 -60 -22 -15 -23 26 0 26 -1
5 -11 -17 -8 -25 -7 -37 5 -9 8 -29 18 -46 22 -55 12 -34 30 29 25 16 -1 21 2
17 12 -3 7 -9 21 -12 31 -5 13 -18 17 -60 17 -30 0 -54 5 -54 10 0 6 -11 10
-24 10 -20 0 -23 -4 -19 -21 4 -15 11 -19 25 -15 26 6 48 -3 48 -20 0 -18 -56
-19 -63 -1 -3 7 -6 5 -6 -5 -1 -21 -17 -24 -24 -5 -4 9 -8 9 -15 -2 -14 -20
-25 4 -25 53 1 32 0 36 -6 16 -7 -26 -44 -42 -40 -18 4 32 -3 47 -23 50 -15 2
-25 13 -32 36 -6 21 -15 32 -27 32 -23 0 -23 0 -4 -36 19 -36 19 -64 1 -64 -9
0 -17 15 -21 38 -8 51 -25 77 -25 39 0 -15 -6 -37 -12 -48 -10 -17 -10 -23 0
-26 7 -3 12 -23 12 -49 0 -28 -4 -43 -10 -39 -5 3 -10 24 -10 46 0 21 -3 39
-8 39 -22 0 -42 122 -22 135 6 3 10 1 10 -4 0 -6 5 -11 10 -11 6 0 10 9 10 21
0 14 -5 19 -14 16 -10 -4 -13 -1 -10 7 3 7 -2 19 -11 26 -13 11 -15 5 -15 -54
0 -37 -5 -77 -11 -89 l-12 -21 -9 24 c-5 14 -5 26 1 29 8 6 16 72 12 114 -1
23 -21 12 -21 -13 0 -10 -5 -20 -11 -22 -6 -2 -10 -35 -11 -81 0 -42 -4 -77
-9 -77 -5 0 -9 7 -9 15 0 10 -10 15 -31 15 -20 0 -29 4 -26 13 2 6 15 11 29 9
28 -3 27 -12 20 116 -1 17 -7 32 -12 32 -6 0 -9 -12 -8 -27 5 -70 -2 -103 -19
-102 -10 0 -13 2 -8 5 8 3 10 58 6 127 -1 5 -5 6 -10 3 -5 -3 -9 -29 -9 -56
-1 -53 -9 -92 -22 -100 -5 -3 -13 -68 -19 -145 -14 -174 -21 -227 -31 -240 -4
-5 -11 -50 -15 -100 -4 -49 -14 -108 -23 -130 -8 -22 -16 -53 -18 -70 -2 -27
-7 -67 -19 -165 -3 -29 0 -37 20 -46 23 -11 24 -10 31 35 3 25 14 64 24 86 18
39 31 149 46 370 11 182 25 277 40 282 15 5 23 -57 14 -106 -3 -20 -11 -35
-16 -34 -6 1 -10 -22 -10 -55 1 -78 -12 -254 -24 -332 -5 -36 -12 -94 -16
-130 -5 -59 -18 -103 -45 -153 -7 -12 -7 -23 0 -31 6 -7 13 -38 17 -70 7 -62
21 -69 38 -19 20 58 27 48 20 -27 -4 -41 -6 -83 -6 -93 1 -23 20 -47 38 -47
10 0 14 -16 14 -60 0 -52 2 -60 19 -60 14 0 18 6 15 23 -4 20 -4 21 5 2 5 -11
10 -35 10 -53 1 -36 26 -92 41 -92 6 0 10 -11 10 -25 0 -14 5 -25 10 -25 6 0
10 -7 10 -16 0 -9 9 -18 20 -21 26 -7 50 -52 50 -92 0 -16 5 -31 11 -33 12 -4
35 -61 51 -125 5 -24 14 -43 19 -43 5 0 9 -7 9 -15 0 -8 -4 -15 -10 -15 -13 0
-13 -37 0 -45 16 -10 11 -21 -10 -22 -12 -1 -20 4 -20 13 0 8 -5 12 -10 9 -6
-4 -8 -10 -5 -15 10 -16 -27 -20 -172 -19 -131 1 -150 3 -175 22 -15 11 -25
24 -22 29 8 12 -15 75 -32 93 -9 8 -17 25 -18 37 -2 13 -9 36 -15 52 -9 21 -9
32 0 42 16 19 -8 77 -28 70 -7 -3 -16 1 -19 9 -4 8 -15 15 -25 15 -10 0 -19 6
-19 13 0 7 -11 25 -25 40 -15 16 -20 27 -13 27 9 0 9 3 2 8 -5 4 -16 21 -23
39 -7 17 -19 34 -26 37 -7 2 -16 18 -20 35 -4 18 -15 33 -27 37 -13 4 -17 9
-9 13 6 4 13 33 15 64 l5 58 -50 -4 c-36 -3 -49 -1 -49 9 0 8 -5 13 -12 12 -6
-2 -15 12 -18 30 -10 44 -36 71 -66 67 -43 -4 -57 54 -30 120 15 34 14 35 -10
41 -13 3 -24 10 -24 15 0 5 -6 9 -12 9 -18 0 -96 76 -114 111 -8 16 -19 29
-24 29 -5 0 -12 10 -15 23 -4 12 -13 37 -22 56 -11 25 -13 50 -8 98 7 63 6 64
-14 51 -16 -10 -20 -22 -20 -65 1 -37 -5 -63 -20 -86 -24 -39 -28 -77 -7 -77
20 0 28 -52 10 -66 -8 -6 -14 -16 -14 -23 0 -6 -9 -11 -20 -11 -11 0 -20 5
-20 11 0 6 -7 17 -15 26 -9 8 -16 34 -17 57 -1 74 -2 670 -1 736 2 101 -1 158
-8 154 -4 -2 -9 3 -13 11 -3 8 -17 15 -31 15 -14 0 -34 5 -44 12 -15 9 -22 8
-36 -6 -25 -25 -29 -84 -11 -157 12 -43 18 -122 21 -243 3 -103 9 -184 15
-190 6 -6 10 -67 10 -147 0 -112 -3 -143 -17 -168 -10 -17 -25 -30 -33 -29
-18 4 -80 124 -80 156 0 12 -4 22 -8 22 -4 0 -8 10 -9 21 -2 24 -51 78 -70 79
-7 0 -13 4 -13 10 0 5 -17 12 -37 15 -21 4 -46 9 -56 12 -29 8 -18 -54 15 -91
25 -27 27 -35 21 -83 -7 -62 5 -82 49 -81 21 1 36 -7 54 -28 22 -27 24 -36 21
-143 -2 -122 -1 -119 -62 -138 -27 -7 -30 -13 -33 -53 -2 -25 -10 -59 -18 -77
-10 -22 -15 -71 -16 -156 -2 -102 1 -128 15 -150 27 -42 22 -86 -15 -119 -17
-15 -44 -33 -60 -40 -15 -7 -28 -18 -28 -24 0 -6 -13 -17 -29 -24 -39 -16 -63
-2 -97 55 -14 25 -30 45 -35 45 -5 0 -9 -17 -9 -37 -1 -25 -10 -52 -28 -78
-27 -39 -30 -40 -83 -39 -30 1 -70 4 -89 6 -43 5 -60 0 -60 -18 0 -8 -6 -15
-12 -16 -7 0 -17 -2 -23 -2 -5 -1 -16 -5 -23 -10 -14 -8 -42 9 -42 26 0 6 -9
23 -20 38 -18 25 -20 40 -16 125 2 53 5 98 7 99 17 14 74 24 89 16 12 -7 44
-3 104 11 69 17 91 27 111 51 14 16 25 35 25 43 0 18 -44 27 -95 19 -60 -8
-164 -6 -215 5 -8 2 -5 74 3 88 4 6 2 13 -5 15 -6 2 -12 24 -13 49 -1 25 -5
62 -9 82 -4 20 -3 37 1 37 12 0 10 53 -2 62 -6 4 -2 8 8 8 10 0 21 8 24 17 4
9 15 25 25 35 11 11 18 33 18 58 0 39 32 86 51 74 13 -7 69 26 99 59 13 15 30
27 37 27 7 0 13 6 13 13 0 8 9 24 20 37 11 13 20 27 20 32 0 5 5 6 10 3 6 -3
10 1 10 10 0 9 4 14 9 11 5 -3 13 0 19 7 7 8 28 11 56 9 53 -5 54 -8 35 -122
-6 -36 -12 -94 -14 -130 -3 -62 -18 -120 -30 -120 -20 0 -44 24 -50 50 -4 16
-10 30 -15 30 -5 0 -10 15 -12 33 -2 24 -8 32 -23 32 -11 0 -19 -6 -17 -13 1
-7 6 -58 11 -113 4 -55 13 -105 20 -112 6 -6 11 -26 11 -44 0 -18 5 -33 10
-33 6 0 10 -6 10 -14 0 -7 9 -25 20 -39 23 -29 26 -70 6 -86 -19 -16 -28 -69
-15 -93 6 -11 19 -28 30 -39 10 -10 19 -27 19 -36 1 -12 24 -29 69 -50 37 -18
70 -33 74 -33 4 0 7 10 7 23 0 16 -15 32 -51 56 -81 53 -89 62 -82 90 3 15 10
31 15 38 7 8 5 18 -6 28 -9 9 -16 24 -16 34 0 9 -5 22 -12 29 -8 8 -9 12 -1
12 6 0 14 18 18 40 4 22 11 40 17 40 6 0 8 13 4 33 -14 70 4 252 25 267 5 3
12 24 17 47 5 23 16 49 25 57 8 8 15 34 15 58 1 23 6 44 11 46 15 5 43 67 41
89 -1 10 -1 23 0 28 6 26 4 83 -3 78 -4 -2 -7 1 -7 6 0 6 5 11 10 11 6 0 10
20 10 44 0 24 7 57 15 72 8 16 15 48 15 72 0 41 20 86 49 108 9 7 14 36 15 98
1 52 5 90 12 94 7 4 15 36 18 72 4 36 12 78 18 93 8 20 8 35 0 50 -5 12 -13
30 -16 40 -3 10 -10 15 -16 12 -5 -3 -10 -1 -10 5 0 7 -10 3 -22 -8 -83 -73
-115 -99 -130 -105 -10 -4 -18 -14 -18 -23 0 -10 -5 -14 -14 -11 -8 3 -31 -5
-51 -19 -20 -13 -39 -24 -42 -24 -4 0 -15 -7 -25 -17 -17 -15 -18 -15 -18 0 0
10 -4 17 -10 17 -5 0 -10 -7 -10 -15 0 -18 -16 -20 -24 -2 -5 9 -7 9 -12 0 -8
-18 -64 -17 -64 0 0 9 -14 14 -40 15 -44 2 -120 38 -120 57 0 7 -7 15 -15 19
-8 3 -15 17 -15 31 0 19 -5 25 -22 25 -19 0 -20 2 -8 10 13 8 11 11 -7 16 -27
7 -30 19 -7 28 21 8 9 24 -29 35 l-32 10 30 -2 c27 -2 30 1 30 28 0 23 -6 31
-25 36 l-25 7 28 1 c24 1 41 21 17 21 -5 0 -10 13 -10 30 0 22 4 28 15 24 10
-4 15 0 15 15 0 15 5 21 18 19 11 -2 18 4 20 17 4 20 92 95 112 95 6 0 9 4 5
10 -3 5 20 21 52 35 43 20 53 29 42 36 -10 6 -6 9 16 10 17 0 24 3 18 6 -22 8
-14 43 12 53 30 12 32 26 4 33 -18 5 -20 10 -14 39 6 27 5 31 -6 20 -21 -19
-30 -14 -23 13 4 15 2 25 -5 25 -6 0 -11 -7 -11 -15 0 -18 -12 -19 -28 -3 -9
9 -12 7 -12 -10 0 -12 -4 -22 -10 -22 -5 0 -10 9 -10 20 0 22 -15 27 -23 8 -4
-10 -7 -10 -14 -1 -9 13 -55 14 -47 1 3 -4 0 -8 -7 -8 -6 0 -17 -7 -23 -15
-10 -12 -13 -12 -30 0 -20 15 -20 15 0 16 10 1 1 5 -20 10 -29 7 -42 6 -48 -3
-5 -8 -8 -9 -8 -2 0 7 -30 14 -72 19 -40 3 -84 13 -98 20 -14 8 -70 24 -125
36 -55 12 -111 30 -125 39 -14 9 -30 19 -36 21 -13 4 -116 94 -171 147 -18 18
-33 39 -33 47 0 9 -16 47 -35 86 -39 79 -42 103 -20 145 8 16 15 22 15 14 0
-9 15 -22 34 -28 26 -10 36 -20 41 -42 4 -17 10 -30 15 -30 4 0 11 -12 14 -26
7 -25 68 -94 84 -94 4 0 20 -14 36 -30 15 -17 63 -47 105 -67 l76 -37 195 0
c208 -1 209 -1 284 33 27 12 56 23 65 25 31 6 56 20 77 43 12 13 25 23 31 23
5 0 26 18 47 40 21 22 42 40 46 40 5 0 11 9 15 20 3 11 21 35 39 54 19 19 35
39 37 45 2 6 18 13 34 14 29 2 30 1 27 -38 -2 -22 -10 -50 -18 -62 -8 -13 -14
-47 -14 -83 0 -58 1 -59 18 -42 10 10 27 25 38 33 29 21 64 76 64 99 0 12 7
20 16 20 11 0 14 5 10 16 -3 9 4 24 19 38 14 13 25 31 25 41 0 9 9 28 20 42
11 14 20 33 20 42 0 9 7 25 15 35 8 11 15 29 15 40 0 12 14 45 30 75 17 30 30
59 30 65 0 6 9 22 20 36 11 14 20 33 20 43 0 9 3 17 8 17 8 0 31 50 58 125 9
28 26 64 36 80 10 17 18 38 18 48 0 9 4 17 8 17 5 0 13 25 19 55 8 44 7 55 -4
55 -7 0 -13 -4 -13 -10 0 -5 -7 -10 -15 -10 -9 0 -18 -7 -21 -15 -3 -8 -26
-25 -51 -37 -25 -13 -48 -28 -50 -35 -3 -7 -11 -13 -19 -13 -8 0 -14 -4 -14
-9 0 -5 -16 -16 -35 -25 -19 -9 -35 -21 -35 -26 0 -6 -6 -10 -13 -10 -8 0 -22
-9 -33 -20 -10 -12 -27 -28 -36 -38 -12 -11 -18 -32 -18 -64 0 -27 -4 -48 -9
-48 -4 0 -14 -27 -20 -60 -7 -33 -16 -60 -22 -60 -5 0 -9 -9 -9 -19 0 -24 -81
-97 -118 -106 -15 -3 -40 -13 -57 -20 -36 -17 -164 -35 -244 -35 -65 0 -171
19 -171 30 0 4 -19 11 -42 14 -65 10 -74 19 -52 49 14 19 37 29 91 41 83 18
203 71 203 90 0 8 -17 12 -47 13 -79 0 -217 15 -228 23 -5 5 -28 11 -49 16
-22 4 -51 13 -65 20 -14 8 -31 14 -38 14 -7 0 -15 17 -18 38 -10 56 -13 61
-15 22 l-2 -35 -8 30 c-4 17 -8 40 -9 53 -1 20 3 22 20 17 19 -6 21 -4 16 15
-8 29 1 50 22 50 9 1 25 15 36 33 11 18 27 32 35 32 8 1 14 6 12 13 -3 16 74
92 93 92 8 0 15 7 15 15 0 9 8 19 18 22 9 4 26 15 36 25 11 10 30 18 42 18 12
0 27 7 34 15 7 8 16 12 21 9 5 -3 14 5 20 18 6 13 20 25 31 25 25 2 25 2 34
37 6 26 5 28 -15 21 -16 -5 -21 -2 -21 12 0 10 -12 24 -30 31 -16 7 -32 22
-35 33 -4 11 -11 17 -16 13 -6 -3 -13 4 -16 16 -3 12 -11 19 -18 16 -8 -3 -16
2 -19 10 -3 9 -10 13 -15 10 -5 -3 -11 1 -15 9 -3 8 -12 15 -21 15 -25 0 -104
44 -105 58 0 7 -4 11 -9 7 -5 -3 -12 4 -16 15 -3 11 -12 20 -20 20 -7 0 -16
14 -20 30 -5 21 -14 32 -32 36 -14 4 -21 9 -16 13 14 9 13 173 0 189 -6 8 -12
23 -14 33 -2 11 -14 30 -28 43 -14 13 -25 31 -25 40 0 23 -17 20 -23 -4 -3
-11 -12 -20 -19 -20 -17 0 -41 -47 -32 -61 3 -6 0 -9 -8 -7 -7 2 -15 -1 -17
-7 -2 -5 -15 -27 -27 -47 -13 -21 -24 -42 -24 -48 0 -5 -4 -10 -10 -10 -5 0
-10 -7 -10 -16 0 -17 -75 -94 -92 -94 -5 0 -21 -9 -35 -20 -17 -13 -33 -18
-50 -14 -19 5 -25 2 -30 -15 -3 -13 -13 -21 -27 -21 -17 0 -18 2 -6 10 10 6
11 10 3 10 -20 0 -28 -4 -26 -12 2 -5 -4 -8 -13 -8 -8 0 -13 4 -9 9 7 13 -27
31 -62 32 -17 1 -21 3 -10 6 22 6 12 23 -14 23 -10 0 -27 4 -37 9 -25 14 -55
24 -72 25 -8 1 -14 7 -13 13 3 12 -17 20 -60 27 -25 3 -33 16 -11 17 11 0 5 5
-14 10 -18 6 -36 18 -40 27 -4 10 -20 18 -36 19 -28 2 -49 20 -40 34 2 4 -9
15 -24 24 -15 10 -39 31 -54 46 -15 16 -33 28 -40 27 -7 -2 -17 12 -22 30 -6
17 -14 32 -19 32 -5 0 -4 7 3 15 10 12 10 15 -1 15 -7 0 -23 9 -35 21 -21 20
-22 23 -9 67 9 30 11 51 5 63 -14 26 -12 42 12 96 12 26 21 51 20 55 -1 4 7
10 18 13 11 4 20 12 20 20 0 7 7 15 15 19 8 3 15 12 15 21 0 10 10 15 30 15
25 0 30 -4 36 -34 3 -19 15 -42 25 -52 10 -9 19 -22 19 -27 0 -17 71 -97 86
-97 8 0 14 -8 15 -17 0 -15 2 -15 9 2 7 17 9 17 9 3 1 -11 6 -15 15 -12 8 3
24 -4 35 -15 12 -12 34 -21 51 -21 31 0 41 16 16 26 -8 3 -17 21 -20 40 -4 20
-17 41 -31 50 -14 9 -25 22 -25 29 0 7 -7 15 -15 19 -38 14 -8 25 78 28 l92 3
-1 73 c0 42 -5 76 -11 80 -6 4 -14 24 -18 45 -4 20 -11 37 -15 37 -4 0 -12 18
-19 39 -14 49 -5 122 15 114 10 -4 14 4 14 27 0 22 -4 29 -12 24 -18 -11 -48
-12 -48 -2 0 4 -7 8 -16 8 -20 0 -64 45 -64 65 0 7 6 16 13 18 7 3 5 6 -5 6
-11 1 -18 9 -18 21 0 11 -4 20 -10 20 -5 0 -10 5 -10 11 0 5 5 7 10 4 7 -4 10
16 9 59 -1 36 -6 66 -12 66 -5 0 -7 6 -4 14 3 7 1 31 -3 52 -7 30 -6 41 5 50
8 6 15 23 15 38 0 16 6 26 14 26 8 0 17 14 21 30 4 17 11 28 16 24 5 -3 9 0 9
6 0 6 4 9 9 5 5 -3 12 4 16 15 3 11 12 20 20 20 7 0 15 3 17 8 19 43 302 106
323 72 3 -5 16 -10 27 -10 11 0 59 -18 105 -40 47 -22 90 -40 96 -40 7 0 23
-9 37 -20 36 -28 116 -28 125 0 16 51 -80 169 -157 192 -21 6 -38 15 -38 20 0
4 -4 8 -9 8 -5 0 -22 5 -38 12 -15 6 -31 11 -35 10 -5 -1 -8 2 -8 7 0 4 -19
11 -41 14 -38 5 -58 19 -59 40 0 4 9 7 20 7 11 0 20 -6 20 -12 0 -9 3 -9 9 1
7 11 22 12 92 2 46 -7 103 -17 126 -22 69 -15 286 -11 318 5 16 8 60 20 99 26
39 7 77 17 84 23 7 5 63 13 125 17 219 13 288 -1 358 -70 42 -41 59 -90 32
-90 -10 0 -31 7 -48 16 -59 31 -185 56 -260 51 -76 -5 -177 -31 -212 -54 -27
-18 -36 -55 -21 -89 12 -26 14 -26 76 -21 36 4 69 11 76 16 23 19 150 34 242
28 84 -5 129 -17 189 -50 11 -6 31 -16 45 -24 72 -37 198 -194 216 -271 4 -15
11 -32 15 -38 5 -6 11 -37 15 -70 4 -32 13 -76 21 -98 7 -21 13 -62 13 -90 1
-28 5 -71 11 -96 12 -55 26 -169 33 -270 3 -41 8 -85 12 -97 7 -25 33 -38 39
-20 6 15 25 100 32 144 3 18 9 31 13 28 14 -9 23 183 17 335 -6 128 -17 191
-39 225 -3 6 -9 28 -14 50 -4 22 -10 42 -14 45 -5 3 -22 35 -38 72 -17 36 -36
69 -41 73 -6 3 -11 13 -11 22 0 9 -22 37 -49 64 -36 36 -62 51 -95 59 -25 5
-49 9 -53 8 -14 -4 -62 33 -68 53 -4 11 -10 17 -14 14 -10 -5 -21 53 -21 108
0 20 -4 37 -8 37 -5 0 -9 6 -9 13 -1 6 -2 31 -4 54 -2 38 -5 42 -23 38 -12 -3
-25 -2 -31 2 -19 15 -81 98 -100 136 -11 21 -21 33 -23 27 -5 -13 -22 -13 -22
1 0 5 -14 24 -30 42 -17 18 -33 40 -36 50 -3 9 -10 17 -15 17 -5 0 -9 97 -9
238 0 130 -3 315 -7 410 l-6 172 -52 0 c-50 0 -52 -1 -62 -35 -6 -19 -7 -37
-3 -40 5 -3 4 -20 -1 -37 -5 -18 -5 -34 -1 -37 4 -4 8 -26 8 -51 1 -25 5 -98
9 -164 4 -83 3 -116 -4 -111 -6 3 -11 1 -11 -4 0 -6 4 -11 9 -11 5 0 8 -11 7
-25 0 -14 -5 -25 -11 -25 -5 0 -3 -5 5 -10 13 -9 13 -11 0 -20 -13 -8 -13 -11
-1 -19 10 -7 12 -21 7 -56 -7 -45 -9 -47 -34 -41 -15 4 -45 11 -67 16 -22 5
-60 17 -85 28 -30 13 -71 20 -122 21 -45 1 -116 12 -170 27 -51 13 -97 25
-103 27 -5 1 -14 5 -20 9 -17 10 -176 1 -261 -15 -114 -22 -194 -71 -194 -118
0 -11 -7 -19 -15 -19 -9 0 -15 -9 -15 -21 0 -19 -28 -74 -53 -104 -4 -5 -14
-19 -22 -30 -13 -19 -14 -19 -25 10 -10 23 -10 98 0 330 6 165 15 320 20 345
4 25 8 75 9 113 l2 67 -290 0 -291 0 20 -20z m145 -120 c3 -5 1 -10 -4 -10 -6
0 -11 5 -11 10 0 6 2 10 4 10 3 0 8 -4 11 -10z m-80 -212 c40 -4 40 -4 11 -12
-31 -10 -57 1 -64 25 -2 10 -1 10 5 2 4 -6 26 -13 48 -15z m-30 -137 c3 -5 1
-12 -5 -16 -5 -3 -10 1 -10 9 0 18 6 21 15 7z m-75 -171 c0 -5 -4 -10 -10 -10
-5 0 -10 5 -10 10 0 6 5 10 10 10 6 0 10 -4 10 -10z m3240 -28 c0 -5 -7 -9
-15 -9 -8 0 -15 4 -15 9 0 4 7 8 15 8 8 0 15 -4 15 -8z m1107 -204 c-3 -8 -6
-5 -6 6 -1 11 2 17 5 13 3 -3 4 -12 1 -19z m-4043 -201 c3 3 6 -1 6 -10 0 -24
-37 -21 -43 3 -4 16 -2 18 13 10 9 -5 20 -6 24 -3z m46 3 c0 -5 -4 -10 -10
-10 -5 0 -10 5 -10 10 0 6 5 10 10 10 6 0 10 -4 10 -10z m20 -770 c0 -5 -2
-10 -4 -10 -3 0 -8 5 -11 10 -3 6 -1 10 4 10 6 0 11 -4 11 -10z m-346 -438 c4
-32 3 -67 0 -77 -6 -14 -4 -16 7 -10 11 6 12 5 2 -6 -7 -7 -13 -38 -13 -69 0
-31 -5 -61 -12 -68 -9 -9 -9 -12 2 -12 9 0 8 -6 -6 -21 -19 -21 -19 -20 -24
82 -4 90 2 185 15 227 10 29 23 8 29 -46z m346 -213 c0 -5 -4 -9 -10 -9 -5 0
-10 7 -10 16 0 8 5 12 10 9 6 -3 10 -10 10 -16z m133 -686 c-7 -2 -21 -2 -30
0 -10 3 -4 5 12 5 17 0 24 -2 18 -5z m-1008 -1552 c3 -5 1 -12 -5 -16 -5 -3
-10 1 -10 9 0 18 6 21 15 7z m35 -31 c0 -5 -4 -10 -10 -10 -5 0 -10 5 -10 10
0 6 5 10 10 10 6 0 10 -4 10 -10z m-1367 -127 c-7 -2 -19 -2 -25 0 -7 3 -2 5
12 5 14 0 19 -2 13 -5z m603 -35 c0 -21 -3 -38 -8 -38 -4 0 -8 7 -8 15 0 8 -4
15 -10 15 -5 0 -10 -5 -10 -12 0 -24 -15 4 -16 31 -1 24 2 28 25 28 24 0 27
-4 27 -39z m-66 6 c0 -8 -5 -12 -10 -9 -6 4 -8 11 -5 16 9 14 15 11 15 -7z
m-544 -1 c-10 -10 -46 -11 -52 -1 -3 4 9 8 27 8 18 0 29 -3 25 -7z m44 -3 c0
-5 -7 -10 -15 -10 -8 0 -15 5 -15 10 0 6 7 10 15 10 8 0 15 -4 15 -10z m643 3
c-13 -2 -33 -2 -45 0 -13 2 -3 4 22 4 25 0 35 -2 23 -4z m812 -3 c3 -5 1 -10
-4 -10 -6 0 -11 5 -11 10 0 6 2 10 4 10 3 0 8 -4 11 -10z m-800 -43 c-2 -33
-13 -46 -25 -28 -7 12 -11 11 -25 -3 -24 -24 -41 -6 -24 25 15 30 26 37 53 35
18 -1 22 -7 21 -29z m82 27 c-3 -3 -12 -4 -19 -1 -8 3 -5 6 6 6 11 1 17 -2 13
-5z m113 2 c0 -9 -30 -14 -35 -6 -4 6 3 10 14 10 12 0 21 -2 21 -4z m-770 -56
c0 -5 -2 -10 -4 -10 -3 0 -8 5 -11 10 -3 6 -1 10 4 10 6 0 11 -4 11 -10z
m-145 -22 c6 -4 -10 -7 -35 -6 -29 1 -35 2 -17 5 15 2 27 9 27 15 0 7 3 7 8 2
4 -5 12 -12 17 -16z m805 8 c0 -11 -19 -15 -25 -6 -3 5 1 10 9 10 9 0 16 -2
16 -4z m-323 -12 c-3 -3 -12 -4 -19 -1 -8 3 -5 6 6 6 11 1 17 -2 13 -5z m140
0 c-3 -3 -12 -4 -19 -1 -8 3 -5 6 6 6 11 1 17 -2 13 -5z m403 -204 c13 -9 13
-11 0 -20 -19 -12 -27 -12 -35 0 -7 11 2 30 13 30 4 0 14 -5 22 -10z m-5 -70
c4 -6 -6 -10 -22 -10 -22 0 -25 2 -13 10 19 12 27 12 35 0z m-108 -22 c-3 -8
-6 -5 -6 6 -1 11 2 17 5 13 3 -3 4 -12 1 -19z m43 12 c0 -5 -4 -10 -10 -10 -5
0 -10 5 -10 10 0 6 5 10 10 10 6 0 10 -4 10 -10z m337 -52 c-3 -8 -6 -5 -6 6
-1 11 2 17 5 13 3 -3 4 -12 1 -19z m-237 -8 c0 -5 -17 -9 -37 -9 l-38 2 35 7
c19 4 36 8 38 9 1 0 2 -3 2 -9z m69 -17 c-1 -17 -3 -21 -6 -10 -2 9 -13 17
-24 17 -10 0 -19 5 -19 10 0 6 11 10 25 10 21 0 25 -5 24 -27z m71 17 c0 -5
-4 -10 -10 -10 -5 0 -10 5 -10 10 0 6 5 10 10 10 6 0 10 -4 10 -10z m30 0 c0
-5 -4 -10 -10 -10 -5 0 -10 5 -10 10 0 6 5 10 10 10 6 0 10 -4 10 -10z m-217
-37 c-7 -2 -21 -2 -30 0 -10 3 -4 5 12 5 17 0 24 -2 18 -5z m94 -29 c-3 -3
-12 -4 -19 -1 -8 3 -5 6 6 6 11 1 17 -2 13 -5z m203 -3 c0 -5 -29 -9 -65 -8
-36 0 -65 4 -65 9 0 4 29 8 65 8 36 0 65 -4 65 -9z m-110 -31 c0 -5 -4 -10
-10 -10 -5 0 -10 5 -10 10 0 6 5 10 10 10 6 0 10 -4 10 -10z m75 0 c-3 -5 -15
-10 -25 -10 -10 0 -22 5 -25 10 -4 6 7 10 25 10 18 0 29 -4 25 -10z m30 0 c3
-5 1 -10 -4 -10 -6 0 -11 5 -11 10 0 6 2 10 4 10 3 0 8 -4 11 -10z m70 0 c3
-5 0 -19 -8 -31 -9 -12 -18 -16 -21 -10 -4 5 2 14 11 20 17 10 17 10 1 11 -10
0 -18 5 -18 10 0 13 27 13 35 0z m1825 -134 c0 -3 -4 -8 -10 -11 -5 -3 -10 -1
-10 4 0 6 5 11 10 11 6 0 10 -2 10 -4z m2967 -52 c-3 -3 -12 -4 -19 -1 -8 3
-5 6 6 6 11 1 17 -2 13 -5z m-4733 -189 c7 -29 0 -48 -15 -40 -12 8 -12 65 0
65 5 0 12 -11 15 -25z m-197 2 c-2 -6 -23 -11 -46 -12 -33 -1 -39 1 -28 9 19
14 79 16 74 3z m-91 -116 c-5 -8 -13 -8 -29 1 -21 11 -21 11 -2 18 23 9 41 -3
31 -19z m-16 -21 c0 -5 -7 -10 -15 -10 -10 0 -15 -11 -15 -35 0 -19 -4 -35 -9
-35 -11 0 -9 59 2 78 10 14 37 16 37 2z m4217 -112 c-3 -7 -5 -2 -5 12 0 14 2
19 5 13 2 -7 2 -19 0 -25z m-67 -13 c0 -19 -4 -35 -9 -35 -10 0 -22 51 -14 62
11 19 23 5 23 -27z m270 31 c0 -2 -7 -16 -15 -32 -12 -23 -15 -25 -21 -11 -8
23 2 47 21 47 8 0 15 -2 15 -4z m-241 -53 c1 -7 -3 -13 -9 -13 -5 0 -10 15 -9
33 0 27 2 29 9 12 5 -11 9 -26 9 -32z m-4224 18 c3 -5 1 -12 -5 -16 -5 -3 -10
1 -10 9 0 18 6 21 15 7z m4522 -17 c-3 -4 -14 -3 -24 0 -15 6 -15 8 -3 16 16
10 39 -4 27 -16z m549 4 c4 -5 -9 -8 -29 -8 -20 0 -37 3 -37 8 0 4 13 7 29 7
16 0 33 -3 37 -7z m-796 -28 c0 -5 -2 -10 -4 -10 -3 0 -8 5 -11 10 -3 6 -1 10
4 10 6 0 11 -4 11 -10z m17 -37 c-3 -10 -5 -2 -5 17 0 19 2 27 5 18 2 -10 2
-26 0 -35z m268 27 c-27 -5 -66 -8 -85 -8 l-35 1 35 7 c19 4 58 7 85 7 l50 0
-50 -7z m404 -6 c6 4 14 0 17 -9 9 -21 -5 -33 -17 -15 -8 13 -10 13 -19 0 -7
-12 -10 -8 -10 15 0 21 3 26 9 16 5 -7 14 -10 20 -7z m61 -15 c0 -5 -7 -9 -15
-9 -15 0 -20 12 -9 23 8 8 24 -1 24 -14z m-790 -20 c0 -10 5 -19 12 -19 6 0 9
-2 6 -5 -12 -13 -38 9 -38 32 0 13 4 21 10 18 6 -3 10 -15 10 -26z m1720 16
c0 -7 -13 -12 -30 -13 -19 0 -30 4 -30 13 0 9 11 13 30 13 17 -1 30 -6 30 -13z
m-1315 -5 c47 -7 45 -7 -32 -9 -50 0 -83 3 -83 9 0 11 43 12 115 0z m-4605
-10 c0 -5 -4 -10 -9 -10 -6 0 -13 5 -16 10 -3 6 1 10 9 10 9 0 16 -4 16 -10z
m4460 6 c0 -11 -19 -15 -25 -6 -3 5 1 10 9 10 9 0 16 -2 16 -4z m720 -17 c0
-5 -7 -9 -15 -9 -15 0 -20 12 -9 23 8 8 24 -1 24 -14z m770 -10 c0 -10 -7 -19
-15 -19 -15 0 -21 31 -9 43 11 10 24 -3 24 -24z m-1615 11 c3 -5 -3 -10 -14
-10 -12 0 -21 5 -21 10 0 6 6 10 14 10 8 0 18 -4 21 -10z m692 -6 c-3 -3 -12
-4 -19 -1 -8 3 -5 6 6 6 11 1 17 -2 13 -5z m53 2 c0 -2 -7 -9 -15 -16 -12 -10
-15 -10 -15 4 0 9 7 16 15 16 8 0 15 -2 15 -4z m163 -3 c-7 -2 -19 -2 -25 0
-7 3 -2 5 12 5 14 0 19 -2 13 -5z m-1086 -35 c-3 -7 -5 -2 -5 12 0 14 2 19 5
13 2 -7 2 -19 0 -25z m456 25 c-24 -2 -62 -2 -85 0 -24 2 -5 4 42 4 47 0 66
-2 43 -4z m687 -3 c0 -5 -4 -10 -9 -10 -6 0 -13 5 -16 10 -3 6 1 10 9 10 9 0
16 -4 16 -10z m247 -29 c-5 -2 -13 3 -18 10 -15 24 -10 30 9 12 10 -10 14 -20
9 -22z m-767 19 c11 -7 7 -10 -17 -10 -18 0 -33 5 -33 10 0 13 30 13 50 0z
m140 0 c0 -5 8 -10 19 -10 10 0 26 -11 35 -25 13 -19 13 -25 3 -25 -7 0 -18 5
-25 12 -9 9 -12 9 -12 0 0 -20 -17 -13 -23 9 -3 12 -10 18 -16 15 -6 -4 -8
-13 -4 -21 4 -11 -2 -15 -20 -15 -14 0 -37 -4 -50 -9 -19 -8 -27 -6 -31 5 -11
28 16 54 56 54 20 0 40 5 43 10 3 6 10 10 16 10 5 0 9 -4 9 -10z m-4920 -10
c0 -5 -15 -10 -32 -9 -31 1 -32 1 -8 9 35 11 40 11 40 0z m45 0 c3 -5 -3 -10
-15 -10 -12 0 -18 5 -15 10 3 6 10 10 15 10 5 0 12 -4 15 -10z m4475 -5 c0 -2
-7 -5 -15 -9 -9 -3 -15 0 -15 9 0 9 6 12 15 9 8 -4 15 -7 15 -9z m125 0 c6 -2
-17 -4 -50 -4 -33 0 -54 3 -48 7 12 7 74 5 98 -3z m493 -11 c-4 -3 -17 -2 -30
2 -22 7 -22 7 -3 14 20 8 44 -4 33 -16z m210 7 c3 -8 -1 -12 -9 -9 -7 2 -15
10 -17 17 -3 8 1 12 9 9 7 -2 15 -10 17 -17z m-1128 -1 c0 -5 -4 -10 -10 -10
-5 0 -10 5 -10 10 0 6 5 10 10 10 6 0 10 -4 10 -10z m175 0 c-11 -5 -31 -9
-45 -9 -23 0 -23 1 -5 9 11 5 31 9 45 9 23 0 23 -1 5 -9z m995 -11 c0 -5 -4
-9 -10 -9 -5 0 -10 7 -10 16 0 8 5 12 10 9 6 -3 10 -10 10 -16z m-1113 5 c-3
-3 -12 -4 -19 -1 -8 3 -5 6 6 6 11 1 17 -2 13 -5z m941 -5 c12 0 10 -3 -6 -10
-25 -10 -42 -5 -42 13 0 5 7 7 16 4 9 -3 23 -6 32 -7z m442 -16 c0 -10 -6 -13
-16 -9 -9 3 -19 6 -24 6 -4 0 -10 6 -13 13 -4 10 3 12 24 9 17 -3 29 -10 29
-19z m380 17 c0 -5 -7 -10 -15 -10 -8 0 -15 5 -15 10 0 6 7 10 15 10 8 0 15
-4 15 -10z m-1820 -24 c0 -3 -4 -8 -10 -11 -5 -3 -10 -1 -10 4 0 6 5 11 10 11
6 0 10 -2 10 -4z m893 -10 c3 -7 23 -19 44 -25 l38 -11 -48 5 c-56 6 -67 11
-67 31 0 18 26 18 33 0z m-5106 -16 c3 -11 9 -20 14 -20 5 0 9 -8 9 -18 0 -10
5 -23 12 -30 8 -8 5 -14 -16 -22 -33 -12 -36 -12 -36 -1 0 5 9 13 20 16 11 4
18 11 15 16 -4 5 -13 2 -21 -6 -9 -8 -25 -15 -37 -15 -22 1 -22 1 -2 13 28 17
31 57 5 57 -22 0 -27 15 -7 23 25 11 39 6 44 -13z m5283 4 c0 -8 -4 -12 -10
-9 -5 3 -10 10 -10 16 0 5 5 9 10 9 6 0 10 -7 10 -16z m-837 -34 l-7 -25 -6
25 c-8 28 -2 46 11 33 5 -5 5 -20 2 -33z m157 31 c0 -5 -11 -11 -25 -13 -17
-4 -25 -1 -25 8 0 8 11 14 25 14 14 0 25 -4 25 -9z m290 -1 c0 -5 -8 -10 -17
-10 -15 0 -16 2 -3 10 19 12 20 12 20 0z m40 -21 c0 -20 -4 -29 -12 -27 -7 3
-12 14 -11 26 1 31 2 32 13 32 6 0 10 -14 10 -31z m55 11 c-5 -15 -2 -20 14
-20 11 0 23 -5 26 -11 11 -17 -3 -23 -20 -9 -8 7 -24 10 -35 7 -17 -4 -20 0
-20 24 0 23 5 29 21 29 16 0 19 -4 14 -20z m763 11 c11 -7 11 -9 -2 -14 -19
-7 -46 1 -46 14 0 11 31 11 48 0z m-1458 -11 c0 -5 -4 -10 -10 -10 -5 0 -10 5
-10 10 0 6 5 10 10 10 6 0 10 -4 10 -10z m27 -12 c-3 -8 -6 -5 -6 6 -1 11 2
17 5 13 3 -3 4 -12 1 -19z m173 18 c0 -3 -4 -8 -10 -11 -5 -3 -10 -1 -10 4 0
6 5 11 10 11 6 0 10 -2 10 -4z m1080 -6 c0 -5 -4 -10 -10 -10 -5 0 -10 5 -10
10 0 6 5 10 10 10 6 0 10 -4 10 -10z m-743 -6 c-3 -3 -12 -4 -19 -1 -8 3 -5 6
6 6 11 1 17 -2 13 -5z m578 -14 c3 -5 -1 -10 -9 -10 -9 0 -16 5 -16 10 0 6 4
10 9 10 6 0 13 -4 16 -10z m-5465 -10 c0 -5 -7 -10 -16 -10 -8 0 -12 5 -9 10
3 6 10 10 16 10 5 0 9 -4 9 -10z m4585 0 c3 -5 1 -10 -4 -10 -6 0 -11 5 -11
10 0 6 2 10 4 10 3 0 8 -4 11 -10z m365 0 c0 -5 -6 -10 -14 -10 -8 0 -18 5
-21 10 -3 6 3 10 14 10 12 0 21 -4 21 -10z m227 -12 c-3 -8 -6 -5 -6 6 -1 11
2 17 5 13 3 -3 4 -12 1 -19z m-447 2 c0 -15 -36 -30 -67 -29 -20 1 -22 3 -8 6
11 2 30 6 43 9 13 2 20 9 17 14 -3 6 -1 10 4 10 6 0 11 -4 11 -10z m-476 -9
c3 -5 -3 -11 -14 -14 -20 -5 -26 3 -13 16 9 10 21 9 27 -2z m46 -1 c0 -5 -5
-10 -11 -10 -5 0 -7 5 -4 10 3 6 8 10 11 10 2 0 4 -4 4 -10z m878 -9 c51 -14
46 -34 -6 -25 -68 11 -74 14 -61 30 6 7 14 12 18 10 3 -2 25 -9 49 -15z m182
-1 c0 -5 -4 -12 -10 -15 -5 -3 -10 1 -10 11 0 13 -3 14 -15 4 -9 -8 -15 -8
-15 -2 0 6 6 12 13 15 15 5 37 -2 37 -13z m-561 -3 c6 -8 8 -17 4 -20 -7 -8
-33 11 -33 24 0 13 16 11 29 -4z m52 3 c16 -9 17 -13 7 -25 -11 -12 -15 -11
-25 3 -24 30 -16 40 18 22z m182 -18 c10 -9 33 -15 57 -14 21 1 42 -3 45 -8 4
-6 -17 -10 -54 -10 -40 0 -63 5 -68 13 -4 8 -21 17 -37 21 -23 6 -27 4 -23 -8
4 -9 2 -18 -3 -21 -25 -15 -7 -26 35 -21 35 3 45 1 45 -10 0 -11 -9 -13 -42
-8 -24 4 -49 12 -57 18 -8 6 -22 10 -33 8 -11 -2 -18 3 -18 12 0 12 7 14 32 9
27 -5 30 -4 25 11 -14 35 58 42 96 8z m527 7 c0 -6 -4 -7 -10 -4 -5 3 -10 11
-10 16 0 6 5 7 10 4 6 -3 10 -11 10 -16z m176 11 c8 0 14 -4 14 -10 0 -15 -24
-12 -46 6 -17 14 -17 15 -1 10 10 -3 25 -6 33 -6z m-1296 -4 c0 -2 -16 -6 -35
-8 -19 -2 -35 0 -35 4 0 4 16 8 35 8 19 0 35 -2 35 -4z m1500 0 c0 -11 -19
-15 -25 -6 -3 5 1 10 9 10 9 0 16 -2 16 -4z m-333 -12 c-3 -3 -12 -4 -19 -1
-8 3 -5 6 6 6 11 1 17 -2 13 -5z m-1372 -14 c3 -5 1 -10 -4 -10 -6 0 -11 5
-11 10 0 6 2 10 4 10 3 0 8 -4 11 -10z m-4191 -12 c5 -10 7 -10 12 0 11 24 20
11 20 -33 0 -25 -4 -45 -8 -45 -4 0 -8 11 -8 24 0 32 -24 50 -56 42 -22 -6
-24 -5 -12 8 16 19 44 20 52 4z m4364 3 c10 -6 7 -10 -12 -13 -28 -6 -45 7
-24 15 19 8 22 8 36 -2z m342 -1 c0 -5 -7 -10 -15 -10 -8 0 -15 5 -15 10 0 6
7 10 15 10 8 0 15 -4 15 -10z m700 -5 c0 -8 -4 -15 -10 -15 -5 0 -10 7 -10 15
0 8 5 15 10 15 6 0 10 -7 10 -15z m520 5 c0 -5 -4 -10 -10 -10 -5 0 -10 5 -10
10 0 6 5 10 10 10 6 0 10 -4 10 -10z m40 0 c0 -5 -2 -10 -4 -10 -3 0 -8 5 -11
10 -3 6 -1 10 4 10 6 0 11 -4 11 -10z m-363 -6 c-3 -3 -12 -4 -19 -1 -8 3 -5
6 6 6 11 1 17 -2 13 -5z m-1144 -25 l32 -2 -35 -6 c-19 -3 -48 -4 -65 -2 -26
3 -27 5 -10 12 11 4 26 6 33 3 8 -2 28 -5 45 -5z m307 -5 c0 -2 -12 -4 -27 -4
-21 0 -24 3 -14 9 13 8 41 5 41 -5z m340 1 c0 -8 -4 -15 -9 -15 -5 0 -11 7
-15 15 -3 9 0 15 9 15 8 0 15 -7 15 -15z m401 5 c5 0 9 -5 9 -10 0 -7 -7 -7
-20 0 -11 6 -26 8 -32 4 -7 -5 -8 -3 -4 5 5 7 15 10 23 7 8 -3 19 -6 24 -6z
m-5564 -32 c-3 -7 -5 -2 -5 12 0 14 2 19 5 13 2 -7 2 -19 0 -25z m45 -8 c3
-31 0 -40 -12 -40 -12 0 -15 9 -12 40 2 22 8 40 12 40 4 0 10 -18 12 -40z
m4199 -13 c-8 -8 -11 -7 -11 5 0 9 -3 25 -6 35 -5 13 -1 11 11 -5 13 -18 14
-27 6 -35z m1094 43 c-3 -5 -11 -10 -16 -10 -6 0 -7 5 -4 10 3 6 11 10 16 10
6 0 7 -4 4 -10z m52 4 c-3 -3 -12 -4 -19 -1 -8 3 -5 6 6 6 11 1 17 -2 13 -5z
m-1190 -36 c-3 -7 -5 -2 -5 12 0 14 2 19 5 13 2 -7 2 -19 0 -25z m548 2 c-3
-5 -14 -10 -23 -10 -15 0 -15 2 -2 10 20 13 33 13 25 0z m330 0 c3 -5 2 -10
-4 -10 -5 0 -13 5 -16 10 -3 6 -2 10 4 10 5 0 13 -4 16 -10z m73 -33 c6 3 12
0 12 -6 0 -13 -29 -14 -49 -2 -8 5 -10 14 -6 21 6 10 10 10 19 -2 6 -8 17 -13
24 -11z m-5150 1 c-2 -5 -8 -9 -13 -9 -5 0 -11 4 -13 9 -1 5 4 9 13 9 9 0 14
-4 13 -9z m2715 -13 c-7 -21 -13 -19 -13 6 0 11 4 18 10 14 5 -3 7 -12 3 -20z
m3025 15 c10 0 13 -3 6 -10 -11 -11 -54 -2 -54 12 0 6 7 7 16 4 9 -3 23 -6 32
-6z m-5648 -4 c0 -3 -4 -8 -10 -11 -5 -3 -10 -1 -10 4 0 6 5 11 10 11 6 0 10
-2 10 -4z m1457 -2 c-3 -3 -12 -4 -19 -1 -8 3 -5 6 6 6 11 1 17 -2 13 -5z m33
-37 c-10 -12 -86 -4 -82 8 1 5 16 8 32 7 17 -2 30 1 30 8 0 7 5 6 14 -2 8 -7
11 -17 6 -21z m3672 5 c-12 -8 -72 -4 -72 4 0 2 19 4 43 4 25 0 37 -4 29 -8z
m718 -2 c0 -5 -4 -10 -9 -10 -6 0 -13 5 -16 10 -3 6 1 10 9 10 9 0 16 -4 16
-10z m-4155 -37 c28 -14 54 -32 58 -39 4 -8 15 -14 24 -14 9 0 13 -6 9 -15 -3
-8 2 -18 10 -23 10 -6 14 -20 12 -43 -3 -29 -7 -34 -31 -37 -23 -3 -30 1 -34
19 -6 22 -7 22 -14 3 -7 -16 -8 -17 -8 -1 -1 9 -7 17 -14 17 -7 0 -24 11 -38
24 -14 13 -35 27 -47 30 -14 5 -25 20 -32 46 -20 75 5 83 105 33z m-1735 6 c0
-5 -4 -9 -10 -9 -5 0 -10 7 -10 16 0 8 5 12 10 9 6 -3 10 -10 10 -16z m-30 -8
c0 -11 -4 -22 -9 -25 -12 -8 -34 21 -26 34 11 17 35 11 35 -9z m51 -34 c-8 -8
-11 -4 -11 14 0 33 14 47 18 19 2 -12 -1 -27 -7 -33z m74 33 c-3 -5 -10 -10
-16 -10 -5 0 -9 5 -9 10 0 6 7 10 16 10 8 0 12 -4 9 -10z m4998 3 c-13 -2 -33
-2 -45 0 -13 2 -3 4 22 4 25 0 35 -2 23 -4z m-982 -80 c-8 -15 -10 -15 -11 -2
0 17 10 32 18 25 2 -3 -1 -13 -7 -23z m-4274 -9 c-3 -3 -12 -4 -19 -1 -8 3 -5
6 6 6 11 1 17 -2 13 -5z m4273 -44 c0 -18 6 -33 15 -36 9 -4 15 -18 14 -33 -1
-25 -1 -25 -7 -3 -10 33 -26 23 -25 -16 0 -18 -4 -35 -8 -38 -5 -3 -9 31 -9
75 0 47 4 81 10 81 6 0 10 -14 10 -30z m-2130 -72 c0 -11 7 -27 16 -36 14 -13
15 -28 9 -81 -4 -37 -8 -74 -8 -83 -1 -9 -5 -14 -9 -12 -4 3 -8 -4 -8 -16 0
-12 -7 -35 -16 -52 -13 -25 -14 -36 -5 -50 6 -10 8 -18 3 -18 -4 0 -8 -19 -9
-42 0 -24 -7 -56 -14 -73 -6 -16 -13 -36 -15 -43 -4 -22 -14 -27 -14 -7 0 10
-7 23 -15 29 -11 8 -16 36 -19 93 -6 100 -23 138 -68 147 -26 5 -30 9 -18 16
13 8 12 11 -6 16 -16 4 -20 13 -19 37 2 18 -3 38 -9 46 -9 12 -5 13 29 7 22
-4 49 -9 60 -10 11 -1 30 -7 42 -14 12 -6 31 -12 42 -12 27 0 29 45 4 72 -25
28 -24 118 2 139 18 16 20 15 32 -8 7 -14 13 -34 13 -45z m2157 -110 c-2 -13
-4 -5 -4 17 -1 22 1 32 4 23 2 -10 2 -28 0 -40z m-2609 -36 c2 -32 8 -52 15
-52 8 0 7 -3 -2 -9 -8 -5 -15 -35 -19 -80 -4 -56 -8 -71 -21 -73 -9 0 -23 -2
-31 -3 -17 -1 -40 13 -40 25 0 4 9 10 20 13 11 3 20 12 20 20 0 8 7 17 15 21
21 8 19 21 -7 51 -13 16 -32 25 -50 25 -15 0 -28 5 -28 11 0 8 -5 8 -15 -1
-12 -10 -15 -9 -15 7 0 14 11 23 40 32 24 7 49 24 62 42 33 44 52 34 56 -29z
m1676 27 c35 -41 41 -72 21 -102 -20 -31 -49 -28 -82 7 -23 25 -32 76 -13 76
6 0 10 11 10 25 0 35 32 33 64 -6z m936 -95 c0 -34 -4 -53 -10 -49 -5 3 -10
28 -10 56 0 27 5 49 10 49 6 0 10 -25 10 -56z m-2310 -54 c0 -5 -7 -10 -16
-10 -8 0 -12 5 -9 10 3 6 10 10 16 10 5 0 9 -4 9 -10z m2287 -52 c-3 -7 -5 -2
-5 12 0 14 2 19 5 13 2 -7 2 -19 0 -25z m0 -55 c-3 -10 -5 -4 -5 12 0 17 2 24
5 18 2 -7 2 -21 0 -30z m-2539 -130 c12 -22 1 -98 -14 -98 -6 0 -18 8 -28 18
-10 9 -23 17 -30 17 -20 0 -49 37 -43 54 11 27 102 34 115 9z m2 -135 c0 -2 3
-33 6 -70 4 -43 3 -68 -4 -68 -5 0 -12 -9 -15 -21 -14 -53 -137 27 -137 89 0
29 2 30 56 34 39 3 59 10 66 21 7 14 28 24 28 15z m369 -119 c2 -85 -9 -119
-39 -119 -25 0 -32 13 -35 64 -2 50 3 66 21 66 8 0 14 10 14 25 0 14 5 25 11
25 5 0 8 4 5 8 -3 5 1 9 8 9 10 0 14 -21 15 -78z m965 -73 c7 -41 6 -51 -8
-61 -9 -7 -16 -17 -16 -24 0 -6 -7 -11 -15 -11 -8 0 -15 -9 -15 -20 0 -13 -7
-20 -20 -20 -11 0 -20 -6 -20 -13 0 -11 -21 -23 -82 -46 -16 -6 -28 -16 -28
-24 0 -22 -24 -67 -37 -68 -27 -3 -32 -4 -39 -12 -16 -15 -43 -6 -64 22 l-20
30 40 43 c22 24 40 46 40 51 0 4 7 7 15 7 8 0 15 4 15 10 0 16 87 100 104 100
9 0 16 7 16 15 0 8 7 15 15 15 8 0 15 5 15 10 0 6 11 15 25 20 14 5 25 14 25
20 0 6 10 10 22 8 19 -2 25 -12 32 -52z m-1362 -101 c14 -5 17 -14 13 -41 -6
-46 -42 -104 -65 -104 -30 0 -80 100 -67 133 5 14 86 22 119 12z m598 -75 c0
-5 -7 -10 -15 -10 -8 0 -15 5 -15 10 0 6 7 10 15 10 8 0 15 -4 15 -10z m8 -32
c6 -1 12 -7 12 -13 0 -7 7 -18 15 -25 8 -7 15 -25 15 -41 0 -29 -1 -29 -58
-29 -68 0 -106 20 -96 52 6 21 12 46 13 62 1 7 21 6 99 -6z m287 -62 c30 -22
12 -46 -36 -46 -33 0 -40 3 -35 16 3 9 6 22 6 30 0 18 40 18 65 0z m1072 -18
c-3 -8 -6 -5 -6 6 -1 11 2 17 5 13 3 -3 4 -12 1 -19z"/>
<path d="M750 3060 c0 -5 5 -10 10 -10 6 0 10 5 10 10 0 6 -4 10 -10 10 -5 0
-10 -4 -10 -10z"/>
<path d="M818 3008 c-26 -32 -22 -41 7 -16 25 21 32 38 18 38 -5 0 -16 -10
-25 -22z"/>
<path d="M850 3000 c0 -5 5 -10 10 -10 6 0 10 5 10 10 0 6 -4 10 -10 10 -5 0
-10 -4 -10 -10z"/>
<path d="M6087 1713 c-15 -15 -5 -23 28 -23 36 0 47 13 19 24 -20 8 -39 8 -47
-1z"/>
<path d="M3080 979 c0 -5 5 -7 10 -4 6 3 10 8 10 11 0 2 -4 4 -10 4 -5 0 -10
-5 -10 -11z"/>
<path d="M4104 7948 c7 -40 26 -78 26 -50 0 7 1 15 2 20 1 4 5 22 9 40 6 30 5
32 -18 32 -24 0 -25 -2 -19 -42z"/>
<path d="M6448 7870 c-3 -16 -1 -30 4 -30 4 0 8 14 8 30 0 17 -2 30 -4 30 -2
0 -6 -13 -8 -30z"/>
<path d="M7260 7820 c0 -5 5 -10 10 -10 6 0 10 5 10 10 0 6 -4 10 -10 10 -5 0
-10 -4 -10 -10z"/>
<path d="M6362 7780 c0 -14 2 -19 5 -12 2 6 2 18 0 25 -3 6 -5 1 -5 -13z"/>
<path d="M7061 7764 c0 -11 3 -14 6 -6 3 7 2 16 -1 19 -3 4 -6 -2 -5 -13z"/>
<path d="M6551 7694 c0 -11 3 -14 6 -6 3 7 2 16 -1 19 -3 4 -6 -2 -5 -13z"/>
<path d="M6771 7684 c0 -11 3 -14 6 -6 3 7 2 16 -1 19 -3 4 -6 -2 -5 -13z"/>
<path d="M6546 7662 c-2 -4 -1 -14 5 -22 7 -12 9 -10 9 8 0 23 -5 28 -14 14z"/>
<path d="M1237 7337 c-10 -27 -9 -157 2 -157 14 0 25 107 14 143 -7 27 -10 29
-16 14z"/>
<path d="M6652 7315 c0 -16 2 -22 5 -12 2 9 2 23 0 30 -3 6 -5 -1 -5 -18z"/>
<path d="M6771 7324 c0 -11 3 -14 6 -6 3 7 2 16 -1 19 -3 4 -6 -2 -5 -13z"/>
<path d="M7262 7300 c0 -14 2 -19 5 -12 2 6 2 18 0 25 -3 6 -5 1 -5 -13z"/>
<path d="M6972 7220 c0 -14 2 -19 5 -12 2 6 2 18 0 25 -3 6 -5 1 -5 -13z"/>
<path d="M1205 7115 c-7 -50 1 -105 16 -105 5 0 9 34 9 75 0 83 -14 100 -25
30z"/>
<path d="M6452 7090 c0 -14 2 -19 5 -12 2 6 2 18 0 25 -3 6 -5 1 -5 -13z"/>
<path d="M7063 7030 c0 -30 2 -43 4 -27 2 15 2 39 0 55 -2 15 -4 2 -4 -28z"/>
<path d="M4165 7047 c-10 -13 -13 -112 -3 -122 3 -3 6 18 7 46 0 29 3 61 7 71
6 21 3 22 -11 5z"/>
<path d="M6644 6964 c-4 -14 -2 -30 5 -37 8 -8 11 -1 11 26 0 43 -7 48 -16 11z"/>
<path d="M6751 6934 c0 -11 3 -14 6 -6 3 7 2 16 -1 19 -3 4 -6 -2 -5 -13z"/>
<path d="M1192 6917 c-9 -22 -9 -33 0 -50 13 -22 13 -22 16 6 2 15 2 37 -1 50
-3 21 -4 21 -15 -6z"/>
<path d="M7268 6934 c-5 -4 -8 -19 -8 -33 0 -18 3 -22 11 -14 6 6 9 21 7 33
-1 12 -6 18 -10 14z"/>
<path d="M6773 6815 c0 -27 2 -38 4 -22 2 15 2 37 0 50 -2 12 -4 0 -4 -28z"/>
<path d="M6842 6810 c0 -14 2 -19 5 -12 2 6 2 18 0 25 -3 6 -5 1 -5 -13z"/>
<path d="M2045 6770 c-7 -11 2 -190 9 -198 11 -10 28 170 19 196 -6 15 -19 16
-28 2z"/>
<path d="M1170 6705 c0 -42 12 -60 23 -32 7 18 -4 77 -14 77 -5 0 -9 -20 -9
-45z"/>
<path d="M7162 6695 c0 -16 2 -22 5 -12 2 9 2 23 0 30 -3 6 -5 -1 -5 -18z"/>
<path d="M6970 6661 c0 -12 5 -21 10 -21 6 0 10 6 10 14 0 8 -4 18 -10 21 -5
3 -10 -3 -10 -14z"/>
<path d="M5191 6654 c0 -11 3 -14 6 -6 3 7 2 16 -1 19 -3 4 -6 -2 -5 -13z"/>
<path d="M6551 6588 c0 -9 -4 -25 -7 -35 -5 -14 -4 -15 5 -7 7 7 11 22 8 35
-2 13 -5 16 -6 7z"/>
<path d="M6746 6562 c-2 -4 -1 -14 5 -22 7 -12 9 -10 9 8 0 23 -5 28 -14 14z"/>
<path d="M2012 6540 c0 -14 2 -19 5 -12 2 6 2 18 0 25 -3 6 -5 1 -5 -13z"/>
<path d="M1145 6539 c-9 -14 3 -59 15 -59 6 0 10 16 10 35 0 34 -12 46 -25 24z"/>
<path d="M7266 6485 c-3 -9 -6 -24 -5 -33 0 -9 5 -4 10 12 9 32 6 48 -5 21z"/>
<path d="M6772 6430 c0 -14 2 -19 5 -12 2 6 2 18 0 25 -3 6 -5 1 -5 -13z"/>
<path d="M1131 6325 c0 -35 1 -37 10 -17 6 15 5 30 -1 40 -7 13 -9 8 -9 -23z"/>
<path d="M7162 6330 c0 -19 2 -27 5 -17 2 9 2 25 0 35 -3 9 -5 1 -5 -18z"/>
<path d="M2391 6264 c0 -11 3 -14 6 -6 3 7 2 16 -1 19 -3 4 -6 -2 -5 -13z"/>
<path d="M6653 6225 c0 -22 2 -30 4 -17 2 12 2 30 0 40 -3 9 -5 -1 -4 -23z"/>
<path d="M6752 6220 c0 -19 2 -27 5 -17 2 9 2 25 0 35 -3 9 -5 1 -5 -18z"/>
<path d="M6547 6217 c-3 -8 -1 -20 4 -28 6 -10 9 -7 9 14 0 29 -5 35 -13 14z"/>
<path d="M1110 6134 c0 -34 4 -53 10 -49 6 3 10 28 10 56 0 27 -4 49 -10 49
-5 0 -10 -25 -10 -56z"/>
<path d="M7063 6135 c0 -22 2 -30 4 -17 2 12 2 30 0 40 -3 9 -5 -1 -4 -23z"/>
<path d="M6872 6140 c0 -14 2 -19 5 -12 2 6 2 18 0 25 -3 6 -5 1 -5 -13z"/>
<path d="M6771 6065 c0 -35 1 -37 10 -17 6 15 5 30 -1 40 -7 13 -9 8 -9 -23z"/>
<path d="M6842 6020 c0 -14 2 -19 5 -12 2 6 2 18 0 25 -3 6 -5 1 -5 -13z"/>
<path d="M7161 5994 c0 -11 3 -14 6 -6 3 7 2 16 -1 19 -3 4 -6 -2 -5 -13z"/>
<path d="M1096 5978 c-5 -16 -5 -36 0 -45 7 -16 8 -15 11 5 3 12 3 32 0 45 -3
21 -4 20 -11 -5z"/>
<path d="M7041 5914 c0 -11 3 -14 6 -6 3 7 2 16 -1 19 -3 4 -6 -2 -5 -13z"/>
<path d="M6748 5863 c-2 -10 -1 -34 3 -53 6 -31 6 -30 8 18 1 52 -3 67 -11 35z"/>
<path d="M6648 5825 c2 -14 6 -25 8 -25 2 0 4 11 4 25 0 14 -4 25 -9 25 -4 0
-6 -11 -3 -25z"/>
<path d="M1077 5813 c-11 -10 -8 -83 3 -83 6 0 10 20 10 45 0 46 -2 50 -13 38z"/>
<path d="M7062 5790 c0 -19 2 -27 5 -17 2 9 2 25 0 35 -3 9 -5 1 -5 -18z"/>
<path d="M3618 5753 c-10 -2 -21 -15 -24 -29 -3 -13 -10 -24 -15 -24 -8 0 -29
-63 -29 -87 0 -7 5 -13 10 -13 6 0 10 7 10 15 0 8 5 15 10 15 6 0 10 7 10 15
0 7 6 18 13 22 8 4 22 20 32 36 9 15 25 27 34 27 13 1 13 3 -3 15 -11 8 -22
14 -25 14 -3 -1 -14 -3 -23 -6z"/>
<path d="M4131 5738 c-6 -10 -16 -53 -21 -96 -6 -42 -15 -78 -20 -80 -13 -5
-13 -142 0 -142 5 0 12 -10 15 -23 10 -40 41 -45 130 -21 126 33 135 44 135
156 0 61 -28 112 -83 153 -93 69 -137 84 -156 53z"/>
<path d="M6941 5744 c0 -11 3 -14 6 -6 3 7 2 16 -1 19 -3 4 -6 -2 -5 -13z"/>
<path d="M7260 5736 c0 -22 3 -27 11 -19 8 8 8 16 0 30 -9 16 -10 14 -11 -11z"/>
<path d="M6871 5734 c0 -11 3 -14 6 -6 3 7 2 16 -1 19 -3 4 -6 -2 -5 -13z"/>
<path d="M6771 5694 c0 -11 3 -14 6 -6 3 7 2 16 -1 19 -3 4 -6 -2 -5 -13z"/>
<path d="M1044 5606 c-3 -9 -3 -28 1 -43 5 -21 8 -24 16 -12 12 19 11 56 -1
64 -6 3 -13 -1 -16 -9z"/>
<path d="M6752 5560 c0 -14 2 -19 5 -12 2 6 2 18 0 25 -3 6 -5 1 -5 -13z"/>
<path d="M7161 5564 c0 -11 3 -14 6 -6 3 7 2 16 -1 19 -3 4 -6 -2 -5 -13z"/>
<path d="M6970 5550 c0 -5 5 -10 10 -10 6 0 10 5 10 10 0 6 -4 10 -10 10 -5 0
-10 -4 -10 -10z"/>
<path d="M6651 5534 c0 -11 3 -14 6 -6 3 7 2 16 -1 19 -3 4 -6 -2 -5 -13z"/>
<path d="M7262 5465 c0 -16 2 -22 5 -12 2 9 2 23 0 30 -3 6 -5 -1 -5 -18z"/>
<path d="M7062 5450 c0 -14 2 -19 5 -12 2 6 2 18 0 25 -3 6 -5 1 -5 -13z"/>
<path d="M6772 5435 c0 -16 2 -22 5 -12 2 9 2 23 0 30 -3 6 -5 -1 -5 -18z"/>
<path d="M6934 5439 c-3 -6 -1 -16 5 -22 8 -8 11 -5 11 11 0 24 -5 28 -16 11z"/>
<path d="M1030 5385 c0 -28 -6 -57 -12 -63 -9 -9 -13 -43 -13 -97 0 -76 7
-107 20 -93 9 9 22 273 14 288 -5 10 -9 -3 -9 -35z"/>
<path d="M1156 5311 c-15 -16 -15 -19 -1 -24 19 -8 20 -36 0 -43 -40 -16 10
-64 66 -64 36 0 41 3 55 35 23 56 19 72 -28 95 -52 25 -70 25 -92 1z m69 -31
c3 -5 1 -10 -4 -10 -6 0 -11 5 -11 10 0 6 2 10 4 10 3 0 8 -4 11 -10z"/>
<path d="M6753 5230 c0 -30 2 -43 4 -27 2 15 2 39 0 55 -2 15 -4 2 -4 -28z"/>
<path d="M7160 5225 c0 -27 3 -45 7 -41 7 7 5 77 -3 85 -2 2 -4 -17 -4 -44z"/>
<path d="M6972 5113 c-1 -30 1 -34 8 -18 11 26 12 55 2 55 -4 0 -9 -17 -10
-37z"/>
<path d="M4931 5124 c0 -11 3 -14 6 -6 3 7 2 16 -1 19 -3 4 -6 -2 -5 -13z"/>
<path d="M7042 5110 c0 -19 2 -27 5 -17 2 9 2 25 0 35 -3 9 -5 1 -5 -18z"/>
<path d="M7183 5090 c0 -30 2 -43 4 -27 2 15 2 39 0 55 -2 15 -4 2 -4 -28z"/>
<path d="M6772 5055 c0 -16 2 -22 5 -12 2 9 2 23 0 30 -3 6 -5 -1 -5 -18z"/>
<path d="M7127 5030 c3 -11 7 -20 9 -20 2 0 4 9 4 20 0 11 -4 20 -9 20 -5 0
-7 -9 -4 -20z"/>
<path d="M990 5011 c0 -17 5 -33 10 -36 6 -4 10 8 10 29 0 20 -4 36 -10 36 -5
0 -10 -13 -10 -29z"/>
<path d="M6836 5013 c-4 -16 -2 -48 3 -73 9 -44 9 -43 10 28 1 75 -3 91 -13
45z"/>
<path d="M6942 4990 c0 -19 2 -27 5 -17 2 9 2 25 0 35 -3 9 -5 1 -5 -18z"/>
<path d="M7062 4980 c0 -19 2 -27 5 -17 2 9 2 25 0 35 -3 9 -5 1 -5 -18z"/>
<path d="M6732 4980 c0 -14 2 -19 5 -12 2 6 2 18 0 25 -3 6 -5 1 -5 -13z"/>
<path d="M7261 4978 c-1 -15 4 -30 9 -33 12 -7 12 12 0 40 -8 18 -9 17 -9 -7z"/>
<path d="M4901 4928 c1 -47 3 -57 9 -38 12 36 12 88 0 95 -6 4 -10 -17 -9 -57z"/>
<path d="M7082 4895 c0 -16 2 -22 5 -12 2 9 2 23 0 30 -3 6 -5 -1 -5 -18z"/>
<path d="M5011 4894 c0 -11 3 -14 6 -6 3 7 2 16 -1 19 -3 4 -6 -2 -5 -13z"/>
<path d="M970 4805 c0 -25 5 -45 10 -45 6 0 10 20 10 45 0 25 -4 45 -10 45 -5
0 -10 -20 -10 -45z"/>
<path d="M6753 4795 c0 -22 2 -30 4 -17 2 12 2 30 0 40 -3 9 -5 -1 -4 -23z"/>
<path d="M7160 4786 c0 -19 5 -38 10 -41 6 -4 10 10 10 34 0 23 -4 41 -10 41
-5 0 -10 -15 -10 -34z"/>
<path d="M6970 4740 c0 -39 3 -51 10 -40 5 8 10 26 10 40 0 14 -5 32 -10 40
-7 11 -10 -1 -10 -40z"/>
<path d="M7042 4725 c0 -16 2 -22 5 -12 2 9 2 23 0 30 -3 6 -5 -1 -5 -18z"/>
<path d="M6771 4681 c-1 -27 2 -32 11 -23 8 8 8 17 0 34 -10 22 -11 21 -11
-11z"/>
<path d="M6933 4674 c-3 -8 -1 -25 5 -37 10 -20 11 -18 11 16 1 39 -5 48 -16
21z"/>
<path d="M7061 4626 c-1 -26 2 -37 9 -30 6 6 6 21 1 39 -9 30 -9 30 -10 -9z"/>
<path d="M943 4613 c1 -21 7 -37 12 -35 14 3 13 72 -1 72 -7 0 -11 -14 -11
-37z"/>
<path d="M6842 4630 c0 -14 2 -19 5 -12 2 6 2 18 0 25 -3 6 -5 1 -5 -13z"/>
<path d="M6990 4640 c0 -5 4 -10 9 -10 6 0 13 5 16 10 3 6 -1 10 -9 10 -9 0
-16 -4 -16 -10z"/>
<path d="M7262 4618 c1 -21 5 -38 10 -38 11 0 10 41 -2 60 -7 11 -9 5 -8 -22z"/>
<path d="M6030 4629 c0 -5 5 -7 10 -4 6 3 10 8 10 11 0 2 -4 4 -10 4 -5 0 -10
-5 -10 -11z"/>
<path d="M4927 4603 c-4 -3 -7 -16 -6 -27 0 -19 1 -19 10 3 10 24 8 36 -4 24z"/>
<path d="M5020 4575 c0 -5 5 -17 10 -25 5 -8 10 -10 10 -5 0 6 -5 17 -10 25
-5 8 -10 11 -10 5z"/>
<path d="M4030 4545 c0 -9 -7 -18 -15 -21 -25 -10 -17 -24 15 -24 28 0 29 -2
18 -20 -10 -15 -10 -22 0 -32 6 -6 12 -23 12 -37 l0 -25 22 22 22 22 28 -33
c15 -17 28 -26 28 -19 0 7 4 11 9 8 4 -3 13 6 19 19 10 21 8 28 -13 51 -18 19
-23 34 -19 48 10 34 10 37 -8 49 -14 9 -23 9 -40 -2 -16 -10 -23 -10 -26 -2
-6 17 -52 14 -52 -4z m47 -107 c-3 -8 -6 -5 -6 6 -1 11 2 17 5 13 3 -3 4 -12
1 -19z m103 -8 c0 -4 -7 -13 -15 -20 -13 -11 -15 -8 -15 13 0 19 4 25 15 21 8
-4 15 -10 15 -14z"/>
<path d="M4170 4490 c-13 -8 -13 -10 2 -10 9 0 18 -6 20 -12 3 -9 9 -8 21 4
15 14 15 17 1 22 -21 8 -26 7 -44 -4z"/>
<path d="M4237 4473 c-4 -3 -7 -11 -7 -17 0 -6 5 -5 12 2 6 6 9 14 7 17 -3 3
-9 2 -12 -2z"/>
<path d="M4907 4466 c-4 -10 -7 -30 -6 -44 1 -25 1 -25 10 6 11 37 7 67 -4 38z"/>
<path d="M932 4415 c0 -55 1 -57 9 -27 7 22 7 43 0 60 -8 23 -9 17 -9 -33z"/>
<path d="M4001 4454 c0 -11 3 -14 6 -6 3 7 2 16 -1 19 -3 4 -6 -2 -5 -13z"/>
<path d="M6155 4440 c3 -5 8 -10 11 -10 2 0 4 5 4 10 0 6 -5 10 -11 10 -5 0
-7 -4 -4 -10z"/>
<path d="M6970 4411 c0 -6 5 -13 10 -16 6 -3 10 1 10 9 0 9 -4 16 -10 16 -5 0
-10 -4 -10 -9z"/>
<path d="M7161 4393 c0 -25 1 -26 9 -8 12 27 12 35 0 35 -5 0 -10 -12 -9 -27z"/>
<path d="M5062 4380 c0 -14 2 -19 5 -12 2 6 2 18 0 25 -3 6 -5 1 -5 -13z"/>
<path d="M6943 4355 c0 -22 2 -30 4 -17 2 12 2 30 0 40 -3 9 -5 -1 -4 -23z"/>
<path d="M7183 4295 c0 -27 2 -38 4 -22 2 15 2 37 0 50 -2 12 -4 0 -4 -28z"/>
<path d="M7061 4280 c0 -32 2 -40 9 -29 5 9 6 28 0 45 -8 27 -8 26 -9 -16z"/>
<path d="M4702 4290 c0 -14 2 -19 5 -12 2 6 2 18 0 25 -3 6 -5 1 -5 -13z"/>
<path d="M6830 4288 c0 -13 5 -30 10 -38 7 -11 10 -5 10 23 0 20 -4 37 -10 37
-5 0 -10 -10 -10 -22z"/>
<path d="M5041 4284 c0 -11 3 -14 6 -6 3 7 2 16 -1 19 -3 4 -6 -2 -5 -13z"/>
<path d="M907 4247 c-6 -42 3 -108 14 -101 12 7 12 121 0 128 -5 3 -11 -9 -14
-27z"/>
<path d="M7260 4228 c0 -21 5 -38 10 -38 13 0 13 40 0 60 -7 11 -10 5 -10 -22z"/>
<path d="M5160 4235 c0 -20 17 -28 23 -11 3 8 -1 17 -9 20 -8 3 -14 -1 -14 -9z"/>
<path d="M4802 4190 c0 -14 2 -19 5 -12 2 6 2 18 0 25 -3 6 -5 1 -5 -13z"/>
<path d="M5114 4186 c-3 -8 -4 -23 -2 -32 2 -14 6 -12 15 9 8 16 9 29 3 32 -6
4 -13 -1 -16 -9z"/>
<path d="M4742 4165 c0 -16 2 -22 5 -12 2 9 2 23 0 30 -3 6 -5 -1 -5 -18z"/>
<path d="M6971 4110 c0 -35 3 -50 8 -40 5 8 5 33 1 55 -8 40 -8 40 -9 -15z"/>
<path d="M7081 4144 c0 -11 3 -14 6 -6 3 7 2 16 -1 19 -3 4 -6 -2 -5 -13z"/>
<path d="M4920 4059 c0 -31 4 -48 10 -44 6 3 10 26 10 51 0 24 -4 44 -10 44
-5 0 -10 -23 -10 -51z"/>
<path d="M5025 4101 c-3 -5 -1 -12 5 -16 5 -3 10 1 10 9 0 18 -6 21 -15 7z"/>
<path d="M5098 4105 c-3 -6 -9 -26 -12 -45 l-7 -35 16 34 c14 32 17 68 3 46z"/>
<path d="M7232 4060 c0 -19 2 -27 5 -17 2 9 2 25 0 35 -3 9 -5 1 -5 -18z"/>
<path d="M887 4074 c-10 -11 -9 -112 2 -119 13 -8 25 82 15 106 -5 11 -13 17
-17 13z"/>
<path d="M4741 4064 c0 -11 3 -14 6 -6 3 7 2 16 -1 19 -3 4 -6 -2 -5 -13z"/>
<path d="M6131 4064 c0 -11 3 -14 6 -6 3 7 2 16 -1 19 -3 4 -6 -2 -5 -13z"/>
<path d="M4842 4040 c0 -19 2 -27 5 -17 2 9 2 25 0 35 -3 9 -5 1 -5 -18z"/>
<path d="M7035 4040 c-3 -16 -2 -37 4 -47 8 -14 10 -8 11 30 0 54 -5 60 -15
17z"/>
<path d="M4792 4040 c0 -14 2 -19 5 -12 2 6 2 18 0 25 -3 6 -5 1 -5 -13z"/>
<path d="M7097 4043 c-10 -9 -9 -41 1 -47 4 -2 9 9 10 25 2 30 0 34 -11 22z"/>
<path d="M1873 3980 c0 -36 2 -50 4 -32 2 17 2 47 0 65 -2 17 -4 3 -4 -33z"/>
<path d="M7300 4030 c0 -5 5 -10 10 -10 6 0 10 5 10 10 0 6 -4 10 -10 10 -5 0
-10 -4 -10 -10z"/>
<path d="M6870 3983 c0 -18 5 -33 10 -33 13 0 13 30 0 50 -7 11 -10 7 -10 -17z"/>
<path d="M4842 3975 c0 -16 2 -22 5 -12 2 9 2 23 0 30 -3 6 -5 -1 -5 -18z"/>
<path d="M6935 3981 c-3 -10 -1 -29 4 -42 9 -21 10 -19 10 19 1 45 -4 54 -14
23z"/>
<path d="M5170 3971 c-13 -26 -13 -31 4 -31 7 0 16 11 18 25 6 30 -7 33 -22 6z"/>
<path d="M7060 3921 c0 -23 5 -41 10 -41 6 0 10 15 10 34 0 19 -4 38 -10 41
-6 4 -10 -10 -10 -34z"/>
<path d="M7301 3934 c0 -11 3 -14 6 -6 3 7 2 16 -1 19 -3 4 -6 -2 -5 -13z"/>
<path d="M4899 3925 c0 -11 -2 -30 -3 -43 -3 -29 18 -23 22 6 2 12 -1 29 -7
39 -10 17 -10 17 -12 -2z"/>
<path d="M7132 3920 c0 -14 2 -19 5 -12 2 6 2 18 0 25 -3 6 -5 1 -5 -13z"/>
<path d="M7251 3904 c0 -11 3 -14 6 -6 3 7 2 16 -1 19 -3 4 -6 -2 -5 -13z"/>
<path d="M4782 3870 c0 -19 2 -27 5 -17 2 9 2 25 0 35 -3 9 -5 1 -5 -18z"/>
<path d="M5124 3879 c-3 -6 -1 -16 5 -22 8 -8 11 -5 11 11 0 24 -5 28 -16 11z"/>
<path d="M7320 3870 c0 -11 5 -20 10 -20 6 0 10 9 10 20 0 11 -4 20 -10 20 -5
0 -10 -9 -10 -20z"/>
<path d="M866 3864 c-9 -25 -7 -72 4 -79 6 -4 10 13 10 44 0 53 -4 62 -14 35z"/>
<path d="M7260 3817 c0 -30 4 -46 10 -42 13 8 13 55 0 75 -7 11 -10 2 -10 -33z"/>
<path d="M7081 3818 c-1 -21 4 -38 9 -38 11 0 11 14 0 50 -7 22 -8 21 -9 -12z"/>
<path d="M5102 3788 c-7 -7 -12 -39 -12 -77 1 -79 14 -64 24 27 7 66 7 69 -12
50z"/>
<path d="M6921 3774 c0 -11 3 -14 6 -6 3 7 2 16 -1 19 -3 4 -6 -2 -5 -13z"/>
<path d="M6970 3751 c0 -6 5 -13 10 -16 6 -3 10 1 10 9 0 9 -4 16 -10 16 -5 0
-10 -4 -10 -9z"/>
<path d="M7042 3730 c0 -14 2 -19 5 -12 2 6 2 18 0 25 -3 6 -5 1 -5 -13z"/>
<path d="M7161 3695 c1 -46 1 -48 11 -22 7 20 7 35 0 50 -9 18 -11 14 -11 -28z"/>
<path d="M6930 3691 c0 -17 5 -33 10 -36 6 -4 10 8 10 29 0 20 -4 36 -10 36
-5 0 -10 -13 -10 -29z"/>
<path d="M5217 3693 c-4 -3 -7 -18 -7 -32 0 -28 14 -19 25 17 6 21 -4 30 -18
15z"/>
<path d="M840 3627 c1 -57 2 -60 15 -43 20 26 20 92 0 100 -12 4 -15 -6 -15
-57z"/>
<path d="M6990 3638 c0 -21 2 -38 4 -38 9 0 12 50 5 62 -6 8 -9 -1 -9 -24z"/>
<path d="M7061 3631 c-1 -32 2 -42 10 -34 7 7 7 21 1 44 l-10 34 -1 -44z"/>
<path d="M7225 3647 c-4 -10 -5 -21 -1 -24 10 -10 18 4 13 24 -4 17 -4 17 -12
0z"/>
<path d="M4926 3634 c-10 -25 -7 -74 4 -74 6 0 10 20 10 45 0 47 -4 55 -14 29z"/>
<path d="M4801 3614 c0 -11 3 -14 6 -6 3 7 2 16 -1 19 -3 4 -6 -2 -5 -13z"/>
<path d="M5160 3609 c0 -5 5 -7 10 -4 6 3 10 8 10 11 0 2 -4 4 -10 4 -5 0 -10
-5 -10 -11z"/>
<path d="M5141 3572 c-1 -13 -5 -21 -11 -17 -5 3 -8 -14 -7 -44 1 -27 5 -47 8
-45 11 6 17 54 8 54 -5 0 -9 5 -9 11 0 5 4 8 9 4 15 -9 22 11 12 37 l-10 23 0
-23z"/>
<path d="M7131 3574 c0 -11 3 -14 6 -6 3 7 2 16 -1 19 -3 4 -6 -2 -5 -13z"/>
<path d="M4980 3535 c0 -8 -4 -15 -10 -15 -15 0 -12 -36 4 -49 12 -10 15 -4
18 34 2 25 0 45 -4 45 -5 0 -8 -7 -8 -15z"/>
<path d="M7082 3520 c0 -14 2 -19 5 -12 2 6 2 18 0 25 -3 6 -5 1 -5 -13z"/>
<path d="M6130 3515 c0 -8 2 -15 4 -15 2 0 6 7 10 15 3 8 1 15 -4 15 -6 0 -10
-7 -10 -15z"/>
<path d="M6977 3523 c-11 -10 -8 -83 3 -83 6 0 10 20 10 45 0 46 -2 50 -13 38z"/>
<path d="M7320 3498 c0 -18 5 -40 11 -48 8 -11 9 -4 7 27 -2 24 1 45 7 47 5 2
2 5 -7 5 -14 1 -18 -7 -18 -31z"/>
<path d="M7036 3475 c1 -63 14 -69 14 -7 0 29 -3 52 -7 52 -5 0 -8 -20 -7 -45z"/>
<path d="M821 3408 l1 -93 14 50 c15 54 18 94 8 119 -15 39 -24 9 -23 -76z"/>
<path d="M4892 3470 c0 -19 2 -27 5 -17 2 9 2 25 0 35 -3 9 -5 1 -5 -18z"/>
<path d="M7260 3473 c0 -10 5 -25 10 -33 7 -11 10 -7 10 18 0 17 -4 32 -10 32
-5 0 -10 -8 -10 -17z"/>
<path d="M6242 3460 c0 -14 2 -19 5 -12 2 6 2 18 0 25 -3 6 -5 1 -5 -13z"/>
<path d="M5026 3461 c-4 -5 -2 -20 3 -33 9 -21 10 -21 10 10 1 32 -3 39 -13
23z"/>
<path d="M5930 3402 l5 -47 3 39 c2 21 0 42 -5 47 -4 4 -6 -13 -3 -39z"/>
<path d="M5112 3420 c0 -14 2 -19 5 -12 2 6 2 18 0 25 -3 6 -5 1 -5 -13z"/>
<path d="M6992 3370 c0 -19 2 -27 5 -17 2 9 2 25 0 35 -3 9 -5 1 -5 -18z"/>
<path d="M7061 3368 c-1 -21 4 -38 9 -38 11 0 11 14 0 50 -7 22 -8 21 -9 -12z"/>
<path d="M5176 3359 c-26 -31 -35 -69 -16 -69 6 0 13 8 16 18 5 14 19 48 32
75 8 16 -8 5 -32 -24z"/>
<path d="M7167 3383 c-11 -10 -8 -43 3 -43 6 0 10 11 10 25 0 26 -2 29 -13 18z"/>
<path d="M7226 3361 c-5 -19 -4 -36 1 -40 6 -3 16 -48 23 -98 8 -51 18 -93 22
-93 11 0 10 47 -2 84 -5 17 -16 65 -23 106 -13 70 -14 73 -21 41z"/>
<path d="M5013 3320 c0 -25 2 -35 4 -22 2 12 2 32 0 45 -2 12 -4 2 -4 -23z"/>
<path d="M4773 3295 c0 -22 2 -30 4 -17 2 12 2 30 0 40 -3 9 -5 -1 -4 -23z"/>
<path d="M6220 3316 c0 -8 5 -18 10 -21 6 -3 10 1 10 9 0 8 -4 18 -10 21 -5 3
-10 -1 -10 -9z"/>
<path d="M7131 3314 c0 -11 3 -14 6 -6 3 7 2 16 -1 19 -3 4 -6 -2 -5 -13z"/>
<path d="M7280 3320 c0 -5 5 -10 10 -10 6 0 10 5 10 10 0 6 -4 10 -10 10 -5 0
-10 -4 -10 -10z"/>
<path d="M4934 3298 c-18 -30 -43 -595 -26 -584 5 3 9 67 10 142 0 75 4 139 9
143 10 6 28 311 19 311 -3 0 -8 -5 -12 -12z"/>
<path d="M5093 3235 c0 -44 2 -61 4 -37 2 23 2 59 0 80 -2 20 -4 1 -4 -43z"/>
<path d="M6130 3271 c0 -12 5 -21 10 -21 6 0 10 6 10 14 0 8 -4 18 -10 21 -5
3 -10 -3 -10 -14z"/>
<path d="M5133 3235 c-7 -27 -8 -56 -3 -64 6 -11 10 -1 15 31 10 67 1 92 -12
33z"/>
<path d="M6241 3264 c0 -11 3 -14 6 -6 3 7 2 16 -1 19 -3 4 -6 -2 -5 -13z"/>
<path d="M5004 3262 c-6 -4 -13 -44 -16 -90 -3 -52 -1 -79 5 -73 5 5 10 31 12
58 1 26 6 63 10 81 8 34 7 36 -11 24z"/>
<path d="M7080 3241 c0 -12 5 -21 10 -21 6 0 10 6 10 14 0 8 -4 18 -10 21 -5
3 -10 -3 -10 -14z"/>
<path d="M6261 3204 c0 -11 3 -14 6 -6 3 7 2 16 -1 19 -3 4 -6 -2 -5 -13z"/>
<path d="M7037 3204 c-3 -6 1 -23 9 -38 19 -37 18 -47 -3 -40 -13 4 -14 3 -5
-3 7 -6 15 -34 18 -64 2 -30 9 -55 14 -57 6 -2 10 -11 10 -20 0 -8 2 -13 5
-10 7 6 -14 168 -25 193 -5 11 -10 27 -12 35 -3 8 -7 10 -11 4z"/>
<path d="M7160 3170 c-4 -43 1 -85 11 -94 11 -12 10 58 -1 94 l-8 25 -2 -25z"/>
<path d="M4671 3180 c-8 -15 -8 -80 0 -85 13 -9 11 -55 -2 -55 -6 0 -9 9 -6
20 3 11 1 18 -4 14 -15 -9 -10 -44 6 -44 8 0 15 -4 15 -10 0 -5 -7 -10 -16
-10 -8 0 -12 -5 -9 -10 4 -6 11 -8 16 -5 5 4 9 -1 9 -9 0 -8 -8 -17 -17 -19
-15 -4 -15 -5 -2 -6 13 -1 15 -10 8 -58 -4 -32 -6 -71 -4 -88 8 -72 7 -187 -2
-193 -13 -9 -22 -64 -29 -184 -4 -54 -10 -95 -15 -92 -5 3 -9 -105 -9 -250 0
-164 -4 -256 -10 -256 -5 0 -11 26 -12 58 l-1 57 -6 -50 -7 -50 -8 45 c-5 25
-14 48 -20 53 -8 5 -7 10 4 17 13 9 13 11 0 20 -8 5 -10 10 -4 10 7 0 9 11 6
27 -5 25 -6 25 -13 8 -12 -30 -11 -117 1 -110 6 4 3 -9 -6 -28 -16 -34 -16
-34 23 -93 22 -32 51 -85 64 -116 27 -64 41 -74 35 -25 -2 17 -4 61 -5 96 -1
54 -3 62 -17 57 -13 -5 -15 -2 -10 16 3 13 6 28 7 33 0 6 4 1 9 -10 5 -12 9
50 8 160 0 200 10 364 23 381 5 6 9 22 8 35 0 13 3 40 6 59 10 46 12 582 3
595 -3 6 -8 31 -11 55 -2 25 -5 43 -6 40z"/>
<path d="M6978 3175 c-4 -6 -3 -26 1 -45 5 -27 8 -30 12 -15 7 25 -4 74 -13
60z"/>
<path d="M7097 3174 c-4 -4 -7 -19 -6 -33 0 -16 3 -20 6 -11 3 8 11 18 17 22
8 5 8 10 0 18 -6 6 -13 7 -17 4z"/>
<path d="M7195 3163 c3 -8 5 -17 5 -19 0 -2 5 -4 10 -4 6 0 10 8 10 18 0 10
-7 19 -15 19 -10 0 -14 -6 -10 -14z"/>
<path d="M7327 3163 c-2 -5 0 -21 4 -38 7 -29 7 -29 8 8 1 35 -3 46 -12 30z"/>
<path d="M560 3150 c0 -5 10 -10 23 -10 18 0 19 2 7 10 -19 13 -30 13 -30 0z"/>
<path d="M765 3140 c-3 -5 3 -10 14 -10 12 0 21 5 21 10 0 6 -6 10 -14 10 -8
0 -18 -4 -21 -10z"/>
<path d="M4807 3136 c-8 -21 -11 -876 -3 -883 3 -4 7 29 7 73 1 43 3 95 4 114
4 85 6 702 2 706 -2 3 -7 -2 -10 -10z"/>
<path d="M5132 3125 c0 -16 2 -22 5 -12 2 9 2 23 0 30 -3 6 -5 -1 -5 -18z"/>
<path d="M935 3130 c-3 -5 1 -10 10 -10 9 0 13 5 10 10 -3 6 -8 10 -10 10 -2
0 -7 -4 -10 -10z"/>
<path d="M537 3113 c3 -8 12 -12 20 -9 8 3 17 6 19 6 2 0 4 4 4 9 0 5 -11 9
-24 9 -17 0 -23 -5 -19 -15z"/>
<path d="M1590 3109 c0 -5 5 -7 10 -4 6 3 10 8 10 11 0 2 -4 4 -10 4 -5 0 -10
-5 -10 -11z"/>
<path d="M7220 3066 c0 -25 5 -48 10 -51 6 -4 10 11 10 39 0 25 -4 48 -10 51
-6 4 -10 -11 -10 -39z"/>
<path d="M898 3093 c12 -2 32 -2 45 0 12 2 2 4 -23 4 -25 0 -35 -2 -22 -4z"/>
<path d="M1250 3070 c0 -5 6 -10 14 -10 8 0 18 5 21 10 3 6 -3 10 -14 10 -12
0 -21 -4 -21 -10z"/>
<path d="M1561 3064 c0 -11 3 -14 6 -6 3 7 2 16 -1 19 -3 4 -6 -2 -5 -13z"/>
<path d="M6991 3054 c0 -11 3 -14 6 -6 3 7 2 16 -1 19 -3 4 -6 -2 -5 -13z"/>
<path d="M7283 3020 c0 -30 2 -43 4 -27 2 15 2 39 0 55 -2 15 -4 2 -4 -28z"/>
<path d="M7349 3048 c-2 -13 -1 -43 2 -68 5 -41 6 -39 7 23 2 67 -2 87 -9 45z"/>
<path d="M1200 3049 c0 -5 5 -7 10 -4 6 3 10 8 10 11 0 2 -4 4 -10 4 -5 0 -10
-5 -10 -11z"/>
<path d="M7120 3045 c-7 -9 -8 -15 -2 -15 5 0 8 -8 5 -19 -3 -10 0 -22 6 -25
7 -5 11 7 11 33 0 45 -2 48 -20 26z"/>
<path d="M5191 3018 c-27 -91 -29 -108 -36 -418 -5 -204 -10 -273 -21 -298 -9
-18 -15 -56 -14 -85 3 -90 -3 -273 -7 -249 -7 36 -25 21 -29 -23 -3 -43 -15
-236 -17 -298 -1 -20 -6 -37 -12 -37 -13 0 -13 100 -1 118 6 8 6 16 0 20 -10
8 -12 31 -3 47 3 6 4 26 2 45 -6 53 -5 81 5 130 6 25 13 101 16 170 5 100 4
121 -6 105 -12 -19 -12 -19 -19 5 -3 14 -7 -29 -9 -95 -2 -154 -4 -172 -12
-180 -11 -11 -4 338 7 355 5 8 8 25 6 38 -1 12 2 22 8 22 12 0 15 -16 12 -75
-2 -30 1 -36 8 -25 6 8 11 32 11 52 0 20 5 40 10 43 13 8 13 45 1 45 -5 0 -16
-7 -25 -15 -8 -8 -17 -15 -20 -15 -3 0 -6 45 -6 100 0 55 -4 100 -9 100 -10 0
-21 -98 -21 -189 0 -36 -4 -93 -9 -126 -8 -55 -17 -190 -26 -413 -4 -96 -17
-129 -25 -62 -3 25 -4 49 -1 54 3 8 1 131 -4 201 -1 17 4 50 12 75 18 57 32
490 15 490 -14 0 -20 -50 -28 -242 -3 -93 -10 -168 -15 -168 -5 0 -9 -132 -9
-295 0 -190 -4 -295 -10 -295 -9 0 -16 377 -10 574 1 55 -1 76 -9 72 -6 -4
-11 -35 -11 -69 0 -82 -19 -114 -21 -37 -1 30 -3 60 -4 65 -2 6 -4 37 -5 70
l-3 60 -9 -70 c-11 -89 -25 -577 -18 -630 l6 -40 7 51 c4 28 5 59 1 68 -3 9
-1 16 5 16 6 0 11 16 11 36 0 21 -4 33 -10 29 -6 -4 -10 17 -10 57 0 43 3 58
10 48 6 -10 10 16 13 80 1 52 3 -11 4 -140 1 -130 -3 -224 -7 -210 -7 22 -8
21 -9 -13 -1 -23 3 -36 9 -32 6 4 10 -5 10 -20 0 -15 4 -24 10 -20 6 3 10 3
10 -2 0 -11 51 -34 61 -27 5 3 9 -6 9 -19 0 -13 11 -33 24 -44 l24 -21 5 36
c2 21 5 129 6 242 1 112 4 207 7 209 3 3 9 -1 14 -9 5 -8 5 -17 0 -20 -10 -6
-17 -496 -7 -506 5 -5 12 -2 17 6 6 10 10 2 12 -25 2 -28 8 -41 21 -43 15 -3
17 6 17 92 0 52 4 98 10 101 6 4 10 -46 10 -144 0 -151 4 -186 22 -175 10 7
34 -19 48 -53 17 -40 30 -25 30 35 1 31 7 93 15 137 18 101 19 165 3 165 -8 0
-9 3 -3 8 26 19 44 84 46 164 0 47 7 92 14 103 13 22 35 189 41 310 1 39 6 78
9 88 4 10 3 49 -3 88 -6 39 -8 78 -5 87 4 10 2 13 -3 9 -5 -5 -9 -27 -10 -50
-4 -82 -17 -166 -25 -161 -5 3 -9 -19 -9 -49 0 -75 -11 -148 -21 -141 -5 3 -9
-4 -9 -16 0 -12 -4 -29 -9 -38 -12 -22 -29 -185 -34 -319 -3 -60 -10 -109 -17
-117 -6 -8 -9 -24 -5 -35 3 -12 3 -53 -2 -93 l-7 -73 -7 55 c-3 30 -2 60 3 66
4 6 4 39 0 73 -5 33 -6 61 -2 61 11 0 8 34 -4 43 -7 5 -6 11 6 17 13 8 15 20
11 64 -7 64 6 214 16 197 5 -7 11 77 15 186 5 141 11 206 21 227 8 16 15 48
15 71 0 57 10 106 21 99 5 -3 9 6 9 20 0 14 4 26 10 26 6 0 6 10 -1 27 -5 15
-7 38 -4 51 4 15 2 21 -5 17 -5 -3 -10 -15 -10 -26 0 -10 -4 -19 -9 -19 -6 0
-11 -15 -13 -32 -2 -20 -8 -32 -16 -30 -18 3 -20 -10 -26 -123 -2 -55 -10
-125 -16 -155 -7 -30 -12 -92 -11 -137 0 -53 -5 -92 -14 -110 -14 -27 -15 -23
-17 62 -3 130 1 278 8 295 11 25 12 48 29 490 7 168 8 180 27 218 15 29 14 42
-3 42 -4 0 -12 -15 -18 -32z m-354 -1000 c-2 -13 -4 -3 -4 22 0 25 2 35 4 23
2 -13 2 -33 0 -45z m309 -315 c-2 -70 -5 -164 -6 -208 -4 -159 -18 -32 -19
168 -1 178 1 197 14 183 13 -12 15 -38 11 -143z m-309 85 c-3 -8 -6 -5 -6 6
-1 11 2 17 5 13 3 -3 4 -12 1 -19z m137 -79 c-3 -76 -22 -85 -22 -10 1 40 5
61 13 61 8 0 11 -17 9 -51z m86 -129 c0 -5 -4 -10 -10 -10 -5 0 -10 5 -10 10
0 6 5 10 10 10 6 0 10 -4 10 -10z"/>
<path d="M6130 3040 c0 -5 5 -10 11 -10 5 0 7 5 4 10 -3 6 -8 10 -11 10 -2 0
-4 -4 -4 -10z"/>
<path d="M7181 3003 c0 -29 3 -53 7 -53 4 0 6 17 4 38 -6 64 -10 69 -11 15z"/>
<path d="M6997 3013 c-9 -21 -9 -27 1 -31 7 -2 10 -14 6 -30 -4 -19 -3 -23 4
-13 8 11 11 10 16 -5 3 -10 3 -1 0 21 -4 22 -6 50 -6 63 0 29 -6 28 -21 -5z"/>
<path d="M6250 3011 c0 -6 5 -13 10 -16 6 -3 10 1 10 9 0 9 -4 16 -10 16 -5 0
-10 -4 -10 -9z"/>
<path d="M1230 3000 c0 -5 4 -10 9 -10 6 0 13 5 16 10 3 6 -1 10 -9 10 -9 0
-16 -4 -16 -10z"/>
<path d="M7302 2980 c0 -19 2 -27 5 -17 2 9 2 25 0 35 -3 9 -5 1 -5 -18z"/>
<path d="M5020 2975 c1 -16 -2 -62 -6 -101 -8 -85 4 -266 17 -258 12 7 11 355
-1 374 -8 12 -10 8 -10 -15z"/>
<path d="M1290 2970 c0 -5 7 -10 16 -10 8 0 12 5 9 10 -3 6 -10 10 -16 10 -5
0 -9 -4 -9 -10z"/>
<path d="M1338 2963 c7 -3 16 -2 19 1 4 3 -2 6 -13 5 -11 0 -14 -3 -6 -6z"/>
<path d="M6344 2950 c3 -14 6 -35 6 -47 0 -13 5 -23 10 -23 15 0 12 34 -6 66
-15 27 -15 27 -10 4z"/>
<path d="M6190 2950 c0 -5 5 -10 11 -10 5 0 7 5 4 10 -3 6 -8 10 -11 10 -2 0
-4 -4 -4 -10z"/>
<path d="M7081 2920 c0 -36 2 -41 10 -27 7 12 7 27 0 45 -9 25 -9 24 -10 -18z"/>
<path d="M6280 2930 c0 -5 5 -10 10 -10 6 0 10 5 10 10 0 6 -4 10 -10 10 -5 0
-10 -4 -10 -10z"/>
<path d="M7247 2933 c-4 -6 -3 -23 3 -38 5 -14 10 -51 10 -81 0 -33 4 -54 11
-54 8 0 10 17 6 53 -10 84 -22 133 -30 120z"/>
<path d="M7140 2906 c0 -14 5 -26 10 -26 6 0 10 9 10 19 0 11 -4 23 -10 26 -6
4 -10 -5 -10 -19z"/>
<path d="M4961 2904 c0 -11 3 -14 6 -6 3 7 2 16 -1 19 -3 4 -6 -2 -5 -13z"/>
<path d="M7300 2906 c0 -8 -3 -23 -6 -33 -4 -13 -3 -14 4 -5 6 10 11 1 16 -30
9 -56 13 -81 24 -150 5 -32 12 -61 17 -65 8 -9 1 64 -15 142 -5 28 -13 72 -16
98 -6 44 -24 77 -24 43z"/>
<path d="M6233 2896 c9 -9 13 -26 10 -43 -5 -27 -5 -27 11 -8 8 11 16 23 16
27 0 10 -30 38 -41 38 -6 0 -4 -6 4 -14z"/>
<path d="M4582 2860 c0 -19 2 -27 5 -17 2 9 2 25 0 35 -3 9 -5 1 -5 -18z"/>
<path d="M7196 2882 c-2 -4 -1 -14 5 -22 7 -12 9 -10 9 8 0 23 -5 28 -14 14z"/>
<path d="M5271 2803 c3 -91 8 -111 20 -91 13 20 11 128 -2 128 -6 0 -9 9 -6
20 3 11 1 20 -5 20 -6 0 -9 -31 -7 -77z"/>
<path d="M6078 2855 c2 -14 6 -25 8 -25 2 0 4 11 4 25 0 14 -4 25 -9 25 -4 0
-6 -11 -3 -25z"/>
<path d="M6321 2842 c-1 -18 6 -40 14 -49 14 -14 15 -13 9 13 -4 16 -11 38
-15 49 -6 16 -8 14 -8 -13z"/>
<path d="M7090 2827 c0 -14 7 -38 15 -53 l16 -29 -3 49 c-3 51 -28 80 -28 33z"/>
<path d="M7160 2786 c0 -37 4 -66 10 -66 6 0 10 -28 10 -64 0 -36 4 -67 9 -70
14 -9 17 93 4 117 -7 12 -12 48 -13 79 0 31 -4 60 -10 63 -6 4 -10 -18 -10
-59z"/>
<path d="M6263 2823 c-3 -10 -8 -21 -10 -25 -2 -5 0 -8 5 -8 5 0 12 11 14 25
6 29 0 33 -9 8z"/>
<path d="M7032 2767 c-1 -23 2 -49 8 -57 7 -11 10 -1 10 37 0 62 -16 80 -18
20z"/>
<path d="M1473 2793 c9 -2 25 -2 35 0 9 3 1 5 -18 5 -19 0 -27 -2 -17 -5z"/>
<path d="M1728 2793 c6 -2 18 -2 25 0 6 3 1 5 -13 5 -14 0 -19 -2 -12 -5z"/>
<path d="M4751 2784 c0 -11 3 -14 6 -6 3 7 2 16 -1 19 -3 4 -6 -2 -5 -13z"/>
<path d="M7220 2756 c0 -25 5 -46 10 -46 6 0 10 18 10 39 0 22 -4 43 -10 46
-6 4 -10 -12 -10 -39z"/>
<path d="M6130 2779 c0 -6 9 -22 20 -36 19 -25 20 -25 20 -4 0 11 -4 21 -10
21 -5 0 -10 7 -10 15 0 8 -4 15 -10 15 -5 0 -10 -5 -10 -11z"/>
<path d="M1269 2770 c-20 -13 -5 -22 21 -12 18 7 20 10 8 14 -8 4 -21 2 -29
-2z"/>
<path d="M6285 2760 c-3 -5 -1 -10 4 -10 6 0 11 5 11 10 0 6 -2 10 -4 10 -3 0
-8 -4 -11 -10z"/>
<path d="M6340 2743 c0 -11 7 -20 15 -20 8 0 15 4 15 7 0 4 -7 13 -15 20 -12
10 -15 9 -15 -7z"/>
<path d="M4305 2697 c-20 -54 -26 -185 -14 -308 5 -53 11 -74 30 -93 13 -14
29 -26 34 -26 14 0 8 368 -7 397 -7 15 -8 27 -1 35 7 9 5 18 -7 29 -16 15 -18
13 -35 -34z"/>
<path d="M4751 2734 c0 -11 3 -14 6 -6 3 7 2 16 -1 19 -3 4 -6 -2 -5 -13z"/>
<path d="M7283 2700 c-2 -59 21 -188 30 -173 9 15 -3 123 -14 123 -4 0 -10 21
-12 48 l-3 47 -1 -45z"/>
<path d="M7118 2714 c5 -9 7 -37 4 -63 -3 -39 -1 -49 13 -55 16 -6 17 -2 11
31 -3 21 -6 53 -6 71 0 22 -5 32 -15 32 -12 0 -14 -4 -7 -16z"/>
<path d="M1490 2696 c0 -13 -3 -44 -6 -70 -6 -43 -5 -47 12 -44 10 2 18 -2 17
-9 -1 -6 4 -13 11 -16 11 -4 13 3 9 32 -3 22 -1 41 5 45 7 4 13 -22 18 -74 3
-44 9 -80 13 -80 4 0 6 30 6 68 0 37 4 68 10 69 6 1 9 -14 8 -35 l-3 -37 15
29 c10 18 13 41 10 58 -6 26 -10 28 -51 28 -32 0 -44 -4 -45 -15 -3 -29 -4
-33 -13 -42 -8 -7 -6 13 4 52 1 6 2 22 1 38 -1 33 -21 37 -21 3z"/>
<path d="M1320 2690 c0 -5 5 -10 10 -10 6 0 10 5 10 10 0 6 -4 10 -10 10 -5 0
-10 -4 -10 -10z"/>
<path d="M1450 2690 c0 -5 5 -10 10 -10 6 0 10 5 10 10 0 6 -4 10 -10 10 -5 0
-10 -4 -10 -10z"/>
<path d="M6357 2693 c-12 -11 -8 -23 8 -23 8 0 15 7 15 15 0 16 -12 20 -23 8z"/>
<path d="M4583 2655 c0 -22 2 -30 4 -17 2 12 2 30 0 40 -3 9 -5 -1 -4 -23z"/>
<path d="M4900 2542 c0 -78 0 -145 -1 -149 0 -4 5 -9 12 -12 9 -3 11 29 6 144
-4 82 -9 151 -12 153 -3 3 -5 -58 -5 -136z"/>
<path d="M6325 2667 c-4 -10 -5 -21 -1 -24 10 -10 18 4 13 24 -4 17 -4 17 -12
0z"/>
<path d="M5275 2635 c4 -38 15 -43 15 -7 0 18 -4 32 -9 32 -5 0 -8 -11 -6 -25z"/>
<path d="M4854 2513 c0 -111 10 -123 21 -29 5 41 4 57 -3 52 -7 -4 -12 9 -15
36 -2 24 -4 -3 -3 -59z"/>
<path d="M5113 2530 c0 -41 2 -58 4 -37 2 20 2 54 0 75 -2 20 -4 3 -4 -38z"/>
<path d="M7258 2544 c2 -33 8 -63 13 -68 14 -16 10 76 -5 103 -11 21 -12 17
-8 -35z"/>
<path d="M4582 2545 c0 -16 2 -22 5 -12 2 9 2 23 0 30 -3 6 -5 -1 -5 -18z"/>
<path d="M7140 2548 c0 -16 5 -28 10 -28 13 0 13 20 0 40 -8 12 -10 9 -10 -12z"/>
<path d="M1615 2550 c4 -6 11 -8 16 -5 14 9 11 15 -7 15 -8 0 -12 -5 -9 -10z"/>
<path d="M7195 2520 c0 -26 3 -36 12 -33 16 6 16 33 0 54 -11 14 -12 11 -12
-21z"/>
<path d="M1591 2508 c0 -13 4 -32 9 -43 6 -15 8 -9 7 23 -1 23 -5 42 -9 42 -4
0 -8 -10 -7 -22z"/>
<path d="M4736 2463 c-3 -26 -8 -109 -12 -183 -3 -74 -8 -153 -11 -175 -3 -22
-8 -104 -10 -182 -5 -153 1 -170 37 -110 19 31 20 45 15 361 -3 181 -7 331 -9
333 -2 2 -7 -17 -10 -44z"/>
<path d="M3370 2460 c0 -5 4 -10 9 -10 6 0 13 5 16 10 3 6 -1 10 -9 10 -9 0
-16 -4 -16 -10z"/>
<path d="M4583 2415 c0 -27 2 -38 4 -22 2 15 2 37 0 50 -2 12 -4 0 -4 -28z"/>
<path d="M7287 2375 c5 -85 9 -99 24 -89 11 6 1 76 -12 84 -4 3 -10 23 -12 45
-2 22 -2 4 0 -40z"/>
<path d="M7317 2436 c-6 -15 1 -26 15 -26 4 0 8 9 8 20 0 23 -15 27 -23 6z"/>
<path d="M7348 2363 c-2 -20 -1 -52 3 -72 5 -29 7 -21 8 37 1 77 -4 95 -11 35z"/>
<path d="M1680 2370 c0 -5 7 -10 15 -10 8 0 15 5 15 10 0 6 -7 10 -15 10 -8 0
-15 -4 -15 -10z"/>
<path d="M4890 2326 c0 -7 7 -13 15 -13 8 0 15 4 15 8 0 4 -7 9 -15 13 -9 3
-15 0 -15 -8z"/>
<path d="M5341 2312 c0 -16 3 -21 6 -12 3 8 10 18 15 21 5 3 3 9 -6 12 -12 5
-16 0 -15 -21z"/>
<path d="M5540 2273 c0 -13 5 -23 10 -23 13 0 13 11 0 30 -8 12 -10 11 -10 -7z"/>
<path d="M7317 2223 c-3 -27 1 -66 9 -92 8 -25 14 -58 14 -73 0 -16 5 -28 11
-28 13 0 6 121 -8 143 -4 6 -7 29 -6 49 2 55 -14 56 -20 1z"/>
<path d="M5353 2211 c1 -46 3 -50 29 -53 31 -5 57 6 40 16 -6 3 -17 3 -26 0
-16 -6 -30 28 -24 61 2 10 -2 20 -8 22 -7 2 -11 -14 -11 -46z"/>
<path d="M1751 2224 c0 -11 3 -14 6 -6 3 7 2 16 -1 19 -3 4 -6 -2 -5 -13z"/>
<path d="M4786 2223 c-3 -10 -8 -101 -11 -203 -4 -102 -10 -201 -14 -220 -9
-46 -3 -80 14 -80 7 0 16 -6 18 -12 3 -7 5 102 5 242 1 140 4 263 7 273 4 9 3
17 -3 17 -6 0 -13 -8 -16 -17z"/>
<path d="M5090 2179 c0 -5 5 -7 10 -4 6 3 10 8 10 11 0 2 -4 4 -10 4 -5 0 -10
-5 -10 -11z"/>
<path d="M5640 2180 c8 -5 25 -10 37 -10 17 0 21 -4 17 -17 -5 -16 -4 -16 6
-3 9 11 13 12 17 3 2 -7 9 -13 14 -13 5 0 2 11 -7 25 -13 20 -24 25 -58 25
-30 0 -37 -3 -26 -10z"/>
<path d="M5770 2179 c0 -5 5 -7 10 -4 6 3 10 8 10 11 0 2 -4 4 -10 4 -5 0 -10
-5 -10 -11z"/>
<path d="M5089 2113 c-6 -56 1 -113 12 -113 7 0 8 25 4 73 -8 84 -11 92 -16
40z"/>
<path d="M5895 2139 c-16 -6 -14 -8 13 -8 33 -1 41 4 20 12 -7 2 -22 1 -33 -4z"/>
<path d="M3525 2130 c3 -5 10 -10 16 -10 5 0 9 5 9 10 0 6 -7 10 -16 10 -8 0
-12 -4 -9 -10z"/>
<path d="M5442 2100 c0 -14 2 -19 5 -12 2 6 2 18 0 25 -3 6 -5 1 -5 -13z"/>
<path d="M5616 2110 c6 -6 21 -6 39 -1 30 9 30 9 -9 10 -26 1 -37 -2 -30 -9z"/>
<path d="M5690 2098 c0 -19 2 -20 10 -8 13 19 13 30 0 30 -5 0 -10 -10 -10
-22z"/>
<path d="M5717 2095 c-4 -24 -2 -25 37 -23 48 3 63 32 20 41 -15 2 -23 0 -22
-7 2 -6 -2 -11 -7 -11 -5 0 -9 6 -7 13 2 6 -1 12 -6 12 -5 0 -12 -11 -15 -25z"/>
<path d="M6020 2100 c0 -5 7 -10 15 -10 8 0 15 5 15 10 0 6 -7 10 -15 10 -8 0
-15 -4 -15 -10z"/>
<path d="M1470 2085 c-8 -9 -8 -15 -2 -15 12 0 26 19 19 26 -2 2 -10 -2 -17
-11z"/>
<path d="M1680 2090 c0 -5 4 -10 9 -10 6 0 13 5 16 10 3 6 -1 10 -9 10 -9 0
-16 -4 -16 -10z"/>
<path d="M5591 2068 l-1 -28 78 1 77 1 -55 9 c-30 4 -63 6 -72 3 -11 -3 -18 2
-21 18 -4 20 -4 20 -6 -4z"/>
<path d="M5620 2080 c0 -5 10 -10 23 -10 18 0 19 2 7 10 -19 13 -30 13 -30 0z"/>
<path d="M6041 2064 c7 -9 21 -13 34 -10 12 3 32 -2 45 -11 22 -16 23 -16 17
1 -4 10 -7 22 -7 27 0 5 -23 9 -51 9 -46 0 -50 -2 -38 -16z"/>
<path d="M1744 2059 c-3 -6 -1 -16 5 -22 8 -8 11 -5 11 11 0 24 -5 28 -16 11z"/>
<path d="M6168 2053 c7 -3 16 -2 19 1 4 3 -2 6 -13 5 -11 0 -14 -3 -6 -6z"/>
<path d="M5790 2025 c0 -8 5 -15 10 -15 6 0 10 7 10 15 0 8 -4 15 -10 15 -5 0
-10 -7 -10 -15z"/>
<path d="M5860 2010 c0 -17 9 -39 20 -50 22 -22 40 -26 40 -10 0 6 7 10 15 10
8 0 15 5 15 10 0 6 -9 10 -20 10 -32 0 -58 21 -52 42 2 10 -1 18 -7 18 -6 0
-11 -13 -11 -30z"/>
<path d="M5550 1996 c0 -14 5 -26 10 -26 6 0 10 9 10 19 0 11 -4 23 -10 26 -6
4 -10 -5 -10 -19z"/>
<path d="M5985 2009 c-17 -6 -17 -8 -2 -8 10 -1 17 -9 17 -22 0 -24 15 -17 23
10 6 23 -10 31 -38 20z"/>
<path d="M6178 2013 c12 -2 32 -2 45 0 12 2 2 4 -23 4 -25 0 -35 -2 -22 -4z"/>
<path d="M1695 1999 c-4 -6 -5 -13 -2 -15 2 -3 1 -21 -3 -40 -6 -26 -5 -34 6
-34 10 0 14 14 14 50 0 50 -3 59 -15 39z"/>
<path d="M6293 2003 c9 -2 25 -2 35 0 9 3 1 5 -18 5 -19 0 -27 -2 -17 -5z"/>
<path d="M6368 2003 c6 -2 18 -2 25 0 6 3 1 5 -13 5 -14 0 -19 -2 -12 -5z"/>
<path d="M5680 1985 c0 -8 9 -15 20 -15 11 0 20 -4 20 -10 0 -17 37 -11 44 6
4 9 4 19 1 22 -3 3 -5 0 -5 -6 0 -7 -9 -12 -20 -12 -11 0 -20 7 -20 15 0 8 -9
15 -20 15 -11 0 -20 -7 -20 -15z"/>
<path d="M5790 1985 c0 -9 5 -15 11 -13 6 2 11 8 11 13 0 5 -5 11 -11 13 -6 2
-11 -4 -11 -13z"/>
<path d="M5831 1984 c0 -11 3 -14 6 -6 3 7 2 16 -1 19 -3 4 -6 -2 -5 -13z"/>
<path d="M6118 1993 c7 -3 16 -2 19 1 4 3 -2 6 -13 5 -11 0 -14 -3 -6 -6z"/>
<path d="M6436 1985 c4 -8 8 -15 10 -15 2 0 4 7 4 15 0 8 -4 15 -10 15 -5 0
-7 -7 -4 -15z"/>
<path d="M1915 1980 c-3 -5 -1 -10 4 -10 6 0 11 5 11 10 0 6 -2 10 -4 10 -3 0
-8 -4 -11 -10z"/>
<path d="M6308 1983 c7 -3 16 -2 19 1 4 3 -2 6 -13 5 -11 0 -14 -3 -6 -6z"/>
<path d="M6375 1980 c3 -5 10 -10 16 -10 5 0 9 5 9 10 0 6 -7 10 -16 10 -8 0
-12 -4 -9 -10z"/>
<path d="M6047 1968 c-25 -9 -35 -33 -12 -27 38 9 45 13 45 25 0 8 -1 14 -2
13 -2 0 -16 -5 -31 -11z"/>
<path d="M6610 1954 c0 -8 5 -12 10 -9 6 4 8 11 5 16 -9 14 -15 11 -15 -7z"/>
<path d="M6127 1928 c9 -51 23 -57 23 -10 0 30 -4 42 -15 42 -11 0 -13 -8 -8
-32z"/>
<path d="M6096 1934 c-9 -25 -7 -64 4 -64 6 0 10 18 10 40 0 43 -4 50 -14 24z"/>
<path d="M6235 1940 c-3 -5 -1 -10 4 -10 6 0 11 5 11 10 0 6 -2 10 -4 10 -3 0
-8 -4 -11 -10z"/>
<path d="M6659 1929 c23 -19 23 -19 2 -19 -12 0 -21 -3 -21 -8 0 -4 18 -6 40
-4 37 4 58 22 25 22 -8 0 -15 4 -15 9 0 5 -12 11 -27 14 l-28 5 24 -19z"/>
<path d="M1787 1933 c-13 -13 -7 -21 13 -16 11 3 17 9 14 14 -6 11 -18 12 -27
2z"/>
<path d="M5790 1920 c0 -11 5 -20 10 -20 6 0 10 9 10 20 0 11 -4 20 -10 20 -5
0 -10 -9 -10 -20z"/>
<path d="M1379 1925 c-3 -5 -2 -30 3 -53 9 -42 10 -43 29 -26 10 9 19 27 19
40 0 16 7 24 23 27 19 4 19 4 -5 6 -15 0 -30 -3 -33 -9 -10 -16 -23 -12 -27 8
-2 9 -6 13 -9 7z"/>
<path d="M6454 1919 c-8 -14 25 -17 36 -4 9 11 7 14 -10 12 -12 -1 -23 -4 -26
-8z"/>
<path d="M6024 1895 c28 -30 56 -33 56 -6 0 18 -25 31 -62 31 -14 0 -13 -4 6
-25z"/>
<path d="M6185 1910 c-28 -7 -27 -8 13 -9 23 0 45 -1 49 -2 4 0 9 4 11 10 4
12 -28 13 -73 1z"/>
<path d="M6732 1908 c6 -18 28 -21 28 -4 0 9 -7 16 -16 16 -9 0 -14 -5 -12
-12z"/>
<path d="M6780 1895 c0 -11 28 -35 40 -35 21 0 5 35 -18 38 -12 2 -22 1 -22
-3z"/>
<path d="M4842 1860 c0 -14 2 -19 5 -12 2 6 2 18 0 25 -3 6 -5 1 -5 -13z"/>
<path d="M1485 1840 c-18 -8 -17 -9 8 -9 15 -1 27 4 27 9 0 12 -8 12 -35 0z"/>
<path d="M6018 1843 c6 -2 18 -2 25 0 6 3 1 5 -13 5 -14 0 -19 -2 -12 -5z"/>
<path d="M6810 1840 c-8 -5 -10 -10 -5 -10 6 0 17 5 25 10 8 5 11 10 5 10 -5
0 -17 -5 -25 -10z"/>
<path d="M1338 1833 c7 -3 16 -2 19 1 4 3 -2 6 -13 5 -11 0 -14 -3 -6 -6z"/>
<path d="M1340 1811 c0 -5 7 -12 16 -15 22 -9 24 -8 24 9 0 8 -9 15 -20 15
-11 0 -20 -4 -20 -9z"/>
<path d="M1390 1770 c0 -5 11 -10 25 -10 14 0 28 0 32 -1 4 0 9 4 11 10 2 7
-11 11 -32 11 -20 0 -36 -4 -36 -10z"/>
<path d="M6900 1770 c0 -5 7 -10 16 -10 8 0 12 5 9 10 -3 6 -10 10 -16 10 -5
0 -9 -4 -9 -10z"/>
<path d="M1507 1683 c-9 -9 12 -33 29 -33 19 0 18 26 -2 34 -19 7 -19 7 -27
-1z"/>
<path d="M1440 1600 c-8 -5 -10 -10 -5 -10 6 0 17 5 25 10 8 5 11 10 5 10 -5
0 -17 -5 -25 -10z"/>
<path d="M1540 1580 c0 -5 5 -10 10 -10 6 0 10 5 10 10 0 6 -4 10 -10 10 -5 0
-10 -4 -10 -10z"/>
<path d="M1413 1537 c-23 -10 -29 -27 -16 -40 3 -4 15 0 25 10 17 15 18 15 18
0 0 -10 7 -17 15 -17 20 0 19 12 -2 37 -15 16 -22 18 -40 10z"/>
<path d="M1345 1500 c3 -5 10 -10 16 -10 5 0 9 5 9 10 0 6 -7 10 -16 10 -8 0
-12 -4 -9 -10z"/>
<path d="M4840 1456 c0 -27 23 -77 34 -73 6 3 9 11 7 18 -2 8 -6 26 -9 42 -4
27 -32 39 -32 13z"/>
<path d="M4871 1354 c0 -11 3 -14 6 -6 3 7 2 16 -1 19 -3 4 -6 -2 -5 -13z"/>
<path d="M3985 1199 c-4 -6 0 -18 9 -27 15 -15 16 -15 16 5 0 25 -15 38 -25
22z"/>
<path d="M5062 1163 c2 -5 14 -30 28 -56 20 -40 22 -51 12 -67 -7 -11 -12 -30
-11 -42 0 -13 3 -17 6 -10 3 7 16 18 30 23 19 7 23 13 17 32 -4 12 -11 25 -16
28 -5 3 -11 23 -15 45 -3 21 -11 42 -17 46 -14 10 -39 10 -34 1z"/>
<path d="M3930 1075 c-15 -18 -5 -35 20 -35 23 0 32 13 24 34 -8 20 -28 21
-44 1z"/>
<path d="M3890 975 c0 -14 5 -25 10 -25 6 0 10 -6 10 -14 0 -17 40 -29 41 -13
4 43 -16 77 -45 77 -10 0 -16 -9 -16 -25z"/>
<path d="M3851 846 l-24 -13 35 -27 c35 -26 88 -35 88 -15 0 13 -55 69 -67 69
-5 -1 -19 -7 -32 -14z"/>
<path d="M3842 672 c-11 -23 -10 -29 5 -39 9 -7 23 -13 30 -13 7 0 13 -4 13
-10 0 -5 7 -10 15 -10 8 0 15 7 15 15 0 8 5 15 10 15 13 0 -17 32 -50 53 -24
15 -25 15 -38 -11z"/>
<path d="M3750 429 c0 -5 5 -7 10 -4 6 3 10 8 10 11 0 2 -4 4 -10 4 -5 0 -10
-5 -10 -11z"/>
<path d="M5492 259 c-13 -20 -2 -32 22 -23 19 7 20 12 3 29 -11 11 -15 10 -25
-6z"/>
<path d="M5607 85 c-4 -8 -2 -17 3 -20 6 -4 10 3 10 14 0 25 -6 27 -13 6z"/>
</g>
</svg>
